M48
; DRILL file {KiCad 9.0.2-9.0.2-0~ubuntu24.04.1} date 2025-05-26T18:38:58-0400
; FORMAT={-:-/ absolute / metric / decimal}
; #@! TF.CreationDate,2025-05-26T18:38:58-04:00
; #@! TF.GenerationSoftware,Kicad,Pcbnew,9.0.2-9.0.2-0~ubuntu24.04.1
; #@! TF.FileFunction,Plated,1,2,PTH
FMAT,2
METRIC
; #@! TA.AperFunction,Plated,PTH,ComponentDrill
T1C0.700
; #@! TA.AperFunction,Plated,PTH,ViaDrill
T2C1.000
; #@! TA.AperFunction,Plated,PTH,ComponentDrill
T3C1.000
%
G90
G05
T1
X134.03Y-86.714
X134.03Y-90.524
X140.392Y-81.888
X141.65Y-86.714
X141.65Y-90.524
X141.662Y-80.618
X141.662Y-83.158
X153.092Y-81.888
X154.35Y-86.714
X154.35Y-90.524
X154.362Y-80.618
X154.362Y-83.158
X161.97Y-86.714
X161.97Y-90.524
T2
X131.75Y-86.5
X131.75Y-116.5
X148.0Y-86.5
X148.0Y-101.5
X148.0Y-116.5
X148.0Y-127.5
X164.25Y-86.5
X164.25Y-101.5
X164.25Y-116.5
T3
X136.951Y-102.779
X136.951Y-105.319
X136.951Y-107.859
X136.951Y-110.399
X136.951Y-112.939
X136.951Y-115.48
X136.951Y-118.019
X136.951Y-120.559
X145.46Y-75.5
X148.0Y-75.5
X150.54Y-75.5
X159.049Y-102.779
X159.049Y-105.319
X159.049Y-107.859
X159.049Y-110.399
X159.049Y-112.939
X159.049Y-115.48
X159.049Y-118.019
X159.049Y-120.559
M30
