%TF.GenerationSoftware,KiCad,Pcbnew,9.0.2-9.0.2-0~ubuntu24.04.1*%
%TF.CreationDate,2025-05-26T18:38:59-04:00*%
%TF.ProjectId,clicker,636c6963-6b65-4722-9e6b-696361645f70,rev?*%
%TF.SameCoordinates,Original*%
%TF.FileFunction,Copper,L1,Top*%
%TF.FilePolarity,Positive*%
%FSLAX46Y46*%
G04 Gerber Fmt 4.6, Leading zero omitted, Abs format (unit mm)*
G04 Created by KiCad (PCBNEW 9.0.2-9.0.2-0~ubuntu24.04.1) date 2025-05-26 18:38:59*
%MOMM*%
%LPD*%
G01*
G04 APERTURE LIST*
G04 Aperture macros list*
%AMRoundRect*
0 Rectangle with rounded corners*
0 $1 Rounding radius*
0 $2 $3 $4 $5 $6 $7 $8 $9 X,Y pos of 4 corners*
0 Add a 4 corners polygon primitive as box body*
4,1,4,$2,$3,$4,$5,$6,$7,$8,$9,$2,$3,0*
0 Add four circle primitives for the rounded corners*
1,1,$1+$1,$2,$3*
1,1,$1+$1,$4,$5*
1,1,$1+$1,$6,$7*
1,1,$1+$1,$8,$9*
0 Add four rect primitives between the rounded corners*
20,1,$1+$1,$2,$3,$4,$5,0*
20,1,$1+$1,$4,$5,$6,$7,0*
20,1,$1+$1,$6,$7,$8,$9,0*
20,1,$1+$1,$8,$9,$2,$3,0*%
G04 Aperture macros list end*
%TA.AperFunction,EtchedComponent*%
%ADD10C,0.000000*%
%TD*%
%TA.AperFunction,ComponentPad*%
%ADD11RoundRect,0.275000X0.625000X-0.275000X0.625000X0.275000X-0.625000X0.275000X-0.625000X-0.275000X0*%
%TD*%
%TA.AperFunction,ComponentPad*%
%ADD12R,1.800000X1.100000*%
%TD*%
%TA.AperFunction,ComponentPad*%
%ADD13C,1.400000*%
%TD*%
%TA.AperFunction,ComponentPad*%
%ADD14R,1.700000X1.700000*%
%TD*%
%TA.AperFunction,ComponentPad*%
%ADD15C,1.700000*%
%TD*%
%TA.AperFunction,ComponentPad*%
%ADD16C,1.600000*%
%TD*%
%TA.AperFunction,ViaPad*%
%ADD17C,1.600000*%
%TD*%
G04 APERTURE END LIST*
D10*
%TA.AperFunction,EtchedComponent*%
%TO.C,G\u002A\u002A\u002A*%
G36*
X131076921Y-93228406D02*
G01*
X131099522Y-93233298D01*
X131131546Y-93240800D01*
X131170743Y-93250380D01*
X131214857Y-93261504D01*
X131231810Y-93265862D01*
X131277546Y-93277613D01*
X131319528Y-93288272D01*
X131355412Y-93297255D01*
X131382852Y-93303977D01*
X131399506Y-93307852D01*
X131402326Y-93308423D01*
X131424697Y-93313512D01*
X131457970Y-93322487D01*
X131499445Y-93334494D01*
X131546420Y-93348678D01*
X131596192Y-93364184D01*
X131646060Y-93380158D01*
X131693322Y-93395744D01*
X131735277Y-93410087D01*
X131769223Y-93422334D01*
X131792457Y-93431629D01*
X131794136Y-93432386D01*
X131808590Y-93438364D01*
X131831771Y-93447255D01*
X131860639Y-93457969D01*
X131892152Y-93469415D01*
X131923269Y-93480501D01*
X131950948Y-93490138D01*
X131972148Y-93497233D01*
X131983829Y-93500695D01*
X131985033Y-93500862D01*
X131993862Y-93503073D01*
X132014295Y-93509785D01*
X132044493Y-93520318D01*
X132082615Y-93533992D01*
X132126820Y-93550129D01*
X132175270Y-93568049D01*
X132226123Y-93587074D01*
X132277541Y-93606524D01*
X132327682Y-93625719D01*
X132374707Y-93643982D01*
X132402843Y-93655075D01*
X132429340Y-93665055D01*
X132452887Y-93672990D01*
X132467676Y-93676994D01*
X132482266Y-93681167D01*
X132508992Y-93690388D01*
X132546672Y-93704206D01*
X132594123Y-93722174D01*
X132650164Y-93743843D01*
X132713612Y-93768763D01*
X132783286Y-93796487D01*
X132799043Y-93802802D01*
X132840598Y-93819309D01*
X132881465Y-93835247D01*
X132918055Y-93849238D01*
X132946779Y-93859901D01*
X132957523Y-93863710D01*
X132976057Y-93870455D01*
X133005844Y-93881748D01*
X133044768Y-93896767D01*
X133090714Y-93914689D01*
X133141566Y-93934691D01*
X133195209Y-93955950D01*
X133213252Y-93963137D01*
X133268969Y-93985305D01*
X133324035Y-94007112D01*
X133376021Y-94027604D01*
X133422500Y-94045828D01*
X133461046Y-94060829D01*
X133489229Y-94071654D01*
X133494193Y-94073529D01*
X133528717Y-94086717D01*
X133562504Y-94099992D01*
X133590592Y-94111388D01*
X133602248Y-94116332D01*
X133628377Y-94127465D01*
X133653706Y-94137815D01*
X133663479Y-94141626D01*
X133729938Y-94171938D01*
X133789442Y-94209268D01*
X133839946Y-94251983D01*
X133879404Y-94298448D01*
X133897509Y-94328589D01*
X133908217Y-94351616D01*
X133913688Y-94370726D01*
X133915028Y-94392160D01*
X133913581Y-94419094D01*
X133910091Y-94448984D01*
X133904781Y-94476732D01*
X133899294Y-94494956D01*
X133881617Y-94525120D01*
X133854679Y-94557203D01*
X133822386Y-94587277D01*
X133788642Y-94611411D01*
X133777307Y-94617680D01*
X133729593Y-94638814D01*
X133670491Y-94660291D01*
X133602974Y-94681356D01*
X133530018Y-94701253D01*
X133454601Y-94719228D01*
X133379696Y-94734524D01*
X133308280Y-94746387D01*
X133243329Y-94754060D01*
X133238464Y-94754474D01*
X133201283Y-94757641D01*
X133154118Y-94761830D01*
X133101323Y-94766643D01*
X133047251Y-94771684D01*
X133004346Y-94775775D01*
X132884146Y-94787215D01*
X132762563Y-94798454D01*
X132636727Y-94809748D01*
X132503769Y-94821352D01*
X132360820Y-94833523D01*
X132280382Y-94840260D01*
X132197532Y-94847285D01*
X132112520Y-94854714D01*
X132026580Y-94862426D01*
X131940947Y-94870296D01*
X131856857Y-94878201D01*
X131775544Y-94886017D01*
X131698243Y-94893622D01*
X131626190Y-94900890D01*
X131560619Y-94907699D01*
X131502766Y-94913925D01*
X131453866Y-94919445D01*
X131415152Y-94924134D01*
X131387862Y-94927870D01*
X131373229Y-94930529D01*
X131371262Y-94931220D01*
X131365768Y-94939594D01*
X131374463Y-94948931D01*
X131388932Y-94955925D01*
X131403660Y-94962205D01*
X131428486Y-94973218D01*
X131460438Y-94987630D01*
X131496548Y-95004104D01*
X131513195Y-95011759D01*
X131548748Y-95027892D01*
X131588865Y-95045675D01*
X131631542Y-95064265D01*
X131674775Y-95082820D01*
X131716560Y-95100497D01*
X131754892Y-95116454D01*
X131787768Y-95129849D01*
X131813184Y-95139839D01*
X131829136Y-95145583D01*
X131833756Y-95146489D01*
X131839833Y-95147654D01*
X131855783Y-95153188D01*
X131878187Y-95161902D01*
X131878779Y-95162141D01*
X131901752Y-95171399D01*
X131934387Y-95184478D01*
X131972955Y-95199888D01*
X132013725Y-95216137D01*
X132029657Y-95222475D01*
X132068782Y-95238147D01*
X132105724Y-95253153D01*
X132137241Y-95266164D01*
X132160092Y-95275846D01*
X132166834Y-95278830D01*
X132191986Y-95289722D01*
X132222143Y-95301956D01*
X132253367Y-95314032D01*
X132281717Y-95324448D01*
X132303255Y-95331705D01*
X132311629Y-95333995D01*
X132323917Y-95338151D01*
X132347406Y-95347551D01*
X132380233Y-95361362D01*
X132420536Y-95378751D01*
X132466453Y-95398885D01*
X132516120Y-95420932D01*
X132567677Y-95444058D01*
X132619260Y-95467432D01*
X132669006Y-95490219D01*
X132715054Y-95511587D01*
X132755542Y-95530704D01*
X132788606Y-95546737D01*
X132799043Y-95551952D01*
X132860199Y-95582947D01*
X132921576Y-95614208D01*
X132981765Y-95645006D01*
X133039358Y-95674610D01*
X133092947Y-95702291D01*
X133141124Y-95727318D01*
X133182481Y-95748962D01*
X133215609Y-95766493D01*
X133239101Y-95779181D01*
X133251547Y-95786296D01*
X133252872Y-95787198D01*
X133265692Y-95795846D01*
X133288605Y-95809850D01*
X133319035Y-95827711D01*
X133354402Y-95847928D01*
X133392129Y-95869001D01*
X133414953Y-95881502D01*
X133441632Y-95896544D01*
X133475422Y-95916406D01*
X133513393Y-95939279D01*
X133552614Y-95963353D01*
X133590157Y-95986819D01*
X133623089Y-96007868D01*
X133648482Y-96024689D01*
X133659877Y-96032738D01*
X133679984Y-96046034D01*
X133704835Y-96060322D01*
X133713904Y-96065033D01*
X133733287Y-96075289D01*
X133746694Y-96083446D01*
X133749922Y-96086124D01*
X133756747Y-96092122D01*
X133772762Y-96104945D01*
X133795639Y-96122761D01*
X133823051Y-96143738D01*
X133825560Y-96145642D01*
X133879995Y-96191186D01*
X133932034Y-96242687D01*
X133977947Y-96296174D01*
X134011385Y-96343426D01*
X134037779Y-96390705D01*
X134060612Y-96443239D01*
X134081653Y-96505197D01*
X134085693Y-96518716D01*
X134094995Y-96552823D01*
X134100958Y-96582302D01*
X134104274Y-96612496D01*
X134105638Y-96648747D01*
X134105807Y-96673595D01*
X134105496Y-96712137D01*
X134104212Y-96739686D01*
X134101495Y-96759646D01*
X134096889Y-96775423D01*
X134090131Y-96790047D01*
X134075397Y-96813696D01*
X134057879Y-96831082D01*
X134034705Y-96843753D01*
X134003001Y-96853256D01*
X133959897Y-96861140D01*
X133957561Y-96861494D01*
X133885370Y-96867656D01*
X133818340Y-96864024D01*
X133758870Y-96850808D01*
X133735605Y-96841962D01*
X133696405Y-96820844D01*
X133671511Y-96798266D01*
X133660908Y-96774330D01*
X133664580Y-96749137D01*
X133682511Y-96722789D01*
X133714685Y-96695387D01*
X133761085Y-96667034D01*
X133763035Y-96665990D01*
X133784897Y-96652831D01*
X133801708Y-96639999D01*
X133808346Y-96632489D01*
X133813901Y-96610812D01*
X133812731Y-96584625D01*
X133805716Y-96560567D01*
X133797134Y-96547899D01*
X133787616Y-96541842D01*
X133766318Y-96530133D01*
X133734443Y-96513374D01*
X133693191Y-96492166D01*
X133643763Y-96467109D01*
X133587361Y-96438804D01*
X133525185Y-96407852D01*
X133458436Y-96374853D01*
X133388317Y-96340408D01*
X133316027Y-96305119D01*
X133242769Y-96269585D01*
X133184437Y-96241465D01*
X133138717Y-96220058D01*
X133082931Y-96194841D01*
X133020428Y-96167266D01*
X132954556Y-96138779D01*
X132888663Y-96110831D01*
X132826098Y-96084870D01*
X132773830Y-96063778D01*
X132740910Y-96050648D01*
X132699182Y-96033885D01*
X132653171Y-96015313D01*
X132607403Y-95996757D01*
X132590138Y-95989730D01*
X132540683Y-95969884D01*
X132484267Y-95947727D01*
X132427217Y-95925720D01*
X132375862Y-95906321D01*
X132366825Y-95902968D01*
X132322097Y-95886371D01*
X132275316Y-95868901D01*
X132231102Y-95852291D01*
X132194080Y-95838274D01*
X132183133Y-95834093D01*
X132155041Y-95823558D01*
X132118539Y-95810217D01*
X132075672Y-95794785D01*
X132028484Y-95777976D01*
X131979022Y-95760505D01*
X131929329Y-95743087D01*
X131881452Y-95726436D01*
X131837434Y-95711268D01*
X131799321Y-95698297D01*
X131769158Y-95688238D01*
X131748990Y-95681805D01*
X131741690Y-95679798D01*
X131730440Y-95676674D01*
X131707984Y-95669688D01*
X131676757Y-95659624D01*
X131639191Y-95647265D01*
X131598530Y-95633669D01*
X131548045Y-95616829D01*
X131493994Y-95599098D01*
X131438339Y-95581092D01*
X131383040Y-95563426D01*
X131330058Y-95546714D01*
X131281355Y-95531573D01*
X131238891Y-95518617D01*
X131204626Y-95508461D01*
X131180523Y-95501720D01*
X131169915Y-95499208D01*
X131156101Y-95495711D01*
X131130643Y-95488231D01*
X131095541Y-95477414D01*
X131052795Y-95463903D01*
X131004405Y-95448345D01*
X130952372Y-95431384D01*
X130898695Y-95413665D01*
X130845374Y-95395834D01*
X130794410Y-95378534D01*
X130774823Y-95371800D01*
X130728832Y-95356008D01*
X130678510Y-95338866D01*
X130629620Y-95322329D01*
X130587924Y-95308352D01*
X130583927Y-95307022D01*
X130513472Y-95282170D01*
X130454926Y-95258061D01*
X130405929Y-95233424D01*
X130364125Y-95206988D01*
X130327155Y-95177482D01*
X130305283Y-95156741D01*
X130278356Y-95128642D01*
X130260064Y-95106594D01*
X130248070Y-95087308D01*
X130240038Y-95067500D01*
X130238650Y-95063011D01*
X130231746Y-95037838D01*
X130228983Y-95019456D01*
X130229803Y-95001035D01*
X130232229Y-94984343D01*
X130237324Y-94963945D01*
X130241855Y-94951927D01*
X130248147Y-94937242D01*
X130257120Y-94914967D01*
X130263381Y-94898890D01*
X130290898Y-94844271D01*
X130330866Y-94789641D01*
X130381479Y-94737065D01*
X130440932Y-94688605D01*
X130457863Y-94676765D01*
X130483884Y-94660416D01*
X130515069Y-94642691D01*
X130547994Y-94625325D01*
X130579232Y-94610055D01*
X130605357Y-94598616D01*
X130622944Y-94592744D01*
X130624121Y-94592527D01*
X130636023Y-94589508D01*
X130659462Y-94582636D01*
X130692294Y-94572573D01*
X130732375Y-94559982D01*
X130777562Y-94545527D01*
X130809048Y-94535317D01*
X130860352Y-94518957D01*
X130911659Y-94503251D01*
X130959909Y-94489089D01*
X131002040Y-94477359D01*
X131034990Y-94468950D01*
X131046194Y-94466448D01*
X131082451Y-94459187D01*
X131124144Y-94451221D01*
X131168657Y-94443007D01*
X131213373Y-94435003D01*
X131255675Y-94427667D01*
X131292948Y-94421457D01*
X131322573Y-94416830D01*
X131341936Y-94414244D01*
X131346848Y-94413861D01*
X131359659Y-94412677D01*
X131383295Y-94409702D01*
X131414352Y-94405388D01*
X131448362Y-94400351D01*
X131500943Y-94393376D01*
X131566402Y-94386446D01*
X131643207Y-94379677D01*
X131729830Y-94373186D01*
X131824741Y-94367090D01*
X131926409Y-94361506D01*
X132006644Y-94357703D01*
X132144211Y-94351165D01*
X132268351Y-94344262D01*
X132380043Y-94336870D01*
X132480266Y-94328860D01*
X132569997Y-94320105D01*
X132650216Y-94310480D01*
X132721901Y-94299856D01*
X132786031Y-94288107D01*
X132843584Y-94275106D01*
X132895539Y-94260726D01*
X132942874Y-94244840D01*
X132975656Y-94231976D01*
X133003521Y-94220333D01*
X132989009Y-94205822D01*
X132977310Y-94198789D01*
X132952465Y-94187686D01*
X132915085Y-94172737D01*
X132865776Y-94154163D01*
X132805148Y-94132186D01*
X132733809Y-94107029D01*
X132652367Y-94078914D01*
X132561431Y-94048062D01*
X132507296Y-94029909D01*
X132332066Y-93969472D01*
X132167250Y-93908746D01*
X132100291Y-93882803D01*
X132068452Y-93870526D01*
X132040433Y-93860192D01*
X132019613Y-93853018D01*
X132010245Y-93850341D01*
X131996319Y-93846437D01*
X131972162Y-93838393D01*
X131940936Y-93827377D01*
X131905806Y-93814555D01*
X131869935Y-93801092D01*
X131836486Y-93788155D01*
X131808623Y-93776910D01*
X131794136Y-93770670D01*
X131763050Y-93756927D01*
X131726842Y-93741371D01*
X131687921Y-93724984D01*
X131648695Y-93708751D01*
X131611573Y-93693653D01*
X131578964Y-93680674D01*
X131553275Y-93670796D01*
X131536916Y-93665003D01*
X131532503Y-93663894D01*
X131523935Y-93660774D01*
X131504059Y-93652024D01*
X131474484Y-93638400D01*
X131436818Y-93620656D01*
X131392668Y-93599548D01*
X131343644Y-93575829D01*
X131312792Y-93560773D01*
X131251545Y-93530614D01*
X131201836Y-93505680D01*
X131162141Y-93485119D01*
X131130935Y-93468080D01*
X131106693Y-93453709D01*
X131087891Y-93441156D01*
X131073005Y-93429567D01*
X131064623Y-93422070D01*
X131036294Y-93390594D01*
X131014116Y-93356541D01*
X130999716Y-93323166D01*
X130994718Y-93293724D01*
X130995668Y-93284018D01*
X131005470Y-93264548D01*
X131024097Y-93245711D01*
X131046412Y-93231694D01*
X131065998Y-93226657D01*
X131076921Y-93228406D01*
G37*
%TD.AperFunction*%
%TA.AperFunction,EtchedComponent*%
G36*
X130524941Y-104922526D02*
G01*
X130609744Y-104929172D01*
X130645157Y-104933448D01*
X130690194Y-104940900D01*
X130739319Y-104951317D01*
X130788277Y-104963605D01*
X130832811Y-104976668D01*
X130868665Y-104989412D01*
X130877612Y-104993245D01*
X130909127Y-105007215D01*
X130940129Y-105020324D01*
X130967890Y-105031493D01*
X130989684Y-105039647D01*
X131002780Y-105043708D01*
X131005339Y-105043666D01*
X131011324Y-105045526D01*
X131027667Y-105052830D01*
X131051950Y-105064365D01*
X131081756Y-105078914D01*
X131114665Y-105095265D01*
X131148260Y-105112203D01*
X131180123Y-105128512D01*
X131207836Y-105142979D01*
X131228981Y-105154389D01*
X131241139Y-105161529D01*
X131243059Y-105163059D01*
X131250113Y-105168732D01*
X131267035Y-105180607D01*
X131291549Y-105197137D01*
X131321380Y-105216770D01*
X131333104Y-105224379D01*
X131414916Y-105279888D01*
X131492786Y-105337822D01*
X131564826Y-105396570D01*
X131629148Y-105454518D01*
X131683865Y-105510057D01*
X131725348Y-105559272D01*
X131751298Y-105596023D01*
X131779516Y-105640543D01*
X131808734Y-105690372D01*
X131837681Y-105743049D01*
X131865088Y-105796113D01*
X131889686Y-105847103D01*
X131910206Y-105893558D01*
X131925378Y-105933016D01*
X131933933Y-105963018D01*
X131934129Y-105964039D01*
X131937826Y-105997762D01*
X131935155Y-106030264D01*
X131925250Y-106064047D01*
X131907247Y-106101617D01*
X131880281Y-106145477D01*
X131862444Y-106171581D01*
X131812498Y-106240547D01*
X131765803Y-106299325D01*
X131719974Y-106349939D01*
X131672631Y-106394415D01*
X131621390Y-106434780D01*
X131563868Y-106473059D01*
X131497682Y-106511277D01*
X131420450Y-106551461D01*
X131408742Y-106557299D01*
X131357056Y-106580391D01*
X131303363Y-106598825D01*
X131244430Y-106613429D01*
X131177023Y-106625031D01*
X131113924Y-106632804D01*
X131065819Y-106636834D01*
X131023029Y-106637492D01*
X130982664Y-106634193D01*
X130941831Y-106626351D01*
X130897639Y-106613379D01*
X130847195Y-106594693D01*
X130787608Y-106569707D01*
X130774823Y-106564115D01*
X130732981Y-106546100D01*
X130692313Y-106529269D01*
X130656015Y-106514896D01*
X130627278Y-106504253D01*
X130612741Y-106499522D01*
X130588809Y-106492120D01*
X130570299Y-106485360D01*
X130562316Y-106481389D01*
X130551012Y-106476304D01*
X130528044Y-106468920D01*
X130495862Y-106459820D01*
X130456918Y-106449587D01*
X130413663Y-106438804D01*
X130368547Y-106428054D01*
X130324023Y-106417920D01*
X130282541Y-106408986D01*
X130246552Y-106401835D01*
X130218508Y-106397049D01*
X130200860Y-106395213D01*
X130200074Y-106395210D01*
X130150074Y-106400681D01*
X130106841Y-106416998D01*
X130068495Y-106445263D01*
X130033157Y-106486576D01*
X130025696Y-106497381D01*
X130006440Y-106531941D01*
X129997319Y-106565100D01*
X129997833Y-106601112D01*
X130007481Y-106644232D01*
X130008122Y-106646408D01*
X130013555Y-106661941D01*
X130021094Y-106676686D01*
X130032424Y-106692783D01*
X130049227Y-106712371D01*
X130073187Y-106737590D01*
X130105310Y-106769905D01*
X130137178Y-106801037D01*
X130168741Y-106830849D01*
X130197254Y-106856815D01*
X130219969Y-106876412D01*
X130229087Y-106883630D01*
X130251388Y-106900932D01*
X130270857Y-106917194D01*
X130281374Y-106927003D01*
X130316227Y-106960024D01*
X130362145Y-106997985D01*
X130417215Y-107039572D01*
X130448767Y-107061801D01*
X130479525Y-107083470D01*
X130547160Y-107128364D01*
X130618209Y-107172940D01*
X130690756Y-107215884D01*
X130749610Y-107248734D01*
X130782559Y-107267271D01*
X130818573Y-107288562D01*
X130846859Y-107306106D01*
X130891407Y-107333996D01*
X130938005Y-107361966D01*
X130983550Y-107388245D01*
X131024940Y-107411062D01*
X131059069Y-107428646D01*
X131073221Y-107435268D01*
X131094049Y-107445220D01*
X131124058Y-107460530D01*
X131159900Y-107479446D01*
X131198226Y-107500214D01*
X131216483Y-107510304D01*
X131262416Y-107535439D01*
X131314801Y-107563427D01*
X131367611Y-107591083D01*
X131414816Y-107615222D01*
X131420802Y-107618224D01*
X131464749Y-107640583D01*
X131512513Y-107665531D01*
X131558823Y-107690278D01*
X131598407Y-107712033D01*
X131604495Y-107715464D01*
X131644302Y-107737577D01*
X131688328Y-107761349D01*
X131730559Y-107783562D01*
X131758118Y-107797606D01*
X131798044Y-107817917D01*
X131840231Y-107840046D01*
X131881942Y-107862492D01*
X131920442Y-107883754D01*
X131952993Y-107902331D01*
X131976860Y-107916719D01*
X131985033Y-107922120D01*
X131998986Y-107930662D01*
X132022190Y-107943552D01*
X132050968Y-107958785D01*
X132071476Y-107969273D01*
X132100764Y-107984710D01*
X132138646Y-108005677D01*
X132181479Y-108030104D01*
X132225618Y-108055918D01*
X132257355Y-108074925D01*
X132296792Y-108098724D01*
X132334413Y-108121248D01*
X132367540Y-108140907D01*
X132393490Y-108156109D01*
X132408631Y-108164740D01*
X132434683Y-108179889D01*
X132460768Y-108196253D01*
X132469629Y-108202202D01*
X132485093Y-108212866D01*
X132509612Y-108229724D01*
X132540351Y-108250828D01*
X132574477Y-108274232D01*
X132591424Y-108285846D01*
X132638346Y-108318878D01*
X132689194Y-108356220D01*
X132742154Y-108396406D01*
X132795410Y-108437967D01*
X132847148Y-108479437D01*
X132895552Y-108519348D01*
X132938808Y-108556232D01*
X132975101Y-108588623D01*
X133002615Y-108615053D01*
X133014633Y-108627993D01*
X133038874Y-108659190D01*
X133063199Y-108695460D01*
X133082865Y-108729660D01*
X133085096Y-108734118D01*
X133098906Y-108763867D01*
X133107008Y-108786591D01*
X133110768Y-108807815D01*
X133111557Y-108833064D01*
X133111452Y-108840526D01*
X133105630Y-108894052D01*
X133094857Y-108932024D01*
X133075828Y-108969283D01*
X133048695Y-109006129D01*
X133017261Y-109038130D01*
X132985330Y-109060851D01*
X132983546Y-109061789D01*
X132955217Y-109071749D01*
X132918558Y-109078403D01*
X132879232Y-109081291D01*
X132842902Y-109079955D01*
X132818547Y-109075137D01*
X132795098Y-109068308D01*
X132773426Y-109063358D01*
X132772578Y-109063210D01*
X132743187Y-109055725D01*
X132704932Y-109042443D01*
X132661330Y-109024933D01*
X132615897Y-109004768D01*
X132572150Y-108983518D01*
X132533604Y-108962755D01*
X132503776Y-108944051D01*
X132500259Y-108941512D01*
X132486371Y-108932089D01*
X132462939Y-108917099D01*
X132432812Y-108898328D01*
X132398836Y-108877562D01*
X132384834Y-108869114D01*
X132341958Y-108843112D01*
X132293945Y-108813621D01*
X132246589Y-108784219D01*
X132205683Y-108758485D01*
X132204743Y-108757889D01*
X132166283Y-108733528D01*
X132125276Y-108707692D01*
X132086600Y-108683447D01*
X132055133Y-108663859D01*
X132054846Y-108663682D01*
X132026616Y-108645812D01*
X132001801Y-108629376D01*
X131983787Y-108616655D01*
X131977427Y-108611548D01*
X131966745Y-108603477D01*
X131945620Y-108588988D01*
X131915863Y-108569243D01*
X131879284Y-108545401D01*
X131837695Y-108518625D01*
X131792906Y-108490075D01*
X131746726Y-108460911D01*
X131700968Y-108432294D01*
X131657441Y-108405385D01*
X131624851Y-108385510D01*
X131588342Y-108363417D01*
X131550826Y-108340719D01*
X131516806Y-108320139D01*
X131491584Y-108304886D01*
X131464202Y-108288249D01*
X131429516Y-108267061D01*
X131392473Y-108244347D01*
X131365520Y-108227761D01*
X131323410Y-108203354D01*
X131291906Y-108188685D01*
X131270919Y-108183840D01*
X131260363Y-108188903D01*
X131260149Y-108203957D01*
X131270192Y-108229085D01*
X131290403Y-108264373D01*
X131304551Y-108286238D01*
X131325351Y-108316784D01*
X131345354Y-108344963D01*
X131362102Y-108367380D01*
X131372058Y-108379494D01*
X131387194Y-108398079D01*
X131404705Y-108422480D01*
X131415039Y-108438278D01*
X131430620Y-108461677D01*
X131446123Y-108482469D01*
X131454594Y-108492305D01*
X131479585Y-108520660D01*
X131508564Y-108557721D01*
X131539441Y-108600378D01*
X131570124Y-108645523D01*
X131598524Y-108690046D01*
X131622548Y-108730837D01*
X131640105Y-108764789D01*
X131644281Y-108774348D01*
X131659348Y-108816249D01*
X131671935Y-108860736D01*
X131681228Y-108903960D01*
X131686413Y-108942070D01*
X131686674Y-108971218D01*
X131686410Y-108973406D01*
X131675786Y-109020871D01*
X131658064Y-109067258D01*
X131635535Y-109107041D01*
X131625784Y-109119756D01*
X131609622Y-109139664D01*
X131596602Y-109157271D01*
X131591797Y-109164808D01*
X131577067Y-109183629D01*
X131552114Y-109206953D01*
X131519587Y-109232817D01*
X131482136Y-109259254D01*
X131442410Y-109284300D01*
X131403060Y-109305991D01*
X131397937Y-109308548D01*
X131360145Y-109326516D01*
X131329628Y-109339049D01*
X131301134Y-109347829D01*
X131269412Y-109354540D01*
X131239457Y-109359361D01*
X131190530Y-109365378D01*
X131143906Y-109368060D01*
X131097244Y-109367114D01*
X131048199Y-109362246D01*
X130994428Y-109353163D01*
X130933589Y-109339572D01*
X130863339Y-109321179D01*
X130807239Y-109305270D01*
X130758554Y-109291394D01*
X130707634Y-109277320D01*
X130656610Y-109263595D01*
X130607616Y-109250764D01*
X130562782Y-109239373D01*
X130524241Y-109229967D01*
X130494125Y-109223093D01*
X130474566Y-109219296D01*
X130469078Y-109218716D01*
X130459777Y-109224167D01*
X130459587Y-109240283D01*
X130468340Y-109266708D01*
X130485868Y-109303086D01*
X130512002Y-109349062D01*
X130546573Y-109404280D01*
X130582615Y-109458433D01*
X130615862Y-109519189D01*
X130639074Y-109587987D01*
X130649425Y-109644916D01*
X130654200Y-109685721D01*
X130624753Y-109700744D01*
X130595935Y-109712631D01*
X130572347Y-109714715D01*
X130548953Y-109707308D01*
X130545584Y-109705622D01*
X130534546Y-109697201D01*
X130515013Y-109679379D01*
X130488192Y-109653407D01*
X130455291Y-109620534D01*
X130417514Y-109582012D01*
X130376070Y-109539091D01*
X130332164Y-109493022D01*
X130287004Y-109445054D01*
X130241796Y-109396440D01*
X130197746Y-109348428D01*
X130156062Y-109302270D01*
X130152207Y-109297956D01*
X130109940Y-109249913D01*
X130076558Y-109209947D01*
X130050766Y-109175938D01*
X130031270Y-109145770D01*
X130016775Y-109117324D01*
X130005985Y-109088481D01*
X129997606Y-109057124D01*
X129993672Y-109038626D01*
X129987071Y-109009585D01*
X129978714Y-108981805D01*
X129967772Y-108953981D01*
X129953413Y-108924807D01*
X129934808Y-108892979D01*
X129911125Y-108857190D01*
X129881535Y-108816135D01*
X129845207Y-108768508D01*
X129801309Y-108713005D01*
X129749012Y-108648319D01*
X129732430Y-108627991D01*
X129677169Y-108559563D01*
X129630844Y-108500299D01*
X129592574Y-108448818D01*
X129561481Y-108403741D01*
X129536682Y-108363687D01*
X129517297Y-108327275D01*
X129505043Y-108299097D01*
X130287682Y-108299097D01*
X130295563Y-108341875D01*
X130305238Y-108365298D01*
X130320563Y-108386771D01*
X130346510Y-108414262D01*
X130381324Y-108446414D01*
X130423249Y-108481872D01*
X130470530Y-108519280D01*
X130521411Y-108557281D01*
X130574137Y-108594521D01*
X130626952Y-108629642D01*
X130678102Y-108661290D01*
X130717194Y-108683494D01*
X130771590Y-108709461D01*
X130829300Y-108730913D01*
X130887351Y-108747173D01*
X130942771Y-108757562D01*
X130992587Y-108761402D01*
X131033828Y-108758016D01*
X131038940Y-108756880D01*
X131067488Y-108748242D01*
X131095698Y-108736985D01*
X131119429Y-108725023D01*
X131134544Y-108714268D01*
X131136695Y-108711694D01*
X131141676Y-108694946D01*
X131137987Y-108671330D01*
X131125302Y-108638843D01*
X131124449Y-108637000D01*
X131114557Y-108617182D01*
X131103418Y-108598488D01*
X131089654Y-108579372D01*
X131071888Y-108558289D01*
X131048742Y-108533694D01*
X131018838Y-108504041D01*
X130980798Y-108467785D01*
X130937653Y-108427475D01*
X130872215Y-108367019D01*
X130815772Y-108315710D01*
X130767093Y-108272551D01*
X130724944Y-108236540D01*
X130688094Y-108206680D01*
X130655309Y-108181972D01*
X130625358Y-108161415D01*
X130597008Y-108144011D01*
X130569519Y-108129014D01*
X130522608Y-108107005D01*
X130483406Y-108094205D01*
X130448767Y-108090354D01*
X130415539Y-108095195D01*
X130380574Y-108108469D01*
X130371776Y-108112779D01*
X130341271Y-108135813D01*
X130316776Y-108169128D01*
X130299123Y-108209558D01*
X130289147Y-108253936D01*
X130287682Y-108299097D01*
X129505043Y-108299097D01*
X129502446Y-108293124D01*
X129491248Y-108259855D01*
X129486620Y-108242625D01*
X129474712Y-108189267D01*
X129468062Y-108143272D01*
X129467149Y-108101622D01*
X129472454Y-108061299D01*
X129484456Y-108019287D01*
X129496194Y-107990694D01*
X129821511Y-107990694D01*
X129823154Y-108041354D01*
X129833563Y-108086719D01*
X129839488Y-108100850D01*
X129865262Y-108143788D01*
X129894753Y-108174323D01*
X129927122Y-108191752D01*
X129952998Y-108195801D01*
X129966878Y-108194169D01*
X129976925Y-108187745D01*
X129984290Y-108174239D01*
X129990125Y-108151359D01*
X129995584Y-108116816D01*
X129996632Y-108109055D01*
X130002857Y-108074182D01*
X130012605Y-108032803D01*
X130024174Y-107991839D01*
X130029281Y-107976090D01*
X130044334Y-107930123D01*
X130054117Y-107895071D01*
X130058947Y-107868571D01*
X130059141Y-107848258D01*
X130055014Y-107831768D01*
X130049941Y-107821600D01*
X130037872Y-107805956D01*
X130021839Y-107796037D01*
X129998658Y-107790740D01*
X129965143Y-107788958D01*
X129955744Y-107788929D01*
X129929383Y-107789866D01*
X129912042Y-107793591D01*
X129898380Y-107801766D01*
X129889775Y-107809450D01*
X129862767Y-107844117D01*
X129841959Y-107888358D01*
X129827994Y-107938456D01*
X129821511Y-107990694D01*
X129496194Y-107990694D01*
X129503635Y-107972568D01*
X129530469Y-107918125D01*
X129541524Y-107897126D01*
X129560904Y-107861071D01*
X129578861Y-107828285D01*
X129593901Y-107801451D01*
X129604529Y-107783250D01*
X129607885Y-107777990D01*
X129624499Y-107750866D01*
X129640618Y-107719219D01*
X129653755Y-107688391D01*
X129661424Y-107663728D01*
X129661699Y-107662335D01*
X129662864Y-107644367D01*
X129657719Y-107627069D01*
X129644580Y-107604781D01*
X129644527Y-107604702D01*
X129630433Y-107585805D01*
X129613479Y-107568330D01*
X129591654Y-107550838D01*
X129562943Y-107531895D01*
X129525333Y-107510062D01*
X129476813Y-107483903D01*
X129470966Y-107480827D01*
X129392721Y-107439711D01*
X129326079Y-107404599D01*
X129269868Y-107374839D01*
X129222916Y-107349775D01*
X129184048Y-107328754D01*
X129152095Y-107311120D01*
X129125881Y-107296221D01*
X129104236Y-107283401D01*
X129085987Y-107272006D01*
X129069960Y-107261383D01*
X129054984Y-107250876D01*
X129042350Y-107241655D01*
X128990202Y-107202268D01*
X128946526Y-107167511D01*
X128912199Y-107138143D01*
X128888099Y-107114918D01*
X128875103Y-107098593D01*
X128874092Y-107096626D01*
X128869950Y-107084027D01*
X128872629Y-107073452D01*
X128883914Y-107059924D01*
X128889153Y-107054637D01*
X128904402Y-107041843D01*
X128923000Y-107031896D01*
X128948842Y-107023077D01*
X128977517Y-107015639D01*
X129016485Y-107006704D01*
X129054080Y-106999168D01*
X129092062Y-106992887D01*
X129132193Y-106987718D01*
X129176232Y-106983518D01*
X129225941Y-106980145D01*
X129283080Y-106977453D01*
X129349410Y-106975302D01*
X129426693Y-106973547D01*
X129513035Y-106972098D01*
X129818037Y-106967582D01*
X129738425Y-106866731D01*
X129679790Y-106790842D01*
X129629968Y-106722675D01*
X129587411Y-106659945D01*
X129550570Y-106600364D01*
X129517897Y-106541645D01*
X129516490Y-106538966D01*
X129491858Y-106489721D01*
X129474576Y-106448853D01*
X129463740Y-106412930D01*
X129458446Y-106378521D01*
X129457788Y-106342193D01*
X129459020Y-106320870D01*
X129468475Y-106261735D01*
X129487775Y-106208913D01*
X129517817Y-106161276D01*
X129559501Y-106117696D01*
X129613724Y-106077045D01*
X129681386Y-106038196D01*
X129686215Y-106035734D01*
X129718707Y-106019679D01*
X129749273Y-106005638D01*
X129779975Y-105992928D01*
X129812876Y-105980870D01*
X129850039Y-105968783D01*
X129893525Y-105955986D01*
X129945398Y-105941797D01*
X129955744Y-105939098D01*
X130007719Y-105925537D01*
X130061663Y-105911799D01*
X130095984Y-105902827D01*
X130125228Y-105894637D01*
X130146549Y-105888066D01*
X130157105Y-105883950D01*
X130157555Y-105883623D01*
X130155111Y-105876586D01*
X130144904Y-105860075D01*
X130128171Y-105835866D01*
X130106147Y-105805735D01*
X130080071Y-105771458D01*
X130074096Y-105763772D01*
X130025725Y-105701184D01*
X129985495Y-105647613D01*
X129952177Y-105601131D01*
X129924540Y-105559815D01*
X129901354Y-105521737D01*
X129881386Y-105484974D01*
X129863407Y-105447598D01*
X129846186Y-105407686D01*
X129845626Y-105406328D01*
X129828615Y-105362958D01*
X130184407Y-105362958D01*
X130188998Y-105371218D01*
X130201794Y-105387704D01*
X130221006Y-105410263D01*
X130244845Y-105436744D01*
X130253258Y-105445799D01*
X130279046Y-105473906D01*
X130301625Y-105499556D01*
X130318928Y-105520323D01*
X130328886Y-105533783D01*
X130330052Y-105535861D01*
X130337782Y-105548203D01*
X130343076Y-105552069D01*
X130349381Y-105557207D01*
X130363479Y-105571442D01*
X130383704Y-105593005D01*
X130408391Y-105620128D01*
X130429592Y-105643915D01*
X130454193Y-105671533D01*
X130486730Y-105707721D01*
X130525371Y-105750460D01*
X130568283Y-105797730D01*
X130613634Y-105847511D01*
X130659592Y-105897784D01*
X130690606Y-105931602D01*
X130740129Y-105985383D01*
X130781232Y-106029504D01*
X130815146Y-106065005D01*
X130843103Y-106092920D01*
X130866337Y-106114288D01*
X130886079Y-106130145D01*
X130903561Y-106141527D01*
X130920016Y-106149473D01*
X130936675Y-106155019D01*
X130954772Y-106159201D01*
X130962936Y-106160770D01*
X130991780Y-106160113D01*
X131028947Y-106149649D01*
X131072967Y-106130141D01*
X131122372Y-106102355D01*
X131175695Y-106067052D01*
X131231466Y-106024997D01*
X131244744Y-106014237D01*
X131277711Y-105983745D01*
X131297937Y-105956299D01*
X131306317Y-105930294D01*
X131304510Y-105906961D01*
X131295106Y-105888283D01*
X131275404Y-105862858D01*
X131246994Y-105832081D01*
X131211467Y-105797345D01*
X131170411Y-105760043D01*
X131125417Y-105721567D01*
X131078076Y-105683313D01*
X131029976Y-105646672D01*
X130982709Y-105613038D01*
X130937864Y-105583804D01*
X130930802Y-105579497D01*
X130899178Y-105561036D01*
X130861002Y-105539732D01*
X130818404Y-105516673D01*
X130773513Y-105492948D01*
X130728456Y-105469646D01*
X130685364Y-105447856D01*
X130646363Y-105428667D01*
X130613584Y-105413167D01*
X130589154Y-105402446D01*
X130575202Y-105397591D01*
X130575173Y-105397586D01*
X130564764Y-105394099D01*
X130543308Y-105385830D01*
X130513004Y-105373662D01*
X130476049Y-105358483D01*
X130434642Y-105341177D01*
X130424004Y-105336687D01*
X130382143Y-105319174D01*
X130344463Y-105303779D01*
X130313088Y-105291338D01*
X130290142Y-105282690D01*
X130277748Y-105278672D01*
X130276503Y-105278489D01*
X130264560Y-105281407D01*
X130245446Y-105288594D01*
X130236105Y-105292654D01*
X130209737Y-105310896D01*
X130191435Y-105336102D01*
X130184407Y-105362958D01*
X129828615Y-105362958D01*
X129827539Y-105360215D01*
X129815579Y-105323574D01*
X129809095Y-105293160D01*
X129807438Y-105265731D01*
X129809958Y-105238044D01*
X129810828Y-105232644D01*
X129828725Y-105169176D01*
X129859238Y-105110348D01*
X129900819Y-105058179D01*
X129951919Y-105014688D01*
X129999220Y-104987208D01*
X130050715Y-104967412D01*
X130113968Y-104950811D01*
X130186646Y-104937599D01*
X130266415Y-104927971D01*
X130276503Y-104927273D01*
X130350943Y-104922119D01*
X130437896Y-104920240D01*
X130524941Y-104922526D01*
G37*
%TD.AperFunction*%
%TA.AperFunction,EtchedComponent*%
G36*
X131188223Y-96062635D02*
G01*
X131244563Y-96065061D01*
X131295972Y-96068791D01*
X131339693Y-96073831D01*
X131340308Y-96073922D01*
X131414540Y-96088041D01*
X131497154Y-96109268D01*
X131584768Y-96136392D01*
X131674002Y-96168201D01*
X131761477Y-96203482D01*
X131843810Y-96241023D01*
X131917622Y-96279613D01*
X131923802Y-96283136D01*
X131971580Y-96312404D01*
X132025625Y-96348613D01*
X132084151Y-96390314D01*
X132145368Y-96436056D01*
X132207490Y-96484388D01*
X132268730Y-96533860D01*
X132327300Y-96583022D01*
X132381412Y-96630423D01*
X132429280Y-96674612D01*
X132469115Y-96714139D01*
X132499130Y-96747553D01*
X132504712Y-96754550D01*
X132557643Y-96831101D01*
X132599983Y-96909503D01*
X132631388Y-96988356D01*
X132651513Y-97066263D01*
X132660012Y-97141824D01*
X132656541Y-97213642D01*
X132640753Y-97280316D01*
X132636965Y-97290664D01*
X132610491Y-97344704D01*
X132572150Y-97402061D01*
X132523578Y-97461017D01*
X132466405Y-97519855D01*
X132402267Y-97576858D01*
X132332795Y-97630309D01*
X132280382Y-97665635D01*
X132259484Y-97677562D01*
X132228212Y-97693730D01*
X132189474Y-97712795D01*
X132146176Y-97733409D01*
X132101223Y-97754226D01*
X132057522Y-97773901D01*
X132017978Y-97791085D01*
X131985499Y-97804434D01*
X131963422Y-97812467D01*
X131929968Y-97820180D01*
X131889252Y-97825493D01*
X131846402Y-97828116D01*
X131806548Y-97827757D01*
X131774817Y-97824126D01*
X131771417Y-97823365D01*
X131753221Y-97817735D01*
X131726551Y-97808006D01*
X131694763Y-97795570D01*
X131661214Y-97781818D01*
X131629259Y-97768141D01*
X131602253Y-97755932D01*
X131583554Y-97746583D01*
X131578028Y-97743165D01*
X131567791Y-97737475D01*
X131549567Y-97728990D01*
X131527017Y-97719222D01*
X131503798Y-97709684D01*
X131483570Y-97701887D01*
X131469993Y-97697344D01*
X131466371Y-97697016D01*
X131460831Y-97696472D01*
X131447263Y-97690581D01*
X131444968Y-97689414D01*
X131426565Y-97682173D01*
X131396526Y-97672976D01*
X131357396Y-97662400D01*
X131311722Y-97651023D01*
X131262049Y-97639424D01*
X131210924Y-97628181D01*
X131160891Y-97617873D01*
X131114498Y-97609077D01*
X131074291Y-97602372D01*
X131044959Y-97598549D01*
X131007563Y-97595477D01*
X130962946Y-97592979D01*
X130913851Y-97591090D01*
X130863025Y-97589843D01*
X130813214Y-97589272D01*
X130767163Y-97589411D01*
X130727619Y-97590294D01*
X130697326Y-97591955D01*
X130680652Y-97594055D01*
X130655689Y-97606079D01*
X130637271Y-97628345D01*
X130627335Y-97657444D01*
X130627418Y-97687741D01*
X130642661Y-97736598D01*
X130671023Y-97782259D01*
X130678835Y-97791550D01*
X130692130Y-97804887D01*
X130715024Y-97825988D01*
X130745944Y-97853519D01*
X130783316Y-97886148D01*
X130825567Y-97922542D01*
X130871125Y-97961367D01*
X130918415Y-98001290D01*
X130965865Y-98040978D01*
X131011901Y-98079099D01*
X131054951Y-98114319D01*
X131093440Y-98145306D01*
X131125796Y-98170725D01*
X131131403Y-98175031D01*
X131174722Y-98207719D01*
X131224137Y-98244328D01*
X131274392Y-98281003D01*
X131320232Y-98313890D01*
X131333104Y-98322980D01*
X131367837Y-98347602D01*
X131399628Y-98370539D01*
X131426075Y-98390028D01*
X131444772Y-98404302D01*
X131451964Y-98410249D01*
X131468630Y-98423085D01*
X131491812Y-98438191D01*
X131506926Y-98446976D01*
X131528092Y-98459339D01*
X131557078Y-98477237D01*
X131589788Y-98498103D01*
X131617043Y-98515979D01*
X131653055Y-98539417D01*
X131692044Y-98563949D01*
X131728495Y-98586142D01*
X131749376Y-98598349D01*
X131807978Y-98632380D01*
X131873508Y-98671559D01*
X131941015Y-98712878D01*
X132005551Y-98753328D01*
X132028254Y-98767838D01*
X132102741Y-98815799D01*
X132166321Y-98856878D01*
X132220255Y-98891915D01*
X132265798Y-98921749D01*
X132304211Y-98947219D01*
X132336752Y-98969164D01*
X132364678Y-98988423D01*
X132389248Y-99005835D01*
X132411720Y-99022240D01*
X132427860Y-99034316D01*
X132466555Y-99064332D01*
X132494824Y-99088908D01*
X132514271Y-99110533D01*
X132526500Y-99131693D01*
X132533117Y-99154878D01*
X132535724Y-99182574D01*
X132536032Y-99202069D01*
X132535247Y-99234163D01*
X132532245Y-99256827D01*
X132526040Y-99274985D01*
X132518752Y-99288512D01*
X132480058Y-99339671D01*
X132430875Y-99383276D01*
X132374134Y-99417007D01*
X132338011Y-99431435D01*
X132299322Y-99441976D01*
X132261311Y-99447070D01*
X132220284Y-99446737D01*
X132172551Y-99440994D01*
X132126816Y-99432468D01*
X132091466Y-99425617D01*
X132060710Y-99420488D01*
X132037548Y-99417522D01*
X132024980Y-99417159D01*
X132024164Y-99417368D01*
X132017350Y-99421601D01*
X132014411Y-99428594D01*
X132015976Y-99439627D01*
X132022671Y-99455978D01*
X132035123Y-99478925D01*
X132053960Y-99509749D01*
X132079809Y-99549726D01*
X132113298Y-99600136D01*
X132115239Y-99603035D01*
X132141605Y-99649078D01*
X132167155Y-99706159D01*
X132190726Y-99770914D01*
X132211155Y-99839978D01*
X132227278Y-99909987D01*
X132233505Y-99945206D01*
X132233711Y-99983325D01*
X132224735Y-100027184D01*
X132208189Y-100072979D01*
X132185682Y-100116905D01*
X132158827Y-100155160D01*
X132133977Y-100180218D01*
X132101684Y-100202890D01*
X132067168Y-100218483D01*
X132026600Y-100228254D01*
X131976153Y-100233460D01*
X131971049Y-100233745D01*
X131933831Y-100235225D01*
X131899865Y-100235207D01*
X131867397Y-100233246D01*
X131834676Y-100228898D01*
X131799947Y-100221718D01*
X131761458Y-100211260D01*
X131717455Y-100197081D01*
X131666187Y-100178734D01*
X131605901Y-100155775D01*
X131534842Y-100127759D01*
X131502389Y-100114788D01*
X131465687Y-100099975D01*
X131433184Y-100086551D01*
X131402464Y-100073421D01*
X131371112Y-100059490D01*
X131336711Y-100043662D01*
X131296847Y-100024844D01*
X131249103Y-100001939D01*
X131191064Y-99973853D01*
X131185430Y-99971120D01*
X131144058Y-99951198D01*
X131106114Y-99933211D01*
X131073863Y-99918211D01*
X131049573Y-99907250D01*
X131035509Y-99901379D01*
X131034153Y-99900918D01*
X131020559Y-99895647D01*
X130997423Y-99885576D01*
X130968152Y-99872221D01*
X130940506Y-99859190D01*
X130890509Y-99835835D01*
X130843549Y-99814968D01*
X130801435Y-99797308D01*
X130765976Y-99783573D01*
X130738980Y-99774482D01*
X130722256Y-99770753D01*
X130718536Y-99771026D01*
X130711417Y-99780917D01*
X130711009Y-99800748D01*
X130716719Y-99828038D01*
X130727957Y-99860308D01*
X130744129Y-99895076D01*
X130751216Y-99908024D01*
X130790820Y-99971440D01*
X130818807Y-100007554D01*
X130831981Y-100024553D01*
X130877976Y-100071366D01*
X130901925Y-100092106D01*
X130939498Y-100121403D01*
X130977305Y-100146741D01*
X131018033Y-100169466D01*
X131064370Y-100190921D01*
X131119002Y-100212449D01*
X131184618Y-100235393D01*
X131196235Y-100239259D01*
X131242555Y-100254948D01*
X131288177Y-100271051D01*
X131329807Y-100286356D01*
X131364151Y-100299655D01*
X131387131Y-100309375D01*
X131412133Y-100321889D01*
X131444804Y-100339772D01*
X131469669Y-100354046D01*
X131483275Y-100361856D01*
X131525676Y-100386974D01*
X131570137Y-100413955D01*
X131614789Y-100441633D01*
X131657760Y-100468839D01*
X131697183Y-100494404D01*
X131731186Y-100517160D01*
X131757901Y-100535939D01*
X131775457Y-100549572D01*
X131781561Y-100555834D01*
X131789056Y-100563733D01*
X131805333Y-100578431D01*
X131827907Y-100597748D01*
X131851374Y-100617131D01*
X131908935Y-100664351D01*
X131956928Y-100704879D01*
X131997296Y-100740683D01*
X132031987Y-100773731D01*
X132062945Y-100805990D01*
X132092117Y-100839428D01*
X132121446Y-100876013D01*
X132152880Y-100917712D01*
X132165223Y-100934542D01*
X132183038Y-100958438D01*
X132197966Y-100977492D01*
X132207822Y-100988960D01*
X132210190Y-100991003D01*
X132215698Y-100997792D01*
X132226905Y-101014694D01*
X132242308Y-101039344D01*
X132260401Y-101069376D01*
X132265169Y-101077447D01*
X132301228Y-101140004D01*
X132329594Y-101192398D01*
X132350871Y-101236244D01*
X132365665Y-101273155D01*
X132374581Y-101304746D01*
X132378225Y-101332630D01*
X132377201Y-101358421D01*
X132375184Y-101370761D01*
X132365820Y-101402473D01*
X132349681Y-101441971D01*
X132328679Y-101485548D01*
X132304725Y-101529498D01*
X132279732Y-101570115D01*
X132255612Y-101603691D01*
X132253987Y-101605705D01*
X132203785Y-101661128D01*
X132147825Y-101712114D01*
X132089255Y-101756196D01*
X132031221Y-101790907D01*
X131998413Y-101806030D01*
X131914562Y-101832338D01*
X131824418Y-101846541D01*
X131729788Y-101848450D01*
X131657892Y-101841830D01*
X131633550Y-101836850D01*
X131598717Y-101827586D01*
X131556323Y-101814989D01*
X131509297Y-101800011D01*
X131460571Y-101783604D01*
X131413073Y-101766721D01*
X131369736Y-101750313D01*
X131343910Y-101739817D01*
X131326144Y-101732735D01*
X131314363Y-101728784D01*
X131313184Y-101728553D01*
X131303539Y-101726735D01*
X131284735Y-101722748D01*
X131269962Y-101719489D01*
X131244807Y-101715081D01*
X131222675Y-101713237D01*
X131214244Y-101713595D01*
X131201631Y-101717777D01*
X131197278Y-101728511D01*
X131197239Y-101739015D01*
X131200877Y-101763762D01*
X131208915Y-101794376D01*
X131219706Y-101826134D01*
X131231603Y-101854312D01*
X131242957Y-101874188D01*
X131245448Y-101877229D01*
X131257423Y-101888291D01*
X131278038Y-101905361D01*
X131304263Y-101925995D01*
X131329502Y-101945101D01*
X131357037Y-101965843D01*
X131380580Y-101984103D01*
X131397535Y-101997831D01*
X131405140Y-102004770D01*
X131415483Y-102013416D01*
X131436473Y-102027878D01*
X131466162Y-102046980D01*
X131502601Y-102069546D01*
X131543841Y-102094401D01*
X131587932Y-102120368D01*
X131632926Y-102146271D01*
X131676873Y-102170936D01*
X131714897Y-102191625D01*
X131743418Y-102207156D01*
X131767891Y-102221033D01*
X131785005Y-102231351D01*
X131790535Y-102235180D01*
X131800394Y-102241405D01*
X131820661Y-102252841D01*
X131848904Y-102268160D01*
X131882691Y-102286036D01*
X131905988Y-102298148D01*
X131980732Y-102337250D01*
X132052638Y-102375994D01*
X132123570Y-102415487D01*
X132195392Y-102456833D01*
X132269970Y-102501138D01*
X132349168Y-102549505D01*
X132434851Y-102603041D01*
X132528882Y-102662850D01*
X132615350Y-102718529D01*
X132645691Y-102738204D01*
X132672833Y-102755951D01*
X132698815Y-102773151D01*
X132725680Y-102791189D01*
X132755468Y-102811447D01*
X132790221Y-102835307D01*
X132831979Y-102864152D01*
X132882782Y-102899364D01*
X132903496Y-102913738D01*
X132973821Y-102963473D01*
X133044615Y-103015263D01*
X133114356Y-103067885D01*
X133181521Y-103120112D01*
X133244589Y-103170719D01*
X133302037Y-103218481D01*
X133352342Y-103262173D01*
X133393982Y-103300569D01*
X133425435Y-103332443D01*
X133430105Y-103337628D01*
X133453698Y-103366857D01*
X133479583Y-103402923D01*
X133503540Y-103439813D01*
X133512532Y-103455021D01*
X133534683Y-103497596D01*
X133547517Y-103532511D01*
X133551447Y-103562731D01*
X133546886Y-103591222D01*
X133535327Y-103618878D01*
X133513601Y-103650498D01*
X133482872Y-103681857D01*
X133447552Y-103709261D01*
X133412053Y-103729022D01*
X133397201Y-103734434D01*
X133377343Y-103740090D01*
X133359816Y-103744252D01*
X133343208Y-103746460D01*
X133326105Y-103746253D01*
X133307094Y-103743170D01*
X133284763Y-103736750D01*
X133257697Y-103726532D01*
X133224485Y-103712057D01*
X133183712Y-103692862D01*
X133133966Y-103668488D01*
X133073833Y-103638472D01*
X133019926Y-103611409D01*
X132899124Y-103550323D01*
X132783514Y-103491056D01*
X132674077Y-103434136D01*
X132571796Y-103380091D01*
X132477653Y-103329450D01*
X132392631Y-103282741D01*
X132317713Y-103240494D01*
X132253880Y-103203236D01*
X132202115Y-103171496D01*
X132201142Y-103170878D01*
X132185285Y-103161136D01*
X132159641Y-103145754D01*
X132126890Y-103126309D01*
X132089717Y-103104376D01*
X132050803Y-103081530D01*
X132012830Y-103059348D01*
X131978482Y-103039406D01*
X131950441Y-103023278D01*
X131934607Y-103014323D01*
X131912741Y-103001793D01*
X131884098Y-102984921D01*
X131854158Y-102966940D01*
X131848164Y-102963293D01*
X131775718Y-102919337D01*
X131714287Y-102882589D01*
X131664212Y-102853249D01*
X131625833Y-102831521D01*
X131621249Y-102829008D01*
X131581938Y-102807294D01*
X131540134Y-102783725D01*
X131498645Y-102759930D01*
X131460279Y-102737539D01*
X131427846Y-102718183D01*
X131404153Y-102703490D01*
X131397937Y-102699409D01*
X131382322Y-102690080D01*
X131355370Y-102675335D01*
X131318727Y-102655999D01*
X131274043Y-102632897D01*
X131222964Y-102606854D01*
X131167140Y-102578695D01*
X131108217Y-102549243D01*
X131047845Y-102519324D01*
X130987670Y-102489762D01*
X130929340Y-102461383D01*
X130874505Y-102435010D01*
X130824811Y-102411469D01*
X130792832Y-102396594D01*
X130735234Y-102370426D01*
X130679892Y-102345958D01*
X130628719Y-102323986D01*
X130583628Y-102305310D01*
X130546533Y-102290728D01*
X130519347Y-102281039D01*
X130508288Y-102277835D01*
X130498271Y-102274801D01*
X130476973Y-102267917D01*
X130446756Y-102257961D01*
X130409982Y-102245711D01*
X130370374Y-102232405D01*
X130327324Y-102218271D01*
X130286385Y-102205534D01*
X130250529Y-102195067D01*
X130222727Y-102187741D01*
X130207471Y-102184610D01*
X130162136Y-102184294D01*
X130119131Y-102194909D01*
X130081418Y-102215024D01*
X130051958Y-102243206D01*
X130038004Y-102266575D01*
X130031763Y-102282571D01*
X130028061Y-102298609D01*
X130026596Y-102318385D01*
X130027062Y-102345592D01*
X130028805Y-102378231D01*
X130033662Y-102430823D01*
X130042128Y-102493309D01*
X130053511Y-102561832D01*
X130067120Y-102632536D01*
X130082264Y-102701565D01*
X130097943Y-102763928D01*
X130107109Y-102798697D01*
X130114993Y-102830423D01*
X130120689Y-102855352D01*
X130123182Y-102868735D01*
X130126668Y-102885998D01*
X130133999Y-102914982D01*
X130144609Y-102953692D01*
X130157931Y-103000132D01*
X130173399Y-103052309D01*
X130190447Y-103108227D01*
X130198849Y-103135251D01*
X130210132Y-103172997D01*
X130222917Y-103218584D01*
X130236621Y-103269650D01*
X130250663Y-103323834D01*
X130264461Y-103378775D01*
X130277433Y-103432112D01*
X130288998Y-103481485D01*
X130298572Y-103524531D01*
X130305576Y-103558891D01*
X130309426Y-103582202D01*
X130309767Y-103585339D01*
X130313256Y-103615397D01*
X130317817Y-103645062D01*
X130320687Y-103659743D01*
X130328742Y-103706334D01*
X130334704Y-103762686D01*
X130338542Y-103825379D01*
X130340226Y-103890997D01*
X130339727Y-103956121D01*
X130337014Y-104017333D01*
X130332057Y-104071215D01*
X130324825Y-104114350D01*
X130324689Y-104114944D01*
X130318447Y-104142018D01*
X130313206Y-104164900D01*
X130310082Y-104178719D01*
X130310048Y-104178873D01*
X130299726Y-104202909D01*
X130279766Y-104231368D01*
X130252886Y-104261267D01*
X130221804Y-104289624D01*
X130189241Y-104313456D01*
X130184934Y-104316131D01*
X130150284Y-104334988D01*
X130112387Y-104352083D01*
X130075217Y-104365920D01*
X130042750Y-104375004D01*
X130020899Y-104377877D01*
X129990855Y-104372436D01*
X129958877Y-104358079D01*
X129931202Y-104337756D01*
X129926913Y-104333429D01*
X129912958Y-104314013D01*
X129896825Y-104284765D01*
X129880294Y-104249705D01*
X129865139Y-104212854D01*
X129853140Y-104178233D01*
X129846263Y-104150963D01*
X129840363Y-104108791D01*
X129835140Y-104052743D01*
X129830588Y-103982718D01*
X129826703Y-103898617D01*
X129823480Y-103800341D01*
X129820912Y-103687791D01*
X129820497Y-103664718D01*
X129818347Y-103560561D01*
X129815649Y-103463726D01*
X129812457Y-103375362D01*
X129808825Y-103296619D01*
X129804808Y-103228646D01*
X129800458Y-103172592D01*
X129795831Y-103129607D01*
X129795053Y-103123907D01*
X129788173Y-103090259D01*
X129777704Y-103054792D01*
X129769260Y-103032988D01*
X129758680Y-103005567D01*
X129745981Y-102966258D01*
X129731727Y-102917329D01*
X129716482Y-102861049D01*
X129700810Y-102799685D01*
X129685275Y-102735504D01*
X129670442Y-102670775D01*
X129656875Y-102607765D01*
X129645139Y-102548742D01*
X129636083Y-102497730D01*
X129628280Y-102433366D01*
X129624080Y-102360933D01*
X129623601Y-102286338D01*
X129626959Y-102215491D01*
X129629880Y-102185311D01*
X129641749Y-102113553D01*
X129660266Y-102051375D01*
X129686905Y-101994909D01*
X129723141Y-101940289D01*
X129723433Y-101939902D01*
X129761218Y-101899097D01*
X129810421Y-101859953D01*
X129868056Y-101824113D01*
X129931134Y-101793218D01*
X129996668Y-101768913D01*
X130061670Y-101752840D01*
X130064569Y-101752331D01*
X130092179Y-101749429D01*
X130130662Y-101747943D01*
X130176561Y-101747831D01*
X130226414Y-101749053D01*
X130276762Y-101751568D01*
X130324146Y-101755336D01*
X130324596Y-101755381D01*
X130376027Y-101760688D01*
X130421712Y-101766069D01*
X130465257Y-101772078D01*
X130510269Y-101779274D01*
X130560354Y-101788213D01*
X130619119Y-101799453D01*
X130652361Y-101806006D01*
X130718558Y-101819030D01*
X130772213Y-101829256D01*
X130814879Y-101836869D01*
X130848110Y-101842055D01*
X130873459Y-101844999D01*
X130892480Y-101845887D01*
X130906725Y-101844904D01*
X130917747Y-101842236D01*
X130925948Y-101838676D01*
X130948056Y-101820984D01*
X130958189Y-101796430D01*
X130956689Y-101764027D01*
X130954876Y-101755921D01*
X130947930Y-101733472D01*
X130937499Y-101709374D01*
X130922660Y-101682230D01*
X130902492Y-101650637D01*
X130876070Y-101613196D01*
X130842472Y-101568507D01*
X130800775Y-101515169D01*
X130774358Y-101482018D01*
X130720569Y-101414653D01*
X130674454Y-101356402D01*
X130634504Y-101305282D01*
X130599205Y-101259309D01*
X130567045Y-101216498D01*
X130536514Y-101174868D01*
X130506098Y-101132432D01*
X130483393Y-101100225D01*
X130460021Y-101067239D01*
X130438237Y-101037144D01*
X130419967Y-101012554D01*
X130407138Y-100996086D01*
X130403791Y-100992171D01*
X130388393Y-100970959D01*
X130370285Y-100939024D01*
X130353934Y-100905664D01*
X131133108Y-100905664D01*
X131133885Y-100944142D01*
X131146533Y-100979162D01*
X131161302Y-100997622D01*
X131187982Y-101020356D01*
X131225020Y-101046514D01*
X131270860Y-101075249D01*
X131323950Y-101105711D01*
X131382734Y-101137052D01*
X131445659Y-101168424D01*
X131511169Y-101198976D01*
X131577711Y-101227861D01*
X131643731Y-101254229D01*
X131664471Y-101261989D01*
X131702900Y-101276376D01*
X131740304Y-101290839D01*
X131772651Y-101303790D01*
X131795911Y-101313640D01*
X131797738Y-101314465D01*
X131834072Y-101326623D01*
X131875060Y-101333361D01*
X131916364Y-101334583D01*
X131953642Y-101330192D01*
X131982556Y-101320092D01*
X131985033Y-101318633D01*
X132013918Y-101294210D01*
X132031326Y-101263190D01*
X132038241Y-101223603D01*
X132038443Y-101211762D01*
X132035656Y-101180307D01*
X132027177Y-101148091D01*
X132011966Y-101112725D01*
X131988985Y-101071822D01*
X131957196Y-101022992D01*
X131954994Y-101019769D01*
X131895757Y-100942938D01*
X131830791Y-100877737D01*
X131766765Y-100827913D01*
X131696032Y-100786084D01*
X131621654Y-100755046D01*
X131545557Y-100735039D01*
X131469669Y-100726303D01*
X131395916Y-100729081D01*
X131326225Y-100743613D01*
X131270647Y-100765878D01*
X131215385Y-100798328D01*
X131173968Y-100832568D01*
X131146506Y-100868410D01*
X131133108Y-100905664D01*
X130353934Y-100905664D01*
X130350887Y-100899447D01*
X130331622Y-100855306D01*
X130313911Y-100809680D01*
X130299175Y-100765650D01*
X130299055Y-100765256D01*
X130280724Y-100688059D01*
X130274589Y-100616793D01*
X130280735Y-100549582D01*
X130288505Y-100522290D01*
X130717536Y-100522290D01*
X130718391Y-100545165D01*
X130719265Y-100557213D01*
X130724566Y-100595497D01*
X130735522Y-100632581D01*
X130749326Y-100665333D01*
X130769089Y-100706329D01*
X130785946Y-100736315D01*
X130801821Y-100757858D01*
X130818637Y-100773520D01*
X130838320Y-100785868D01*
X130840670Y-100787096D01*
X130863931Y-100797480D01*
X130881471Y-100800441D01*
X130896754Y-100797825D01*
X130930181Y-100784797D01*
X130955776Y-100765716D01*
X130976848Y-100737507D01*
X130990743Y-100710551D01*
X131003045Y-100682261D01*
X131009708Y-100660872D01*
X131011925Y-100640602D01*
X131010889Y-100615668D01*
X131010731Y-100613665D01*
X131001964Y-100563008D01*
X130984117Y-100523174D01*
X130956291Y-100493178D01*
X130917588Y-100472034D01*
X130869895Y-100459242D01*
X130818807Y-100454195D01*
X130777759Y-100459193D01*
X130746403Y-100474299D01*
X130736180Y-100483523D01*
X130725385Y-100496024D01*
X130719518Y-100507428D01*
X130717536Y-100522290D01*
X130288505Y-100522290D01*
X130299250Y-100484550D01*
X130313572Y-100451435D01*
X130331467Y-100417186D01*
X130351309Y-100385939D01*
X130375406Y-100354718D01*
X130406061Y-100320542D01*
X130445581Y-100280433D01*
X130447024Y-100279011D01*
X130477909Y-100247163D01*
X130504741Y-100216711D01*
X130525078Y-100190550D01*
X130534931Y-100174847D01*
X130545389Y-100152748D01*
X130549495Y-100136222D01*
X130548209Y-100118430D01*
X130544999Y-100103212D01*
X130538857Y-100083990D01*
X130527535Y-100055257D01*
X130512431Y-100020321D01*
X130494944Y-99982489D01*
X130486991Y-99966055D01*
X130463851Y-99918658D01*
X130446131Y-99881451D01*
X130432747Y-99851769D01*
X130422615Y-99826949D01*
X130414650Y-99804326D01*
X130407768Y-99781235D01*
X130400884Y-99755011D01*
X130400535Y-99753629D01*
X130386136Y-99684340D01*
X130380673Y-99623953D01*
X130384340Y-99569921D01*
X130397334Y-99519692D01*
X130419850Y-99470717D01*
X130422581Y-99465880D01*
X130452067Y-99422243D01*
X130485895Y-99388745D01*
X130527583Y-99362488D01*
X130570259Y-99344270D01*
X130627312Y-99325141D01*
X130679682Y-99311945D01*
X130730763Y-99304445D01*
X130783944Y-99302403D01*
X130842619Y-99305583D01*
X130910178Y-99313746D01*
X130940506Y-99318363D01*
X131014615Y-99332837D01*
X131097450Y-99353702D01*
X131185447Y-99379836D01*
X131275036Y-99410119D01*
X131362652Y-99443428D01*
X131431656Y-99472722D01*
X131474161Y-99490621D01*
X131519067Y-99507587D01*
X131562685Y-99522382D01*
X131601326Y-99533769D01*
X131631302Y-99540510D01*
X131635657Y-99541156D01*
X131647361Y-99543146D01*
X131650064Y-99544137D01*
X131656297Y-99545717D01*
X131671314Y-99547995D01*
X131671578Y-99548030D01*
X131691954Y-99551472D01*
X131717726Y-99556818D01*
X131727489Y-99559077D01*
X131756105Y-99564269D01*
X131773254Y-99562626D01*
X131780520Y-99553422D01*
X131779483Y-99535928D01*
X131779336Y-99535245D01*
X131773844Y-99514130D01*
X131766407Y-99494960D01*
X131755679Y-99476146D01*
X131740312Y-99456097D01*
X131718961Y-99433224D01*
X131690278Y-99405936D01*
X131652918Y-99372644D01*
X131610877Y-99336332D01*
X131561918Y-99294451D01*
X131521648Y-99260232D01*
X131487853Y-99231921D01*
X131458320Y-99207762D01*
X131430836Y-99186001D01*
X131403186Y-99164882D01*
X131373157Y-99142649D01*
X131338535Y-99117549D01*
X131300688Y-99090389D01*
X131266263Y-99065594D01*
X131235483Y-99043151D01*
X131210453Y-99024616D01*
X131193279Y-99011546D01*
X131186434Y-99005900D01*
X131174566Y-98997174D01*
X131155049Y-98985572D01*
X131142208Y-98978756D01*
X131120707Y-98967014D01*
X131103706Y-98956236D01*
X131097982Y-98951683D01*
X131086776Y-98942751D01*
X131066402Y-98928428D01*
X131039174Y-98910177D01*
X131007403Y-98889458D01*
X130973401Y-98867732D01*
X130939479Y-98846462D01*
X130907950Y-98827108D01*
X130881125Y-98811131D01*
X130861316Y-98799993D01*
X130850836Y-98795156D01*
X130850203Y-98795064D01*
X130842846Y-98791302D01*
X130826229Y-98781179D01*
X130803004Y-98766439D01*
X130775825Y-98748823D01*
X130747343Y-98730076D01*
X130720209Y-98711940D01*
X130697078Y-98696160D01*
X130680600Y-98684477D01*
X130673972Y-98679235D01*
X130663371Y-98670289D01*
X130644575Y-98655582D01*
X130621053Y-98637809D01*
X130612741Y-98631655D01*
X130572993Y-98600874D01*
X130542259Y-98572703D01*
X130517255Y-98543201D01*
X130494702Y-98508424D01*
X130471316Y-98464430D01*
X130468038Y-98457817D01*
X130456940Y-98432455D01*
X130452552Y-98412268D01*
X130453563Y-98390464D01*
X130454193Y-98386004D01*
X130462414Y-98352996D01*
X130476064Y-98320165D01*
X130492833Y-98292050D01*
X130510408Y-98273190D01*
X130512314Y-98271860D01*
X130529290Y-98256304D01*
X130541266Y-98239299D01*
X130546891Y-98225863D01*
X130548169Y-98212238D01*
X130545078Y-98193254D01*
X130540983Y-98176623D01*
X130522731Y-98119836D01*
X130497766Y-98067466D01*
X130463761Y-98015072D01*
X130440377Y-97984655D01*
X130367317Y-97888768D01*
X130304108Y-97794201D01*
X130247594Y-97696083D01*
X130225161Y-97652774D01*
X130201366Y-97593442D01*
X130187905Y-97532339D01*
X130185132Y-97472662D01*
X130193400Y-97417610D01*
X130197589Y-97403904D01*
X130226578Y-97341170D01*
X130267195Y-97285691D01*
X130318008Y-97238643D01*
X130377583Y-97201201D01*
X130444485Y-97174544D01*
X130490279Y-97163722D01*
X130507125Y-97160696D01*
X130533448Y-97155916D01*
X130564556Y-97150236D01*
X130576723Y-97148007D01*
X130612740Y-97142965D01*
X130661502Y-97138589D01*
X130721357Y-97134995D01*
X130790653Y-97132297D01*
X130809554Y-97131769D01*
X130977553Y-97127423D01*
X130863022Y-96976147D01*
X130828890Y-96930782D01*
X130794652Y-96884768D01*
X130762214Y-96840704D01*
X130733482Y-96801188D01*
X130710363Y-96768821D01*
X130699240Y-96752834D01*
X130676311Y-96719403D01*
X130652815Y-96685326D01*
X130631895Y-96655148D01*
X130619620Y-96637576D01*
X130581597Y-96577036D01*
X130555677Y-96521076D01*
X130545180Y-96481861D01*
X130897285Y-96481861D01*
X130901079Y-96490406D01*
X130911173Y-96507548D01*
X130925634Y-96530062D01*
X130930743Y-96537689D01*
X130969570Y-96592248D01*
X131014059Y-96649268D01*
X131065082Y-96709701D01*
X131123513Y-96774500D01*
X131190227Y-96844615D01*
X131266097Y-96920999D01*
X131351996Y-97004604D01*
X131410136Y-97059975D01*
X131451280Y-97098757D01*
X131483971Y-97129132D01*
X131510144Y-97152679D01*
X131531733Y-97170976D01*
X131550671Y-97185602D01*
X131568893Y-97198134D01*
X131588333Y-97210151D01*
X131608495Y-97221846D01*
X131674737Y-97254068D01*
X131736832Y-97272650D01*
X131795084Y-97277657D01*
X131844124Y-97270699D01*
X131887018Y-97257305D01*
X131930101Y-97239802D01*
X131970463Y-97219759D01*
X132005195Y-97198748D01*
X132031388Y-97178336D01*
X132044932Y-97162348D01*
X132047001Y-97148365D01*
X132044542Y-97124787D01*
X132038356Y-97095404D01*
X132029248Y-97064007D01*
X132018021Y-97034384D01*
X132017605Y-97033438D01*
X132011928Y-97021395D01*
X132005487Y-97010531D01*
X131996883Y-96999656D01*
X131984715Y-96987582D01*
X131967585Y-96973121D01*
X131944091Y-96955084D01*
X131912836Y-96932283D01*
X131872418Y-96903529D01*
X131826627Y-96871280D01*
X131796829Y-96850189D01*
X131770435Y-96831234D01*
X131750179Y-96816398D01*
X131738799Y-96807665D01*
X131738372Y-96807305D01*
X131724780Y-96797654D01*
X131704161Y-96785068D01*
X131691475Y-96777965D01*
X131668680Y-96764954D01*
X131639562Y-96747374D01*
X131609779Y-96728655D01*
X131604770Y-96725421D01*
X131582729Y-96711542D01*
X131554427Y-96694336D01*
X131522284Y-96675203D01*
X131488720Y-96655542D01*
X131456156Y-96636754D01*
X131427013Y-96620239D01*
X131403711Y-96607397D01*
X131388671Y-96599628D01*
X131384386Y-96597956D01*
X131377172Y-96594605D01*
X131360022Y-96585478D01*
X131335501Y-96571969D01*
X131306170Y-96555470D01*
X131306053Y-96555404D01*
X131268853Y-96534736D01*
X131224550Y-96510810D01*
X131178962Y-96486736D01*
X131141631Y-96467508D01*
X131104777Y-96449108D01*
X131077495Y-96436466D01*
X131056659Y-96428528D01*
X131039147Y-96424237D01*
X131021835Y-96422540D01*
X131007837Y-96422332D01*
X130970179Y-96425486D01*
X130944862Y-96434724D01*
X130944324Y-96435071D01*
X130923502Y-96450590D01*
X130906928Y-96466313D01*
X130897985Y-96478874D01*
X130897285Y-96481861D01*
X130545180Y-96481861D01*
X130542098Y-96470345D01*
X130541096Y-96425492D01*
X130541395Y-96423314D01*
X130550166Y-96390099D01*
X130566715Y-96350513D01*
X130588945Y-96308674D01*
X130614761Y-96268703D01*
X130630605Y-96247933D01*
X130686990Y-96189999D01*
X130753496Y-96140524D01*
X130827551Y-96101153D01*
X130900886Y-96075064D01*
X130928965Y-96069816D01*
X130968641Y-96065829D01*
X131007837Y-96063633D01*
X131017160Y-96063111D01*
X131071766Y-96061667D01*
X131129706Y-96061506D01*
X131188223Y-96062635D01*
G37*
%TD.AperFunction*%
%TD*%
D11*
%TO.P,Q102,3,C*%
%TO.N,/B_Button*%
X154762000Y-80618000D03*
%TO.P,Q102,2,B*%
%TO.N,/B_BASE*%
X152692000Y-81888000D03*
D12*
%TO.P,Q102,1,E*%
%TO.N,GND*%
X154762000Y-83158000D03*
%TD*%
D11*
%TO.P,Q101,3,C*%
%TO.N,/A_Button*%
X142062000Y-80618000D03*
%TO.P,Q101,2,B*%
%TO.N,/A_BASE*%
X139992000Y-81888000D03*
D12*
%TO.P,Q101,1,E*%
%TO.N,GND*%
X142062000Y-83158000D03*
%TD*%
D13*
%TO.P,R102,2*%
%TO.N,/D1*%
X141650000Y-90524000D03*
%TO.P,R102,1*%
%TO.N,GND*%
X134030000Y-90524000D03*
%TD*%
%TO.P,R101,1*%
%TO.N,/D1*%
X141650000Y-86714000D03*
%TO.P,R101,2*%
%TO.N,/A_BASE*%
X134030000Y-86714000D03*
%TD*%
D14*
%TO.P,J101,1,Pin_1*%
%TO.N,/A_Button*%
X145460000Y-75500000D03*
D15*
%TO.P,J101,2,Pin_2*%
%TO.N,GND*%
X148000000Y-75500000D03*
%TO.P,J101,3,Pin_3*%
%TO.N,/B_Button*%
X150540000Y-75500000D03*
%TD*%
D16*
%TO.P,U101,1,3V3*%
%TO.N,+3V3*%
X136951000Y-120559500D03*
%TO.P,U101,2,D8*%
%TO.N,unconnected-(U101-D8-Pad2)*%
X136951000Y-118019500D03*
%TO.P,U101,3,D7*%
%TO.N,unconnected-(U101-D7-Pad3)*%
X136951000Y-115479500D03*
%TO.P,U101,4,D6*%
%TO.N,unconnected-(U101-D6-Pad4)*%
X136951000Y-112939500D03*
%TO.P,U101,5,D5*%
%TO.N,unconnected-(U101-D5-Pad5)*%
X136951000Y-110399500D03*
%TO.P,U101,6,D0*%
%TO.N,unconnected-(U101-D0-Pad6)*%
X136951000Y-107859500D03*
%TO.P,U101,7,A0*%
%TO.N,unconnected-(U101-A0-Pad7)*%
X136951000Y-105319500D03*
%TO.P,U101,8,RST*%
%TO.N,unconnected-(U101-RST-Pad8)*%
X136951000Y-102779500D03*
%TO.P,U101,9,5V*%
%TO.N,+5V*%
X159049000Y-120559500D03*
%TO.P,U101,10,GND*%
%TO.N,GND*%
X159049000Y-118019500D03*
%TO.P,U101,11,D4*%
%TO.N,unconnected-(U101-D4-Pad11)*%
X159049000Y-115479500D03*
%TO.P,U101,12,D3*%
%TO.N,unconnected-(U101-D3-Pad12)*%
X159049000Y-112939500D03*
%TO.P,U101,13,D2*%
%TO.N,/D2*%
X159049000Y-110399500D03*
%TO.P,U101,14,D1*%
%TO.N,/D1*%
X159049000Y-107859500D03*
%TO.P,U101,15,RX*%
%TO.N,unconnected-(U101-RX-Pad15)*%
X159049000Y-105319500D03*
%TO.P,U101,16,TX*%
%TO.N,unconnected-(U101-TX-Pad16)*%
X159049000Y-102779500D03*
%TD*%
D13*
%TO.P,R104,2*%
%TO.N,/D2*%
X161970000Y-90524000D03*
%TO.P,R104,1*%
%TO.N,GND*%
X154350000Y-90524000D03*
%TD*%
%TO.P,R103,1*%
%TO.N,/D2*%
X161970000Y-86714000D03*
%TO.P,R103,2*%
%TO.N,/B_BASE*%
X154350000Y-86714000D03*
%TD*%
D17*
%TO.N,GND*%
X164250000Y-101500000D03*
X148000000Y-101500000D03*
X148000000Y-127500000D03*
X148000000Y-86500000D03*
X148000000Y-116500000D03*
X131750000Y-116500000D03*
X131750000Y-86500000D03*
X164250000Y-86500000D03*
X164250000Y-116500000D03*
%TD*%
%TA.AperFunction,Conductor*%
%TO.N,GND*%
G36*
X164003032Y-72000648D02*
G01*
X164336929Y-72017052D01*
X164349037Y-72018245D01*
X164452146Y-72033539D01*
X164676699Y-72066849D01*
X164688617Y-72069219D01*
X165009951Y-72149709D01*
X165021588Y-72153240D01*
X165092806Y-72178722D01*
X165333467Y-72264832D01*
X165344688Y-72269479D01*
X165644163Y-72411120D01*
X165654871Y-72416844D01*
X165938988Y-72587137D01*
X165949106Y-72593897D01*
X166215170Y-72791224D01*
X166224576Y-72798944D01*
X166470013Y-73021395D01*
X166478604Y-73029986D01*
X166665755Y-73236475D01*
X166701055Y-73275423D01*
X166708775Y-73284829D01*
X166906102Y-73550893D01*
X166912862Y-73561011D01*
X167047982Y-73786446D01*
X167083148Y-73845116D01*
X167088883Y-73855844D01*
X167228008Y-74150000D01*
X167230514Y-74155297D01*
X167235170Y-74166540D01*
X167346759Y-74478411D01*
X167350292Y-74490055D01*
X167430777Y-74811369D01*
X167433151Y-74823305D01*
X167481754Y-75150962D01*
X167482947Y-75163071D01*
X167499351Y-75496966D01*
X167499500Y-75503051D01*
X167499500Y-127496948D01*
X167499351Y-127503033D01*
X167482947Y-127836928D01*
X167481754Y-127849037D01*
X167433151Y-128176694D01*
X167430777Y-128188630D01*
X167350292Y-128509944D01*
X167346759Y-128521588D01*
X167235170Y-128833459D01*
X167230514Y-128844702D01*
X167088885Y-129144151D01*
X167083148Y-129154883D01*
X166912862Y-129438988D01*
X166906102Y-129449106D01*
X166708775Y-129715170D01*
X166701055Y-129724576D01*
X166478611Y-129970006D01*
X166470006Y-129978611D01*
X166224576Y-130201055D01*
X166215170Y-130208775D01*
X165949106Y-130406102D01*
X165938988Y-130412862D01*
X165654883Y-130583148D01*
X165644151Y-130588885D01*
X165344702Y-130730514D01*
X165333459Y-130735170D01*
X165021588Y-130846759D01*
X165009944Y-130850292D01*
X164688630Y-130930777D01*
X164676694Y-130933151D01*
X164349037Y-130981754D01*
X164336928Y-130982947D01*
X164021989Y-130998419D01*
X164003031Y-130999351D01*
X163996949Y-130999500D01*
X132003051Y-130999500D01*
X131996968Y-130999351D01*
X131976900Y-130998365D01*
X131663071Y-130982947D01*
X131650962Y-130981754D01*
X131323305Y-130933151D01*
X131311369Y-130930777D01*
X130990055Y-130850292D01*
X130978411Y-130846759D01*
X130666540Y-130735170D01*
X130655301Y-130730515D01*
X130355844Y-130588883D01*
X130345121Y-130583150D01*
X130061011Y-130412862D01*
X130050893Y-130406102D01*
X129784829Y-130208775D01*
X129775423Y-130201055D01*
X129736475Y-130165755D01*
X129529986Y-129978604D01*
X129521395Y-129970013D01*
X129298944Y-129724576D01*
X129291224Y-129715170D01*
X129093897Y-129449106D01*
X129087137Y-129438988D01*
X128974162Y-129250500D01*
X128916844Y-129154871D01*
X128911120Y-129144163D01*
X128769479Y-128844688D01*
X128764829Y-128833459D01*
X128653240Y-128521588D01*
X128649707Y-128509944D01*
X128640958Y-128475015D01*
X128569219Y-128188617D01*
X128566848Y-128176694D01*
X128518245Y-127849037D01*
X128517052Y-127836927D01*
X128507040Y-127633120D01*
X128506980Y-127631902D01*
X130249500Y-127631902D01*
X130249500Y-127868097D01*
X130286446Y-128101368D01*
X130359433Y-128325996D01*
X130435363Y-128475015D01*
X130466657Y-128536433D01*
X130605483Y-128727510D01*
X130772490Y-128894517D01*
X130963567Y-129033343D01*
X131062991Y-129084002D01*
X131174003Y-129140566D01*
X131174005Y-129140566D01*
X131174008Y-129140568D01*
X131294412Y-129179689D01*
X131398631Y-129213553D01*
X131631903Y-129250500D01*
X131631908Y-129250500D01*
X131868097Y-129250500D01*
X132101368Y-129213553D01*
X132325992Y-129140568D01*
X132536433Y-129033343D01*
X132727510Y-128894517D01*
X132894517Y-128727510D01*
X133033343Y-128536433D01*
X133140568Y-128325992D01*
X133213553Y-128101368D01*
X133215671Y-128087993D01*
X133250500Y-127868097D01*
X133250500Y-127631902D01*
X162749500Y-127631902D01*
X162749500Y-127868097D01*
X162786446Y-128101368D01*
X162859433Y-128325996D01*
X162935363Y-128475015D01*
X162966657Y-128536433D01*
X163105483Y-128727510D01*
X163272490Y-128894517D01*
X163463567Y-129033343D01*
X163562991Y-129084002D01*
X163674003Y-129140566D01*
X163674005Y-129140566D01*
X163674008Y-129140568D01*
X163794412Y-129179689D01*
X163898631Y-129213553D01*
X164131903Y-129250500D01*
X164131908Y-129250500D01*
X164368097Y-129250500D01*
X164601368Y-129213553D01*
X164825992Y-129140568D01*
X165036433Y-129033343D01*
X165227510Y-128894517D01*
X165394517Y-128727510D01*
X165533343Y-128536433D01*
X165640568Y-128325992D01*
X165713553Y-128101368D01*
X165715671Y-128087993D01*
X165750500Y-127868097D01*
X165750500Y-127631902D01*
X165713553Y-127398631D01*
X165640566Y-127174003D01*
X165533342Y-126963566D01*
X165394517Y-126772490D01*
X165227510Y-126605483D01*
X165036433Y-126466657D01*
X164825996Y-126359433D01*
X164601368Y-126286446D01*
X164368097Y-126249500D01*
X164368092Y-126249500D01*
X164131908Y-126249500D01*
X164131903Y-126249500D01*
X163898631Y-126286446D01*
X163674003Y-126359433D01*
X163463566Y-126466657D01*
X163354550Y-126545862D01*
X163272490Y-126605483D01*
X163272488Y-126605485D01*
X163272487Y-126605485D01*
X163105485Y-126772487D01*
X163105485Y-126772488D01*
X163105483Y-126772490D01*
X163045862Y-126854550D01*
X162966657Y-126963566D01*
X162859433Y-127174003D01*
X162786446Y-127398631D01*
X162749500Y-127631902D01*
X133250500Y-127631902D01*
X133213553Y-127398631D01*
X133140566Y-127174003D01*
X133033342Y-126963566D01*
X132894517Y-126772490D01*
X132727510Y-126605483D01*
X132536433Y-126466657D01*
X132325996Y-126359433D01*
X132101368Y-126286446D01*
X131868097Y-126249500D01*
X131868092Y-126249500D01*
X131631908Y-126249500D01*
X131631903Y-126249500D01*
X131398631Y-126286446D01*
X131174003Y-126359433D01*
X130963566Y-126466657D01*
X130854550Y-126545862D01*
X130772490Y-126605483D01*
X130772488Y-126605485D01*
X130772487Y-126605485D01*
X130605485Y-126772487D01*
X130605485Y-126772488D01*
X130605483Y-126772490D01*
X130545862Y-126854550D01*
X130466657Y-126963566D01*
X130359433Y-127174003D01*
X130286446Y-127398631D01*
X130249500Y-127631902D01*
X128506980Y-127631902D01*
X128500649Y-127503033D01*
X128500500Y-127496948D01*
X128500500Y-107714934D01*
X128520185Y-107647895D01*
X128572989Y-107602140D01*
X128642147Y-107592196D01*
X128699235Y-107615987D01*
X128707518Y-107622243D01*
X128737686Y-107645029D01*
X128744313Y-107649949D01*
X128744340Y-107649969D01*
X128756974Y-107659190D01*
X128764658Y-107664689D01*
X128779634Y-107675196D01*
X128790682Y-107682731D01*
X128806709Y-107693354D01*
X128818252Y-107700781D01*
X128836501Y-107712176D01*
X128846630Y-107718337D01*
X128868275Y-107731157D01*
X128876100Y-107735698D01*
X128876125Y-107735712D01*
X128876166Y-107735736D01*
X128888782Y-107742906D01*
X128902314Y-107750597D01*
X128907849Y-107753697D01*
X128907908Y-107753729D01*
X128907957Y-107753757D01*
X128914102Y-107757148D01*
X128930907Y-107766422D01*
X128980091Y-107816045D01*
X128994638Y-107884384D01*
X128990226Y-107909046D01*
X128986398Y-107922443D01*
X128971275Y-107995345D01*
X128965967Y-108035692D01*
X128961770Y-108112685D01*
X128961770Y-108112715D01*
X128962682Y-108154340D01*
X128962682Y-108154350D01*
X128967764Y-108215607D01*
X128974415Y-108261610D01*
X128981346Y-108299359D01*
X128993256Y-108352728D01*
X128998427Y-108373768D01*
X129003055Y-108390997D01*
X129012150Y-108421084D01*
X129023360Y-108454390D01*
X129038877Y-108494702D01*
X129053732Y-108528863D01*
X129071097Y-108564839D01*
X129090461Y-108601212D01*
X129090476Y-108601238D01*
X129106891Y-108629788D01*
X129131690Y-108669842D01*
X129145370Y-108690764D01*
X129150654Y-108698425D01*
X129176456Y-108735831D01*
X129186905Y-108750420D01*
X129217835Y-108792026D01*
X129225159Y-108801878D01*
X129232579Y-108811611D01*
X129278904Y-108870875D01*
X129283898Y-108877160D01*
X129283932Y-108877202D01*
X129339190Y-108945627D01*
X129340627Y-108947397D01*
X129356344Y-108966665D01*
X129356685Y-108967085D01*
X129406089Y-109028193D01*
X129406918Y-109029229D01*
X129445323Y-109077786D01*
X129446660Y-109079508D01*
X129474419Y-109115902D01*
X129476416Y-109118595D01*
X129486509Y-109132597D01*
X129506499Y-109176186D01*
X129509245Y-109187638D01*
X129512801Y-109200946D01*
X129517620Y-109218979D01*
X129532530Y-109265598D01*
X129540616Y-109287213D01*
X129543322Y-109294446D01*
X129543324Y-109294451D01*
X129566369Y-109346811D01*
X129566376Y-109346826D01*
X129566378Y-109346829D01*
X129580873Y-109375275D01*
X129606710Y-109420141D01*
X129606716Y-109420150D01*
X129606717Y-109420152D01*
X129626007Y-109450002D01*
X129626206Y-109450309D01*
X129633485Y-109460695D01*
X129647987Y-109481388D01*
X129673796Y-109515419D01*
X129688597Y-109534010D01*
X129719516Y-109571027D01*
X129721972Y-109573967D01*
X129730412Y-109583812D01*
X129746955Y-109602616D01*
X129772682Y-109631859D01*
X129773913Y-109633247D01*
X129775275Y-109634783D01*
X129775351Y-109634868D01*
X129779016Y-109638971D01*
X129780919Y-109641090D01*
X129822554Y-109687194D01*
X129824881Y-109689749D01*
X129825265Y-109690171D01*
X129869315Y-109738183D01*
X129871621Y-109740680D01*
X129871734Y-109740802D01*
X129916792Y-109789255D01*
X129916829Y-109789294D01*
X129918951Y-109791561D01*
X129964111Y-109839529D01*
X129965046Y-109840517D01*
X129966362Y-109841907D01*
X130010097Y-109887796D01*
X130012438Y-109890237D01*
X130046674Y-109925692D01*
X130053869Y-109933143D01*
X130056599Y-109935947D01*
X130094376Y-109974469D01*
X130098001Y-109978129D01*
X130130902Y-110011002D01*
X130130962Y-110011061D01*
X130130975Y-110011074D01*
X130136493Y-110016503D01*
X130163381Y-110042539D01*
X130174286Y-110052789D01*
X130193830Y-110070622D01*
X130214680Y-110088029D01*
X130227936Y-110099097D01*
X130238974Y-110107518D01*
X130319357Y-110157674D01*
X130319373Y-110157682D01*
X130322709Y-110159352D01*
X130322718Y-110159356D01*
X130322726Y-110159360D01*
X130396367Y-110189229D01*
X130419761Y-110196636D01*
X130419764Y-110196636D01*
X130419768Y-110196638D01*
X130435211Y-110200614D01*
X130473169Y-110210390D01*
X130616835Y-110218254D01*
X130640423Y-110216170D01*
X130649229Y-110215314D01*
X130788692Y-110179937D01*
X130817510Y-110168050D01*
X130854476Y-110151030D01*
X130883923Y-110136007D01*
X130916212Y-110118017D01*
X131027391Y-110026688D01*
X131096118Y-109925690D01*
X131150107Y-109881342D01*
X131191512Y-109871658D01*
X131213655Y-109870383D01*
X131219560Y-109870044D01*
X131252231Y-109867098D01*
X131301158Y-109861081D01*
X131319779Y-109858439D01*
X131349734Y-109853618D01*
X131374038Y-109849094D01*
X131405760Y-109842383D01*
X131449990Y-109830915D01*
X131478484Y-109822135D01*
X131521667Y-109806651D01*
X131552184Y-109794118D01*
X131577199Y-109783044D01*
X131614991Y-109765076D01*
X131623686Y-109760840D01*
X131626323Y-109759523D01*
X131628776Y-109758300D01*
X131628796Y-109758289D01*
X131628809Y-109758283D01*
X131647089Y-109748688D01*
X131686439Y-109726997D01*
X131712004Y-109711909D01*
X131751730Y-109686863D01*
X131773657Y-109672226D01*
X131811108Y-109645789D01*
X131834200Y-109628480D01*
X131866727Y-109602616D01*
X131897299Y-109576246D01*
X131922252Y-109552922D01*
X131975145Y-109495180D01*
X131989875Y-109476359D01*
X132001000Y-109460635D01*
X132002477Y-109458594D01*
X132003044Y-109457826D01*
X132003045Y-109457827D01*
X132007618Y-109451641D01*
X132011047Y-109447218D01*
X132018228Y-109438374D01*
X132018361Y-109438206D01*
X132026909Y-109427374D01*
X132036660Y-109414659D01*
X132048201Y-109397223D01*
X132054435Y-109391967D01*
X132057819Y-109384543D01*
X132080758Y-109369773D01*
X132101615Y-109352189D01*
X132109705Y-109351136D01*
X132116566Y-109346720D01*
X132143845Y-109346697D01*
X132170901Y-109343179D01*
X132180075Y-109346667D01*
X132186435Y-109346662D01*
X132213027Y-109359196D01*
X132218552Y-109361297D01*
X132225117Y-109365508D01*
X132235227Y-109372317D01*
X132265055Y-109391021D01*
X132293880Y-109407797D01*
X132332426Y-109428560D01*
X132351283Y-109438213D01*
X132395030Y-109459463D01*
X132410827Y-109466803D01*
X132456260Y-109486968D01*
X132472950Y-109494021D01*
X132516552Y-109511531D01*
X132516567Y-109511536D01*
X132516568Y-109511537D01*
X132539146Y-109519984D01*
X132577388Y-109533261D01*
X132618433Y-109545589D01*
X132647824Y-109553074D01*
X132655570Y-109554733D01*
X132660888Y-109556065D01*
X132660866Y-109556167D01*
X132665715Y-109557274D01*
X132667001Y-109557596D01*
X132667155Y-109557686D01*
X132671562Y-109558830D01*
X132677203Y-109560474D01*
X132720448Y-109571027D01*
X132744803Y-109575845D01*
X132744805Y-109575845D01*
X132744809Y-109575846D01*
X132744808Y-109575846D01*
X132787041Y-109580768D01*
X132824325Y-109585114D01*
X132860655Y-109586450D01*
X132916255Y-109585433D01*
X132955581Y-109582545D01*
X132955595Y-109582543D01*
X132955598Y-109582543D01*
X133008818Y-109575779D01*
X133008831Y-109575776D01*
X133008837Y-109575776D01*
X133015181Y-109574624D01*
X133045482Y-109569125D01*
X133045491Y-109569123D01*
X133045492Y-109569122D01*
X133045496Y-109569122D01*
X133122882Y-109548634D01*
X133151211Y-109538674D01*
X133218795Y-109509213D01*
X133220579Y-109508275D01*
X133278404Y-109472722D01*
X133310335Y-109450001D01*
X133377884Y-109392363D01*
X133409318Y-109360362D01*
X133455739Y-109305872D01*
X133482872Y-109269026D01*
X133526014Y-109199203D01*
X133545043Y-109161944D01*
X133581164Y-109069994D01*
X133581164Y-109069990D01*
X133581168Y-109069982D01*
X133591935Y-109032029D01*
X133591934Y-109032029D01*
X133591937Y-109032022D01*
X133608166Y-108948713D01*
X133613988Y-108895187D01*
X133616902Y-108847638D01*
X133617007Y-108840176D01*
X133616810Y-108817275D01*
X133616021Y-108792026D01*
X133608517Y-108719635D01*
X133606228Y-108706713D01*
X133604760Y-108698425D01*
X133604758Y-108698420D01*
X133604757Y-108698411D01*
X133583149Y-108616828D01*
X133575047Y-108594104D01*
X133557411Y-108551021D01*
X133543601Y-108521272D01*
X133537148Y-108507889D01*
X133534917Y-108503431D01*
X133521081Y-108477673D01*
X133501415Y-108443473D01*
X133483024Y-108413898D01*
X133458699Y-108377628D01*
X133438036Y-108349029D01*
X133413795Y-108317832D01*
X133385027Y-108283990D01*
X133373009Y-108271050D01*
X133363727Y-108261610D01*
X133352806Y-108250502D01*
X133325296Y-108224076D01*
X133311685Y-108211474D01*
X133275382Y-108179074D01*
X133266833Y-108171616D01*
X133266825Y-108171609D01*
X133266795Y-108171583D01*
X133223539Y-108134699D01*
X133220489Y-108132141D01*
X133217176Y-108129363D01*
X133196967Y-108112700D01*
X133168733Y-108089420D01*
X133163301Y-108085004D01*
X133111563Y-108043534D01*
X133106358Y-108039416D01*
X133053158Y-107997899D01*
X133047688Y-107993690D01*
X132994796Y-107953555D01*
X132988384Y-107948769D01*
X132937601Y-107911476D01*
X132937559Y-107911445D01*
X132929333Y-107905530D01*
X132882411Y-107872498D01*
X132877393Y-107869013D01*
X132877354Y-107868985D01*
X132877294Y-107868943D01*
X132861922Y-107858408D01*
X132861890Y-107858386D01*
X132826304Y-107833981D01*
X132826253Y-107833946D01*
X132795725Y-107812987D01*
X132795722Y-107812985D01*
X132795720Y-107812982D01*
X132795655Y-107812939D01*
X132771488Y-107796323D01*
X132771487Y-107796322D01*
X132756603Y-107786058D01*
X132751395Y-107782514D01*
X132742540Y-107776568D01*
X132733102Y-107770442D01*
X132729401Y-107768040D01*
X132703316Y-107751676D01*
X132688789Y-107742899D01*
X132676405Y-107735698D01*
X132662778Y-107727773D01*
X132660868Y-107726674D01*
X132658970Y-107725581D01*
X132658856Y-107725516D01*
X132647051Y-107718786D01*
X132645788Y-107718056D01*
X132635750Y-107712176D01*
X132624538Y-107705608D01*
X132624079Y-107705337D01*
X132593546Y-107687216D01*
X132593138Y-107686973D01*
X132557142Y-107665423D01*
X132556767Y-107665197D01*
X132518653Y-107642196D01*
X132517170Y-107641305D01*
X132517079Y-107641250D01*
X132485342Y-107622243D01*
X132485319Y-107622229D01*
X132480757Y-107619530D01*
X132436764Y-107593801D01*
X132436674Y-107593749D01*
X132431898Y-107590991D01*
X132431844Y-107590960D01*
X132389136Y-107566604D01*
X132383360Y-107563359D01*
X132345620Y-107542471D01*
X132345621Y-107542471D01*
X132345555Y-107542435D01*
X132336465Y-107537524D01*
X132336441Y-107537511D01*
X132336420Y-107537500D01*
X132327559Y-107532830D01*
X132307177Y-107522087D01*
X132301641Y-107519213D01*
X132301620Y-107519202D01*
X132301581Y-107519182D01*
X132285098Y-107510753D01*
X132283543Y-107509944D01*
X132264288Y-107499751D01*
X132262116Y-107498573D01*
X132257841Y-107496199D01*
X132251866Y-107492656D01*
X132237841Y-107483800D01*
X132213942Y-107469392D01*
X132203560Y-107463301D01*
X132189498Y-107455276D01*
X132171001Y-107444720D01*
X132164819Y-107441250D01*
X132126319Y-107419988D01*
X132121486Y-107417353D01*
X132079775Y-107394907D01*
X132075045Y-107392394D01*
X132075012Y-107392376D01*
X132074958Y-107392348D01*
X132032933Y-107370304D01*
X132027314Y-107367400D01*
X132013310Y-107360276D01*
X131987684Y-107347239D01*
X131987637Y-107347215D01*
X131963658Y-107334995D01*
X131962235Y-107334258D01*
X131926687Y-107315560D01*
X131925496Y-107314926D01*
X131887788Y-107294565D01*
X131886488Y-107293853D01*
X131851590Y-107274467D01*
X131850944Y-107274105D01*
X131846546Y-107271627D01*
X131841873Y-107269025D01*
X131802286Y-107247269D01*
X131797167Y-107244495D01*
X131750771Y-107219702D01*
X131750758Y-107219695D01*
X131746544Y-107217469D01*
X131746463Y-107217426D01*
X131746403Y-107217395D01*
X131702401Y-107194412D01*
X131652092Y-107145927D01*
X131635983Y-107077940D01*
X131659188Y-107012036D01*
X131702574Y-106974501D01*
X131731003Y-106959710D01*
X131750459Y-106949037D01*
X131816645Y-106910819D01*
X131843919Y-106893893D01*
X131901441Y-106855614D01*
X131934198Y-106831871D01*
X131985439Y-106791506D01*
X132018744Y-106762839D01*
X132066087Y-106718363D01*
X132094690Y-106689230D01*
X132140519Y-106638616D01*
X132161605Y-106613762D01*
X132208300Y-106554984D01*
X132221909Y-106537048D01*
X132271855Y-106468082D01*
X132279813Y-106456771D01*
X132297650Y-106430667D01*
X132310903Y-106410232D01*
X132337869Y-106366372D01*
X132363112Y-106320061D01*
X132381115Y-106282491D01*
X132410330Y-106206270D01*
X132420235Y-106172487D01*
X132438957Y-106071666D01*
X132441628Y-106039164D01*
X132440315Y-105942675D01*
X132436618Y-105908952D01*
X132430564Y-105868739D01*
X132430368Y-105867718D01*
X132420056Y-105824401D01*
X132416358Y-105811435D01*
X132411501Y-105794397D01*
X132397203Y-105751600D01*
X132382027Y-105712133D01*
X132372603Y-105689306D01*
X132352085Y-105642856D01*
X132352084Y-105642853D01*
X132344977Y-105627467D01*
X132327342Y-105590910D01*
X132320382Y-105576482D01*
X132317303Y-105570316D01*
X132314220Y-105564141D01*
X132297553Y-105531871D01*
X132286830Y-105511109D01*
X132280686Y-105499581D01*
X132251755Y-105446934D01*
X132251751Y-105446926D01*
X132244798Y-105434679D01*
X132215580Y-105384850D01*
X132206477Y-105369924D01*
X132189546Y-105343212D01*
X132178257Y-105325400D01*
X132164237Y-105304456D01*
X132138282Y-105267698D01*
X132111852Y-105233473D01*
X132070385Y-105184277D01*
X132070377Y-105184268D01*
X132043962Y-105155289D01*
X132040951Y-105152233D01*
X131989260Y-105099763D01*
X131967498Y-105078952D01*
X131903171Y-105021000D01*
X131884297Y-105004820D01*
X131812250Y-104946066D01*
X131794523Y-104932255D01*
X131716649Y-104874317D01*
X131698754Y-104861599D01*
X131698733Y-104861584D01*
X131616921Y-104806075D01*
X131608301Y-104800354D01*
X131598293Y-104793858D01*
X131597658Y-104793443D01*
X131572326Y-104776770D01*
X131571177Y-104776005D01*
X131554489Y-104764753D01*
X131552634Y-104763476D01*
X131540484Y-104754951D01*
X131540483Y-104754951D01*
X131505330Y-104730283D01*
X131498971Y-104726806D01*
X131498969Y-104726811D01*
X131498908Y-104726772D01*
X131498262Y-104726419D01*
X131497121Y-104725635D01*
X131497110Y-104725628D01*
X131484972Y-104718500D01*
X131469024Y-104709518D01*
X131447895Y-104698117D01*
X131441840Y-104694903D01*
X131414028Y-104680384D01*
X131410374Y-104678496D01*
X131378485Y-104662174D01*
X131376004Y-104660913D01*
X131376004Y-104660914D01*
X131375835Y-104660828D01*
X131342240Y-104643890D01*
X131339592Y-104642564D01*
X131330177Y-104637886D01*
X131306751Y-104626246D01*
X131303392Y-104624593D01*
X131273811Y-104610153D01*
X131268864Y-104607770D01*
X131244566Y-104596228D01*
X131233890Y-104591308D01*
X131225446Y-104587534D01*
X131217580Y-104584019D01*
X131161344Y-104562800D01*
X131161336Y-104562797D01*
X131161318Y-104562791D01*
X131155381Y-104560946D01*
X131151071Y-104559682D01*
X131139702Y-104555738D01*
X131133894Y-104553402D01*
X131131977Y-104552612D01*
X131110868Y-104543685D01*
X131109079Y-104542910D01*
X131082466Y-104531114D01*
X131082439Y-104531102D01*
X131076701Y-104528601D01*
X131076676Y-104528590D01*
X131074113Y-104527492D01*
X131067719Y-104524752D01*
X131037978Y-104513110D01*
X131002118Y-104500364D01*
X131002110Y-104500361D01*
X130975093Y-104491605D01*
X130975086Y-104491603D01*
X130975077Y-104491600D01*
X130930564Y-104478543D01*
X130911309Y-104473304D01*
X130887239Y-104467263D01*
X130880707Y-104463422D01*
X130873152Y-104462821D01*
X130851001Y-104445956D01*
X130827008Y-104431850D01*
X130823589Y-104425087D01*
X130817560Y-104420497D01*
X130808043Y-104394337D01*
X130795485Y-104369496D01*
X130795667Y-104360317D01*
X130793674Y-104354837D01*
X130796477Y-104319654D01*
X130803138Y-104290181D01*
X130803140Y-104290182D01*
X130806114Y-104277026D01*
X130811105Y-104255235D01*
X130811917Y-104251716D01*
X130817271Y-104228492D01*
X130817450Y-104227713D01*
X130817575Y-104227168D01*
X130823367Y-104197935D01*
X130827135Y-104175464D01*
X130830601Y-104154789D01*
X130832678Y-104138755D01*
X130835431Y-104117524D01*
X130840388Y-104063642D01*
X130842018Y-104039715D01*
X130843771Y-104000158D01*
X130844731Y-103978510D01*
X130845212Y-103959983D01*
X130845358Y-103940891D01*
X130845711Y-103894870D01*
X130845560Y-103878028D01*
X130843876Y-103812410D01*
X130843097Y-103794491D01*
X130839259Y-103731798D01*
X130837398Y-103709501D01*
X130831436Y-103653149D01*
X130826853Y-103620217D01*
X130818798Y-103573626D01*
X130816796Y-103562758D01*
X130816370Y-103560584D01*
X130815508Y-103555641D01*
X130814656Y-103550099D01*
X130814044Y-103545559D01*
X130812155Y-103529290D01*
X130812073Y-103528566D01*
X130811966Y-103527575D01*
X130811962Y-103527547D01*
X130811903Y-103527000D01*
X130811752Y-103525805D01*
X130808507Y-103497524D01*
X130805666Y-103484673D01*
X130804320Y-103476519D01*
X130804312Y-103476475D01*
X130800894Y-103457944D01*
X130798770Y-103447525D01*
X130793886Y-103423565D01*
X130793217Y-103420426D01*
X130792022Y-103414813D01*
X130788792Y-103400294D01*
X130782441Y-103371737D01*
X130781176Y-103366199D01*
X130769611Y-103316826D01*
X130768615Y-103312652D01*
X130755643Y-103259315D01*
X130754736Y-103255646D01*
X130740938Y-103200705D01*
X130739998Y-103197021D01*
X130728992Y-103154552D01*
X130729568Y-103136548D01*
X130725102Y-103119091D01*
X130730663Y-103102349D01*
X130731228Y-103084722D01*
X130741448Y-103069884D01*
X130747129Y-103052785D01*
X130760856Y-103041709D01*
X130770863Y-103027183D01*
X130787483Y-103020226D01*
X130801507Y-103008912D01*
X130819043Y-103007016D01*
X130835315Y-103000206D01*
X130853059Y-103003340D01*
X130870972Y-103001404D01*
X130903755Y-103012293D01*
X130904120Y-103012358D01*
X130904467Y-103012530D01*
X130940126Y-103030354D01*
X130940529Y-103030557D01*
X130994206Y-103057632D01*
X130994441Y-103057751D01*
X131043063Y-103082542D01*
X131084483Y-103103956D01*
X131085070Y-103104262D01*
X131113171Y-103119091D01*
X131115299Y-103120214D01*
X131116904Y-103121077D01*
X131127362Y-103126799D01*
X131134544Y-103131049D01*
X131137706Y-103133067D01*
X131137724Y-103133078D01*
X131137741Y-103133089D01*
X131161434Y-103147782D01*
X131165773Y-103150421D01*
X131168797Y-103152261D01*
X131172643Y-103154556D01*
X131201224Y-103171613D01*
X131205480Y-103174126D01*
X131228425Y-103187517D01*
X131243849Y-103196519D01*
X131244721Y-103197023D01*
X131247154Y-103198430D01*
X131288643Y-103222225D01*
X131289810Y-103222889D01*
X131291771Y-103224005D01*
X131313205Y-103236089D01*
X131333677Y-103247631D01*
X131337525Y-103249779D01*
X131376836Y-103271493D01*
X131377858Y-103272055D01*
X131378186Y-103272236D01*
X131379174Y-103272778D01*
X131380540Y-103273539D01*
X131411238Y-103290918D01*
X131412630Y-103291720D01*
X131456325Y-103317322D01*
X131457113Y-103317788D01*
X131466149Y-103323194D01*
X131514530Y-103352136D01*
X131515196Y-103352537D01*
X131585947Y-103395465D01*
X131591405Y-103398786D01*
X131593899Y-103400294D01*
X131593969Y-103400336D01*
X131623912Y-103418319D01*
X131627455Y-103420426D01*
X131627518Y-103420463D01*
X131627538Y-103420475D01*
X131656181Y-103437347D01*
X131661412Y-103440386D01*
X131683278Y-103452916D01*
X131685759Y-103454329D01*
X131697749Y-103461110D01*
X131699655Y-103462188D01*
X131700426Y-103462628D01*
X131713173Y-103469959D01*
X131725527Y-103477064D01*
X131758355Y-103496124D01*
X131795461Y-103517799D01*
X131833270Y-103539997D01*
X131869147Y-103561165D01*
X131869386Y-103561421D01*
X131869437Y-103561337D01*
X131900429Y-103579737D01*
X131900910Y-103580024D01*
X131922403Y-103592916D01*
X131923465Y-103593561D01*
X131935635Y-103601038D01*
X131936069Y-103601306D01*
X131937881Y-103602437D01*
X131937911Y-103602455D01*
X131937936Y-103602471D01*
X131989644Y-103634176D01*
X131989646Y-103634177D01*
X131999061Y-103639810D01*
X132062894Y-103677068D01*
X132068598Y-103680341D01*
X132069434Y-103680821D01*
X132085972Y-103690147D01*
X132144333Y-103723057D01*
X132149234Y-103725785D01*
X132149282Y-103725811D01*
X132149346Y-103725847D01*
X132160179Y-103731798D01*
X132234256Y-103772494D01*
X132236612Y-103773775D01*
X132238198Y-103774638D01*
X132275065Y-103794469D01*
X132332327Y-103825271D01*
X132332382Y-103825300D01*
X132332387Y-103825303D01*
X132335437Y-103826929D01*
X132335538Y-103826982D01*
X132335633Y-103827033D01*
X132437914Y-103881078D01*
X132438003Y-103881124D01*
X132438085Y-103881168D01*
X132440636Y-103882506D01*
X132440761Y-103882571D01*
X132440822Y-103882603D01*
X132550259Y-103939523D01*
X132550419Y-103939606D01*
X132552874Y-103940874D01*
X132668418Y-104000107D01*
X132668486Y-104000141D01*
X132668518Y-104000158D01*
X132671013Y-104001428D01*
X132791815Y-104062514D01*
X132793126Y-104063174D01*
X132847033Y-104090237D01*
X132848070Y-104090757D01*
X132908203Y-104120773D01*
X132911550Y-104122428D01*
X132947389Y-104139988D01*
X132961222Y-104146766D01*
X132961248Y-104146778D01*
X132961296Y-104146802D01*
X132968401Y-104150215D01*
X133009174Y-104169410D01*
X133022518Y-104175457D01*
X133055730Y-104189932D01*
X133079159Y-104199453D01*
X133106225Y-104209671D01*
X133106239Y-104209675D01*
X133106240Y-104209676D01*
X133145071Y-104222564D01*
X133145077Y-104222565D01*
X133145093Y-104222571D01*
X133167424Y-104228991D01*
X133226175Y-104242151D01*
X133245186Y-104245234D01*
X133319987Y-104251716D01*
X133337090Y-104251923D01*
X133409827Y-104247551D01*
X133426435Y-104245343D01*
X133476606Y-104236076D01*
X133487164Y-104233568D01*
X133494092Y-104231924D01*
X133494103Y-104231921D01*
X133494133Y-104231914D01*
X133515814Y-104226255D01*
X133535672Y-104220599D01*
X133570270Y-104209384D01*
X133585122Y-104203972D01*
X133657919Y-104170701D01*
X133693418Y-104150940D01*
X133743990Y-104117524D01*
X133757408Y-104108658D01*
X133757409Y-104108656D01*
X133757426Y-104108646D01*
X133792746Y-104081242D01*
X133843923Y-104035654D01*
X133874652Y-104004295D01*
X133930233Y-103936764D01*
X133951959Y-103905144D01*
X134001729Y-103813813D01*
X134013288Y-103786157D01*
X134046031Y-103671128D01*
X134050592Y-103642637D01*
X134050787Y-103641409D01*
X134052726Y-103497542D01*
X134052724Y-103497524D01*
X134048798Y-103467333D01*
X134048796Y-103467328D01*
X134048796Y-103467322D01*
X134021979Y-103358109D01*
X134009145Y-103323194D01*
X133983119Y-103264283D01*
X133960968Y-103221708D01*
X133949307Y-103200705D01*
X133947665Y-103197748D01*
X133938671Y-103182536D01*
X133927488Y-103164499D01*
X133927486Y-103164495D01*
X133903529Y-103127605D01*
X133890259Y-103108176D01*
X133864374Y-103072110D01*
X133864370Y-103072104D01*
X133849658Y-103052785D01*
X133847046Y-103049355D01*
X133823453Y-103020126D01*
X133805714Y-102999326D01*
X133805710Y-102999321D01*
X133805701Y-102999311D01*
X133801042Y-102994138D01*
X133785248Y-102977387D01*
X133753796Y-102945513D01*
X133736672Y-102928960D01*
X133736655Y-102928944D01*
X133695015Y-102890548D01*
X133694996Y-102890531D01*
X133694970Y-102890507D01*
X133683847Y-102880552D01*
X133633505Y-102836828D01*
X133625200Y-102829771D01*
X133567791Y-102782041D01*
X133561938Y-102777260D01*
X133560954Y-102776456D01*
X133529251Y-102751017D01*
X133497904Y-102725863D01*
X133495961Y-102724328D01*
X133491822Y-102721059D01*
X133435352Y-102677148D01*
X135650500Y-102677148D01*
X135650500Y-102881851D01*
X135682522Y-103084034D01*
X135745781Y-103278723D01*
X135790353Y-103366199D01*
X135837090Y-103457925D01*
X135838715Y-103461113D01*
X135959028Y-103626713D01*
X136103786Y-103771471D01*
X136250440Y-103878019D01*
X136269390Y-103891787D01*
X136328620Y-103921966D01*
X136362080Y-103939015D01*
X136412876Y-103986990D01*
X136429671Y-104054811D01*
X136407134Y-104120946D01*
X136362080Y-104159985D01*
X136269386Y-104207215D01*
X136103786Y-104327528D01*
X135959028Y-104472286D01*
X135838715Y-104637886D01*
X135745781Y-104820276D01*
X135682522Y-105014965D01*
X135650500Y-105217148D01*
X135650500Y-105421852D01*
X135651630Y-105428986D01*
X135682522Y-105624034D01*
X135745781Y-105818723D01*
X135838715Y-106001113D01*
X135959028Y-106166713D01*
X136103786Y-106311471D01*
X136239722Y-106410232D01*
X136269390Y-106431787D01*
X136327976Y-106461638D01*
X136362080Y-106479015D01*
X136412876Y-106526990D01*
X136429671Y-106594811D01*
X136407134Y-106660946D01*
X136362080Y-106699985D01*
X136269386Y-106747215D01*
X136103786Y-106867528D01*
X135959028Y-107012286D01*
X135838715Y-107177886D01*
X135745781Y-107360276D01*
X135682522Y-107554965D01*
X135650500Y-107757148D01*
X135650500Y-107961851D01*
X135682522Y-108164034D01*
X135745781Y-108358723D01*
X135794522Y-108454380D01*
X135832472Y-108528862D01*
X135838715Y-108541113D01*
X135959028Y-108706713D01*
X136103786Y-108851471D01*
X136235982Y-108947515D01*
X136269390Y-108971787D01*
X136360840Y-109018383D01*
X136362080Y-109019015D01*
X136412876Y-109066990D01*
X136429671Y-109134811D01*
X136407134Y-109200946D01*
X136362080Y-109239985D01*
X136269386Y-109287215D01*
X136103786Y-109407528D01*
X135959028Y-109552286D01*
X135838715Y-109717886D01*
X135745781Y-109900276D01*
X135682522Y-110094965D01*
X135650500Y-110297148D01*
X135650500Y-110501851D01*
X135682522Y-110704034D01*
X135745781Y-110898723D01*
X135838715Y-111081113D01*
X135959028Y-111246713D01*
X136103786Y-111391471D01*
X136258749Y-111504056D01*
X136269390Y-111511787D01*
X136360840Y-111558383D01*
X136362080Y-111559015D01*
X136412876Y-111606990D01*
X136429671Y-111674811D01*
X136407134Y-111740946D01*
X136362080Y-111779985D01*
X136269386Y-111827215D01*
X136103786Y-111947528D01*
X135959028Y-112092286D01*
X135838715Y-112257886D01*
X135745781Y-112440276D01*
X135682522Y-112634965D01*
X135650500Y-112837148D01*
X135650500Y-113041851D01*
X135682522Y-113244034D01*
X135745781Y-113438723D01*
X135838715Y-113621113D01*
X135959028Y-113786713D01*
X136103786Y-113931471D01*
X136258749Y-114044056D01*
X136269390Y-114051787D01*
X136360840Y-114098383D01*
X136362080Y-114099015D01*
X136412876Y-114146990D01*
X136429671Y-114214811D01*
X136407134Y-114280946D01*
X136362080Y-114319985D01*
X136269386Y-114367215D01*
X136103786Y-114487528D01*
X135959028Y-114632286D01*
X135838715Y-114797886D01*
X135745781Y-114980276D01*
X135682522Y-115174965D01*
X135650500Y-115377148D01*
X135650500Y-115581851D01*
X135682522Y-115784034D01*
X135745781Y-115978723D01*
X135838715Y-116161113D01*
X135959028Y-116326713D01*
X136103786Y-116471471D01*
X136258749Y-116584056D01*
X136269390Y-116591787D01*
X136360840Y-116638383D01*
X136362080Y-116639015D01*
X136412876Y-116686990D01*
X136429671Y-116754811D01*
X136407134Y-116820946D01*
X136362080Y-116859985D01*
X136269386Y-116907215D01*
X136103786Y-117027528D01*
X135959028Y-117172286D01*
X135838715Y-117337886D01*
X135745781Y-117520276D01*
X135682522Y-117714965D01*
X135650500Y-117917148D01*
X135650500Y-118121851D01*
X135682522Y-118324034D01*
X135745781Y-118518723D01*
X135809691Y-118644153D01*
X135838585Y-118700859D01*
X135838715Y-118701113D01*
X135959028Y-118866713D01*
X136103786Y-119011471D01*
X136224226Y-119098974D01*
X136269390Y-119131787D01*
X136360840Y-119178383D01*
X136362080Y-119179015D01*
X136412876Y-119226990D01*
X136429671Y-119294811D01*
X136407134Y-119360946D01*
X136362080Y-119399985D01*
X136269386Y-119447215D01*
X136103786Y-119567528D01*
X135959028Y-119712286D01*
X135838715Y-119877886D01*
X135745781Y-120060276D01*
X135682522Y-120254965D01*
X135650500Y-120457148D01*
X135650500Y-120661851D01*
X135682522Y-120864034D01*
X135745781Y-121058723D01*
X135838715Y-121241113D01*
X135959028Y-121406713D01*
X136103786Y-121551471D01*
X136258749Y-121664056D01*
X136269390Y-121671787D01*
X136385607Y-121731003D01*
X136451776Y-121764718D01*
X136451778Y-121764718D01*
X136451781Y-121764720D01*
X136556137Y-121798627D01*
X136646465Y-121827977D01*
X136747557Y-121843988D01*
X136848648Y-121860000D01*
X136848649Y-121860000D01*
X137053351Y-121860000D01*
X137053352Y-121860000D01*
X137255534Y-121827977D01*
X137450219Y-121764720D01*
X137632610Y-121671787D01*
X137725590Y-121604232D01*
X137798213Y-121551471D01*
X137798215Y-121551468D01*
X137798219Y-121551466D01*
X137942966Y-121406719D01*
X137942968Y-121406715D01*
X137942971Y-121406713D01*
X137995732Y-121334090D01*
X138063287Y-121241110D01*
X138156220Y-121058719D01*
X138219477Y-120864034D01*
X138251500Y-120661852D01*
X138251500Y-120457148D01*
X138219477Y-120254966D01*
X138156220Y-120060281D01*
X138156218Y-120060278D01*
X138156218Y-120060276D01*
X138122503Y-119994107D01*
X138063287Y-119877890D01*
X138055556Y-119867249D01*
X137942971Y-119712286D01*
X137798213Y-119567528D01*
X137632614Y-119447215D01*
X137626006Y-119443848D01*
X137539917Y-119399983D01*
X137489123Y-119352011D01*
X137472328Y-119284190D01*
X137494865Y-119218055D01*
X137539917Y-119179016D01*
X137632610Y-119131787D01*
X137677774Y-119098974D01*
X137798213Y-119011471D01*
X137798215Y-119011468D01*
X137798219Y-119011466D01*
X137942966Y-118866719D01*
X137942968Y-118866715D01*
X137942971Y-118866713D01*
X137995732Y-118794090D01*
X138063287Y-118701110D01*
X138156220Y-118518719D01*
X138219477Y-118324034D01*
X138251500Y-118121852D01*
X138251500Y-117917148D01*
X138237144Y-117826507D01*
X138219477Y-117714965D01*
X138167038Y-117553575D01*
X138156220Y-117520281D01*
X138156218Y-117520278D01*
X138156218Y-117520276D01*
X138063419Y-117338150D01*
X138063287Y-117337890D01*
X138031092Y-117293577D01*
X137942971Y-117172286D01*
X137798213Y-117027528D01*
X137632614Y-116907215D01*
X137626006Y-116903848D01*
X137539917Y-116859983D01*
X137489123Y-116812011D01*
X137472328Y-116744190D01*
X137494865Y-116678055D01*
X137539917Y-116639016D01*
X137632610Y-116591787D01*
X137653770Y-116576413D01*
X137798213Y-116471471D01*
X137798215Y-116471468D01*
X137798219Y-116471466D01*
X137942966Y-116326719D01*
X137942968Y-116326715D01*
X137942971Y-116326713D01*
X137995732Y-116254090D01*
X138063287Y-116161110D01*
X138156220Y-115978719D01*
X138219477Y-115784034D01*
X138251500Y-115581852D01*
X138251500Y-115377148D01*
X138219477Y-115174966D01*
X138156220Y-114980281D01*
X138156218Y-114980278D01*
X138156218Y-114980276D01*
X138122503Y-114914107D01*
X138063287Y-114797890D01*
X138055556Y-114787249D01*
X137942971Y-114632286D01*
X137798213Y-114487528D01*
X137632614Y-114367215D01*
X137626006Y-114363848D01*
X137539917Y-114319983D01*
X137489123Y-114272011D01*
X137472328Y-114204190D01*
X137494865Y-114138055D01*
X137539917Y-114099016D01*
X137632610Y-114051787D01*
X137653770Y-114036413D01*
X137798213Y-113931471D01*
X137798215Y-113931468D01*
X137798219Y-113931466D01*
X137942966Y-113786719D01*
X137942968Y-113786715D01*
X137942971Y-113786713D01*
X137995732Y-113714090D01*
X138063287Y-113621110D01*
X138156220Y-113438719D01*
X138219477Y-113244034D01*
X138251500Y-113041852D01*
X138251500Y-112837148D01*
X138219477Y-112634966D01*
X138156220Y-112440281D01*
X138156218Y-112440278D01*
X138156218Y-112440276D01*
X138122503Y-112374107D01*
X138063287Y-112257890D01*
X138055556Y-112247249D01*
X137942971Y-112092286D01*
X137798213Y-111947528D01*
X137632614Y-111827215D01*
X137626006Y-111823848D01*
X137539917Y-111779983D01*
X137489123Y-111732011D01*
X137472328Y-111664190D01*
X137494865Y-111598055D01*
X137539917Y-111559016D01*
X137632610Y-111511787D01*
X137653770Y-111496413D01*
X137798213Y-111391471D01*
X137798215Y-111391468D01*
X137798219Y-111391466D01*
X137942966Y-111246719D01*
X137942968Y-111246715D01*
X137942971Y-111246713D01*
X137995732Y-111174090D01*
X138063287Y-111081110D01*
X138156220Y-110898719D01*
X138219477Y-110704034D01*
X138251500Y-110501852D01*
X138251500Y-110297148D01*
X138229675Y-110159352D01*
X138219477Y-110094965D01*
X138167821Y-109935985D01*
X138156220Y-109900281D01*
X138156218Y-109900278D01*
X138156218Y-109900276D01*
X138116405Y-109822140D01*
X138063287Y-109717890D01*
X138043148Y-109690171D01*
X137942971Y-109552286D01*
X137798213Y-109407528D01*
X137632614Y-109287215D01*
X137590188Y-109265598D01*
X137539917Y-109239983D01*
X137489123Y-109192011D01*
X137472328Y-109124190D01*
X137494865Y-109058055D01*
X137539917Y-109019016D01*
X137632610Y-108971787D01*
X137666180Y-108947397D01*
X137798213Y-108851471D01*
X137798215Y-108851468D01*
X137798219Y-108851466D01*
X137942966Y-108706719D01*
X137942968Y-108706715D01*
X137942971Y-108706713D01*
X138019602Y-108601238D01*
X138063287Y-108541110D01*
X138156220Y-108358719D01*
X138219477Y-108164034D01*
X138251500Y-107961852D01*
X138251500Y-107757148D01*
X138219477Y-107554966D01*
X138215405Y-107542435D01*
X138167476Y-107394923D01*
X138156220Y-107360281D01*
X138156218Y-107360278D01*
X138156218Y-107360276D01*
X138122373Y-107293853D01*
X138063287Y-107177890D01*
X138040065Y-107145927D01*
X137942971Y-107012286D01*
X137798213Y-106867528D01*
X137632614Y-106747215D01*
X137626006Y-106743848D01*
X137539917Y-106699983D01*
X137489123Y-106652011D01*
X137472328Y-106584190D01*
X137494865Y-106518055D01*
X137539917Y-106479016D01*
X137632610Y-106431787D01*
X137693297Y-106387696D01*
X137798213Y-106311471D01*
X137798215Y-106311468D01*
X137798219Y-106311466D01*
X137942966Y-106166719D01*
X137942968Y-106166715D01*
X137942971Y-106166713D01*
X138012026Y-106071665D01*
X138063287Y-106001110D01*
X138156220Y-105818719D01*
X138219477Y-105624034D01*
X138251500Y-105421852D01*
X138251500Y-105217148D01*
X138219477Y-105014966D01*
X138216180Y-105004820D01*
X138156218Y-104820276D01*
X138116490Y-104742307D01*
X138063287Y-104637890D01*
X138033018Y-104596228D01*
X137942971Y-104472286D01*
X137798213Y-104327528D01*
X137632614Y-104207215D01*
X137560947Y-104170699D01*
X137539917Y-104159983D01*
X137489123Y-104112011D01*
X137472328Y-104044190D01*
X137494865Y-103978055D01*
X137539917Y-103939016D01*
X137632610Y-103891787D01*
X137721737Y-103827033D01*
X137798213Y-103771471D01*
X137798215Y-103771468D01*
X137798219Y-103771466D01*
X137942966Y-103626719D01*
X137942968Y-103626715D01*
X137942971Y-103626713D01*
X138015376Y-103527054D01*
X138063287Y-103461110D01*
X138156220Y-103278719D01*
X138219477Y-103084034D01*
X138251500Y-102881852D01*
X138251500Y-102677148D01*
X157748500Y-102677148D01*
X157748500Y-102881851D01*
X157780522Y-103084034D01*
X157843781Y-103278723D01*
X157888353Y-103366199D01*
X157935090Y-103457925D01*
X157936715Y-103461113D01*
X158057028Y-103626713D01*
X158201786Y-103771471D01*
X158348440Y-103878019D01*
X158367390Y-103891787D01*
X158426620Y-103921966D01*
X158460080Y-103939015D01*
X158510876Y-103986990D01*
X158527671Y-104054811D01*
X158505134Y-104120946D01*
X158460080Y-104159985D01*
X158367386Y-104207215D01*
X158201786Y-104327528D01*
X158057028Y-104472286D01*
X157936715Y-104637886D01*
X157843781Y-104820276D01*
X157780522Y-105014965D01*
X157748500Y-105217148D01*
X157748500Y-105421852D01*
X157749630Y-105428986D01*
X157780522Y-105624034D01*
X157843781Y-105818723D01*
X157936715Y-106001113D01*
X158057028Y-106166713D01*
X158201786Y-106311471D01*
X158337722Y-106410232D01*
X158367390Y-106431787D01*
X158425976Y-106461638D01*
X158460080Y-106479015D01*
X158510876Y-106526990D01*
X158527671Y-106594811D01*
X158505134Y-106660946D01*
X158460080Y-106699985D01*
X158367386Y-106747215D01*
X158201786Y-106867528D01*
X158057028Y-107012286D01*
X157936715Y-107177886D01*
X157843781Y-107360276D01*
X157780522Y-107554965D01*
X157748500Y-107757148D01*
X157748500Y-107961851D01*
X157780522Y-108164034D01*
X157843781Y-108358723D01*
X157892522Y-108454380D01*
X157930472Y-108528862D01*
X157936715Y-108541113D01*
X158057028Y-108706713D01*
X158201786Y-108851471D01*
X158333982Y-108947515D01*
X158367390Y-108971787D01*
X158458840Y-109018383D01*
X158460080Y-109019015D01*
X158510876Y-109066990D01*
X158527671Y-109134811D01*
X158505134Y-109200946D01*
X158460080Y-109239985D01*
X158367386Y-109287215D01*
X158201786Y-109407528D01*
X158057028Y-109552286D01*
X157936715Y-109717886D01*
X157843781Y-109900276D01*
X157780522Y-110094965D01*
X157748500Y-110297148D01*
X157748500Y-110501851D01*
X157780522Y-110704034D01*
X157843781Y-110898723D01*
X157936715Y-111081113D01*
X158057028Y-111246713D01*
X158201786Y-111391471D01*
X158356749Y-111504056D01*
X158367390Y-111511787D01*
X158458840Y-111558383D01*
X158460080Y-111559015D01*
X158510876Y-111606990D01*
X158527671Y-111674811D01*
X158505134Y-111740946D01*
X158460080Y-111779985D01*
X158367386Y-111827215D01*
X158201786Y-111947528D01*
X158057028Y-112092286D01*
X157936715Y-112257886D01*
X157843781Y-112440276D01*
X157780522Y-112634965D01*
X157748500Y-112837148D01*
X157748500Y-113041851D01*
X157780522Y-113244034D01*
X157843781Y-113438723D01*
X157936715Y-113621113D01*
X158057028Y-113786713D01*
X158201786Y-113931471D01*
X158356749Y-114044056D01*
X158367390Y-114051787D01*
X158458840Y-114098383D01*
X158460080Y-114099015D01*
X158510876Y-114146990D01*
X158527671Y-114214811D01*
X158505134Y-114280946D01*
X158460080Y-114319985D01*
X158367386Y-114367215D01*
X158201786Y-114487528D01*
X158057028Y-114632286D01*
X157936715Y-114797886D01*
X157843781Y-114980276D01*
X157780522Y-115174965D01*
X157748500Y-115377148D01*
X157748500Y-115581851D01*
X157780522Y-115784034D01*
X157843781Y-115978723D01*
X157936715Y-116161113D01*
X158057028Y-116326713D01*
X158201786Y-116471471D01*
X158367385Y-116591784D01*
X158367387Y-116591785D01*
X158367390Y-116591787D01*
X158460080Y-116639015D01*
X158460630Y-116639295D01*
X158511426Y-116687270D01*
X158528221Y-116755091D01*
X158505684Y-116821225D01*
X158460630Y-116860265D01*
X158367644Y-116907643D01*
X158323077Y-116940023D01*
X158323077Y-116940024D01*
X158919591Y-117536537D01*
X158856007Y-117553575D01*
X158741993Y-117619401D01*
X158648901Y-117712493D01*
X158583075Y-117826507D01*
X158566037Y-117890090D01*
X157969524Y-117293577D01*
X157969523Y-117293577D01*
X157937143Y-117338144D01*
X157844244Y-117520468D01*
X157781009Y-117715082D01*
X157749000Y-117917182D01*
X157749000Y-118121817D01*
X157781009Y-118323917D01*
X157844244Y-118518531D01*
X157937141Y-118700850D01*
X157937147Y-118700859D01*
X157969523Y-118745421D01*
X157969524Y-118745422D01*
X158566037Y-118148909D01*
X158583075Y-118212493D01*
X158648901Y-118326507D01*
X158741993Y-118419599D01*
X158856007Y-118485425D01*
X158919590Y-118502462D01*
X158323076Y-119098974D01*
X158367652Y-119131361D01*
X158460628Y-119178734D01*
X158511425Y-119226708D01*
X158528220Y-119294529D01*
X158505683Y-119360664D01*
X158460630Y-119399703D01*
X158367388Y-119447213D01*
X158201786Y-119567528D01*
X158057028Y-119712286D01*
X157936715Y-119877886D01*
X157843781Y-120060276D01*
X157780522Y-120254965D01*
X157748500Y-120457148D01*
X157748500Y-120661851D01*
X157780522Y-120864034D01*
X157843781Y-121058723D01*
X157936715Y-121241113D01*
X158057028Y-121406713D01*
X158201786Y-121551471D01*
X158356749Y-121664056D01*
X158367390Y-121671787D01*
X158483607Y-121731003D01*
X158549776Y-121764718D01*
X158549778Y-121764718D01*
X158549781Y-121764720D01*
X158654137Y-121798627D01*
X158744465Y-121827977D01*
X158845557Y-121843988D01*
X158946648Y-121860000D01*
X158946649Y-121860000D01*
X159151351Y-121860000D01*
X159151352Y-121860000D01*
X159353534Y-121827977D01*
X159548219Y-121764720D01*
X159730610Y-121671787D01*
X159823590Y-121604232D01*
X159896213Y-121551471D01*
X159896215Y-121551468D01*
X159896219Y-121551466D01*
X160040966Y-121406719D01*
X160040968Y-121406715D01*
X160040971Y-121406713D01*
X160093732Y-121334090D01*
X160161287Y-121241110D01*
X160254220Y-121058719D01*
X160317477Y-120864034D01*
X160349500Y-120661852D01*
X160349500Y-120457148D01*
X160317477Y-120254966D01*
X160254220Y-120060281D01*
X160254218Y-120060278D01*
X160254218Y-120060276D01*
X160220503Y-119994107D01*
X160161287Y-119877890D01*
X160153556Y-119867249D01*
X160040971Y-119712286D01*
X159896213Y-119567528D01*
X159730611Y-119447213D01*
X159637369Y-119399703D01*
X159586574Y-119351729D01*
X159569779Y-119283907D01*
X159592317Y-119217773D01*
X159637371Y-119178734D01*
X159730346Y-119131361D01*
X159730347Y-119131361D01*
X159774921Y-119098974D01*
X159178409Y-118502462D01*
X159241993Y-118485425D01*
X159356007Y-118419599D01*
X159449099Y-118326507D01*
X159514925Y-118212493D01*
X159531962Y-118148909D01*
X160128474Y-118745421D01*
X160160859Y-118700849D01*
X160253755Y-118518531D01*
X160316990Y-118323917D01*
X160349000Y-118121817D01*
X160349000Y-117917182D01*
X160316990Y-117715082D01*
X160253755Y-117520468D01*
X160160859Y-117338150D01*
X160128474Y-117293577D01*
X160128474Y-117293576D01*
X159531962Y-117890089D01*
X159514925Y-117826507D01*
X159449099Y-117712493D01*
X159356007Y-117619401D01*
X159241993Y-117553575D01*
X159178408Y-117536537D01*
X159774922Y-116940024D01*
X159774921Y-116940023D01*
X159730359Y-116907647D01*
X159730350Y-116907641D01*
X159637369Y-116860265D01*
X159586573Y-116812290D01*
X159569778Y-116744469D01*
X159592315Y-116678335D01*
X159637370Y-116639295D01*
X159637920Y-116639015D01*
X159730610Y-116591787D01*
X159780144Y-116555798D01*
X159896213Y-116471471D01*
X159896215Y-116471468D01*
X159896219Y-116471466D01*
X160040966Y-116326719D01*
X160040968Y-116326715D01*
X160040971Y-116326713D01*
X160093732Y-116254090D01*
X160161287Y-116161110D01*
X160254220Y-115978719D01*
X160317477Y-115784034D01*
X160349500Y-115581852D01*
X160349500Y-115377148D01*
X160317477Y-115174966D01*
X160254220Y-114980281D01*
X160254218Y-114980278D01*
X160254218Y-114980276D01*
X160220503Y-114914107D01*
X160161287Y-114797890D01*
X160153556Y-114787249D01*
X160040971Y-114632286D01*
X159896213Y-114487528D01*
X159730614Y-114367215D01*
X159724006Y-114363848D01*
X159637917Y-114319983D01*
X159587123Y-114272011D01*
X159570328Y-114204190D01*
X159592865Y-114138055D01*
X159637917Y-114099016D01*
X159730610Y-114051787D01*
X159751770Y-114036413D01*
X159896213Y-113931471D01*
X159896215Y-113931468D01*
X159896219Y-113931466D01*
X160040966Y-113786719D01*
X160040968Y-113786715D01*
X160040971Y-113786713D01*
X160093732Y-113714090D01*
X160161287Y-113621110D01*
X160254220Y-113438719D01*
X160317477Y-113244034D01*
X160349500Y-113041852D01*
X160349500Y-112837148D01*
X160317477Y-112634966D01*
X160254220Y-112440281D01*
X160254218Y-112440278D01*
X160254218Y-112440276D01*
X160220503Y-112374107D01*
X160161287Y-112257890D01*
X160153556Y-112247249D01*
X160040971Y-112092286D01*
X159896213Y-111947528D01*
X159730614Y-111827215D01*
X159724006Y-111823848D01*
X159637917Y-111779983D01*
X159587123Y-111732011D01*
X159570328Y-111664190D01*
X159592865Y-111598055D01*
X159637917Y-111559016D01*
X159730610Y-111511787D01*
X159751770Y-111496413D01*
X159896213Y-111391471D01*
X159896215Y-111391468D01*
X159896219Y-111391466D01*
X160040966Y-111246719D01*
X160040968Y-111246715D01*
X160040971Y-111246713D01*
X160093732Y-111174090D01*
X160161287Y-111081110D01*
X160254220Y-110898719D01*
X160317477Y-110704034D01*
X160349500Y-110501852D01*
X160349500Y-110297148D01*
X160327675Y-110159352D01*
X160317477Y-110094965D01*
X160265821Y-109935985D01*
X160254220Y-109900281D01*
X160254218Y-109900278D01*
X160254218Y-109900276D01*
X160214405Y-109822140D01*
X160161287Y-109717890D01*
X160141148Y-109690171D01*
X160040971Y-109552286D01*
X159896213Y-109407528D01*
X159730614Y-109287215D01*
X159688188Y-109265598D01*
X159637917Y-109239983D01*
X159587123Y-109192011D01*
X159570328Y-109124190D01*
X159592865Y-109058055D01*
X159637917Y-109019016D01*
X159730610Y-108971787D01*
X159764180Y-108947397D01*
X159896213Y-108851471D01*
X159896215Y-108851468D01*
X159896219Y-108851466D01*
X160040966Y-108706719D01*
X160040968Y-108706715D01*
X160040971Y-108706713D01*
X160117602Y-108601238D01*
X160161287Y-108541110D01*
X160254220Y-108358719D01*
X160317477Y-108164034D01*
X160349500Y-107961852D01*
X160349500Y-107757148D01*
X160317477Y-107554966D01*
X160313405Y-107542435D01*
X160265476Y-107394923D01*
X160254220Y-107360281D01*
X160254218Y-107360278D01*
X160254218Y-107360276D01*
X160220373Y-107293853D01*
X160161287Y-107177890D01*
X160138065Y-107145927D01*
X160040971Y-107012286D01*
X159896213Y-106867528D01*
X159730614Y-106747215D01*
X159724006Y-106743848D01*
X159637917Y-106699983D01*
X159587123Y-106652011D01*
X159570328Y-106584190D01*
X159592865Y-106518055D01*
X159637917Y-106479016D01*
X159730610Y-106431787D01*
X159791297Y-106387696D01*
X159896213Y-106311471D01*
X159896215Y-106311468D01*
X159896219Y-106311466D01*
X160040966Y-106166719D01*
X160040968Y-106166715D01*
X160040971Y-106166713D01*
X160110026Y-106071665D01*
X160161287Y-106001110D01*
X160254220Y-105818719D01*
X160317477Y-105624034D01*
X160349500Y-105421852D01*
X160349500Y-105217148D01*
X160317477Y-105014966D01*
X160314180Y-105004820D01*
X160254218Y-104820276D01*
X160214490Y-104742307D01*
X160161287Y-104637890D01*
X160131018Y-104596228D01*
X160040971Y-104472286D01*
X159896213Y-104327528D01*
X159730614Y-104207215D01*
X159658947Y-104170699D01*
X159637917Y-104159983D01*
X159587123Y-104112011D01*
X159570328Y-104044190D01*
X159592865Y-103978055D01*
X159637917Y-103939016D01*
X159730610Y-103891787D01*
X159819737Y-103827033D01*
X159896213Y-103771471D01*
X159896215Y-103771468D01*
X159896219Y-103771466D01*
X160040966Y-103626719D01*
X160040968Y-103626715D01*
X160040971Y-103626713D01*
X160113376Y-103527054D01*
X160161287Y-103461110D01*
X160254220Y-103278719D01*
X160317477Y-103084034D01*
X160349500Y-102881852D01*
X160349500Y-102677148D01*
X160330721Y-102558586D01*
X160317477Y-102474965D01*
X160271812Y-102334425D01*
X160254220Y-102280281D01*
X160254218Y-102280278D01*
X160254218Y-102280276D01*
X160200241Y-102174342D01*
X160161287Y-102097890D01*
X160133610Y-102059795D01*
X160040971Y-101932286D01*
X159896213Y-101787528D01*
X159730613Y-101667215D01*
X159730612Y-101667214D01*
X159730610Y-101667213D01*
X159673653Y-101638191D01*
X159548223Y-101574281D01*
X159353534Y-101511022D01*
X159178995Y-101483378D01*
X159151352Y-101479000D01*
X158946648Y-101479000D01*
X158922329Y-101482851D01*
X158744465Y-101511022D01*
X158549776Y-101574281D01*
X158367386Y-101667215D01*
X158201786Y-101787528D01*
X158057028Y-101932286D01*
X157936715Y-102097886D01*
X157843781Y-102280276D01*
X157780522Y-102474965D01*
X157748500Y-102677148D01*
X138251500Y-102677148D01*
X138232721Y-102558586D01*
X138219477Y-102474965D01*
X138173812Y-102334425D01*
X138156220Y-102280281D01*
X138156218Y-102280278D01*
X138156218Y-102280276D01*
X138102241Y-102174342D01*
X138063287Y-102097890D01*
X138035610Y-102059795D01*
X137942971Y-101932286D01*
X137798213Y-101787528D01*
X137632613Y-101667215D01*
X137632612Y-101667214D01*
X137632610Y-101667213D01*
X137575653Y-101638191D01*
X137450223Y-101574281D01*
X137255534Y-101511022D01*
X137080995Y-101483378D01*
X137053352Y-101479000D01*
X136848648Y-101479000D01*
X136824329Y-101482851D01*
X136646465Y-101511022D01*
X136451776Y-101574281D01*
X136269386Y-101667215D01*
X136103786Y-101787528D01*
X135959028Y-101932286D01*
X135838715Y-102097886D01*
X135745781Y-102280276D01*
X135682522Y-102474965D01*
X135650500Y-102677148D01*
X133435352Y-102677148D01*
X133424657Y-102668832D01*
X133424658Y-102668832D01*
X133424576Y-102668769D01*
X133418871Y-102664399D01*
X133349106Y-102611758D01*
X133346414Y-102609759D01*
X133343078Y-102607280D01*
X133272284Y-102555490D01*
X133265702Y-102550755D01*
X133195377Y-102501020D01*
X133191686Y-102498435D01*
X133191572Y-102498355D01*
X133171001Y-102484081D01*
X133171000Y-102484080D01*
X133170785Y-102483931D01*
X133119901Y-102448663D01*
X133119901Y-102448662D01*
X133119323Y-102448263D01*
X133118324Y-102447573D01*
X133077523Y-102419389D01*
X133077447Y-102419336D01*
X133076403Y-102418617D01*
X133076403Y-102418618D01*
X133076335Y-102418571D01*
X133041582Y-102394711D01*
X133041560Y-102394696D01*
X133041461Y-102394628D01*
X133040927Y-102394264D01*
X133039736Y-102393450D01*
X133039666Y-102393402D01*
X133010098Y-102373294D01*
X133010095Y-102373292D01*
X133009948Y-102373192D01*
X133007464Y-102371513D01*
X132980599Y-102353475D01*
X132977852Y-102351643D01*
X132951870Y-102334443D01*
X132949471Y-102332865D01*
X132949313Y-102332761D01*
X132949313Y-102332760D01*
X132922441Y-102315190D01*
X132920821Y-102314135D01*
X132920821Y-102314136D01*
X132920724Y-102314073D01*
X132890383Y-102294398D01*
X132889024Y-102293520D01*
X132888940Y-102293465D01*
X132802614Y-102237878D01*
X132800321Y-102236411D01*
X132800179Y-102236320D01*
X132706148Y-102176511D01*
X132702708Y-102174342D01*
X132685658Y-102163689D01*
X132648496Y-102140469D01*
X132602073Y-102088251D01*
X132591251Y-102019225D01*
X132619465Y-101955305D01*
X132622255Y-101952113D01*
X132628640Y-101945065D01*
X132647398Y-101923129D01*
X132649023Y-101921115D01*
X132666160Y-101898616D01*
X132690280Y-101865040D01*
X132710255Y-101835030D01*
X132735248Y-101794413D01*
X132748581Y-101771412D01*
X132772535Y-101727462D01*
X132784052Y-101705016D01*
X132805054Y-101661439D01*
X132817625Y-101633174D01*
X132833764Y-101593676D01*
X132850626Y-101545628D01*
X132859990Y-101513916D01*
X132874064Y-101452304D01*
X132876081Y-101439964D01*
X132882303Y-101378475D01*
X132882634Y-101370141D01*
X132883327Y-101352698D01*
X132883326Y-101352691D01*
X132883327Y-101352684D01*
X132879463Y-101267126D01*
X132875819Y-101239242D01*
X132861076Y-101167441D01*
X132852160Y-101135850D01*
X132834880Y-101085093D01*
X132820086Y-101048182D01*
X132805652Y-101015554D01*
X132784369Y-100971695D01*
X132774128Y-100951733D01*
X132745760Y-100899335D01*
X132739189Y-100887575D01*
X132703078Y-100824929D01*
X132700385Y-100820314D01*
X132695646Y-100812293D01*
X132695628Y-100812262D01*
X132693394Y-100808516D01*
X132675301Y-100778484D01*
X132675272Y-100778436D01*
X132671059Y-100771570D01*
X132670997Y-100771470D01*
X132655594Y-100746820D01*
X132648207Y-100735347D01*
X132637000Y-100718445D01*
X132608252Y-100679308D01*
X132602744Y-100672519D01*
X132602740Y-100672515D01*
X132602737Y-100672511D01*
X132602321Y-100672082D01*
X132597290Y-100666573D01*
X132590655Y-100658854D01*
X132587092Y-100654515D01*
X132585572Y-100652574D01*
X132583781Y-100650231D01*
X132571990Y-100634414D01*
X132571417Y-100633639D01*
X132560511Y-100618769D01*
X132556378Y-100613209D01*
X132532183Y-100547662D01*
X132547266Y-100479440D01*
X132560789Y-100459670D01*
X132572560Y-100445600D01*
X132599415Y-100407345D01*
X132635564Y-100347418D01*
X132658071Y-100303492D01*
X132683609Y-100244751D01*
X132700155Y-100198956D01*
X132719970Y-100128537D01*
X132728946Y-100084678D01*
X132739204Y-99980593D01*
X132738998Y-99942474D01*
X132731510Y-99859696D01*
X132745075Y-99791157D01*
X132772740Y-99755745D01*
X132815407Y-99717918D01*
X132815414Y-99717909D01*
X132815420Y-99717905D01*
X132883217Y-99644616D01*
X132883218Y-99644613D01*
X132883226Y-99644606D01*
X132921920Y-99593447D01*
X132963772Y-99528277D01*
X132971060Y-99514750D01*
X133004382Y-99438445D01*
X133010587Y-99420287D01*
X133033368Y-99323204D01*
X133036370Y-99300540D01*
X133040596Y-99246524D01*
X133041381Y-99214430D01*
X133041469Y-99194084D01*
X133041161Y-99174589D01*
X133038999Y-99135201D01*
X133036392Y-99107505D01*
X133019208Y-99016148D01*
X133012591Y-98992963D01*
X132964166Y-98878753D01*
X132951937Y-98857593D01*
X132890140Y-98772520D01*
X132870693Y-98750895D01*
X132865400Y-98745690D01*
X132826495Y-98707433D01*
X132826487Y-98707426D01*
X132826478Y-98707417D01*
X132798209Y-98682841D01*
X132797576Y-98682321D01*
X132776383Y-98664911D01*
X132737688Y-98634895D01*
X132730740Y-98629601D01*
X132714440Y-98617406D01*
X132709893Y-98614046D01*
X132709774Y-98613958D01*
X132687302Y-98597553D01*
X132687274Y-98597533D01*
X132687229Y-98597500D01*
X132681503Y-98593381D01*
X132657060Y-98576059D01*
X132651650Y-98572277D01*
X132623660Y-98552974D01*
X132619382Y-98550057D01*
X132587035Y-98528243D01*
X132586952Y-98528187D01*
X132586846Y-98528116D01*
X132583558Y-98525917D01*
X132545145Y-98500447D01*
X132544999Y-98500350D01*
X132542938Y-98498992D01*
X132497157Y-98469002D01*
X132495541Y-98467948D01*
X132441794Y-98433032D01*
X132440694Y-98432320D01*
X132378482Y-98392125D01*
X132332856Y-98339210D01*
X132323080Y-98270028D01*
X132352259Y-98206543D01*
X132392475Y-98176013D01*
X132406770Y-98169208D01*
X132412689Y-98166343D01*
X132451427Y-98147278D01*
X132460369Y-98142766D01*
X132491641Y-98126598D01*
X132510049Y-98116592D01*
X132530947Y-98104665D01*
X132562905Y-98084814D01*
X132594983Y-98063193D01*
X132615304Y-98049498D01*
X132615318Y-98049488D01*
X132641044Y-98030950D01*
X132710516Y-97977499D01*
X132738075Y-97954698D01*
X132802213Y-97897695D01*
X132828940Y-97872131D01*
X132886113Y-97813293D01*
X132913724Y-97782446D01*
X132962296Y-97723490D01*
X132992403Y-97682984D01*
X133030744Y-97625627D01*
X133064444Y-97567094D01*
X133090918Y-97513054D01*
X133111660Y-97464431D01*
X133115448Y-97454083D01*
X133132650Y-97396794D01*
X133148438Y-97330120D01*
X133156294Y-97274536D01*
X133185165Y-97210914D01*
X133243853Y-97172998D01*
X133313722Y-97172830D01*
X133353458Y-97193500D01*
X133353735Y-97193109D01*
X133356598Y-97195133D01*
X133356665Y-97195168D01*
X133356795Y-97195272D01*
X133356800Y-97195275D01*
X133356805Y-97195280D01*
X133456657Y-97265873D01*
X133456660Y-97265875D01*
X133495851Y-97286988D01*
X133495857Y-97286991D01*
X133555948Y-97314459D01*
X133555949Y-97314459D01*
X133555950Y-97314460D01*
X133566650Y-97318528D01*
X133579213Y-97323305D01*
X133579216Y-97323306D01*
X133579219Y-97323307D01*
X133601966Y-97330120D01*
X133649208Y-97344270D01*
X133708678Y-97357486D01*
X133790990Y-97368784D01*
X133858020Y-97372416D01*
X133858034Y-97372415D01*
X133858044Y-97372416D01*
X133899195Y-97371777D01*
X133928362Y-97371325D01*
X134000553Y-97365163D01*
X134033300Y-97361288D01*
X134033324Y-97361284D01*
X134033327Y-97361284D01*
X134035592Y-97360941D01*
X134035613Y-97360937D01*
X134035636Y-97360934D01*
X134050847Y-97358391D01*
X134050866Y-97358387D01*
X134050893Y-97358383D01*
X134070923Y-97354718D01*
X134093951Y-97350507D01*
X134148140Y-97337472D01*
X134179844Y-97327969D01*
X134179844Y-97327968D01*
X134179847Y-97327968D01*
X134212176Y-97314459D01*
X134277217Y-97287282D01*
X134300391Y-97274611D01*
X134413967Y-97189874D01*
X134431485Y-97172488D01*
X134504440Y-97081002D01*
X134519174Y-97057353D01*
X134549003Y-97002100D01*
X134555761Y-96987476D01*
X134582133Y-96917087D01*
X134586739Y-96901310D01*
X134602376Y-96827827D01*
X134605093Y-96807867D01*
X134609164Y-96763221D01*
X134610448Y-96735672D01*
X134610980Y-96716216D01*
X134611291Y-96677674D01*
X134611295Y-96670157D01*
X134611126Y-96645309D01*
X134610781Y-96629740D01*
X134609702Y-96601054D01*
X134609418Y-96593495D01*
X134606754Y-96557323D01*
X134606753Y-96557312D01*
X134603437Y-96527118D01*
X134596423Y-96482080D01*
X134590460Y-96452601D01*
X134582683Y-96419816D01*
X134573381Y-96385709D01*
X134570029Y-96373978D01*
X134570018Y-96373939D01*
X134565990Y-96360463D01*
X134564802Y-96356741D01*
X134560305Y-96342646D01*
X134543878Y-96294276D01*
X134539263Y-96280685D01*
X134524214Y-96241737D01*
X134501383Y-96189207D01*
X134479158Y-96144301D01*
X134452764Y-96097022D01*
X134452757Y-96097009D01*
X134424021Y-96051430D01*
X134424018Y-96051425D01*
X134390580Y-96004173D01*
X134361514Y-95966922D01*
X134315601Y-95913435D01*
X134287614Y-95883392D01*
X134235575Y-95831891D01*
X134204370Y-95803487D01*
X134149935Y-95757943D01*
X134131141Y-95742963D01*
X134130762Y-95742675D01*
X134129727Y-95741889D01*
X134129370Y-95741616D01*
X134104905Y-95722895D01*
X134104069Y-95722250D01*
X134086700Y-95708723D01*
X134085417Y-95707710D01*
X134085044Y-95707411D01*
X134082377Y-95705277D01*
X134079364Y-95702786D01*
X134072681Y-95697078D01*
X134069453Y-95694400D01*
X134035221Y-95669984D01*
X134009440Y-95651596D01*
X134009432Y-95651591D01*
X133996049Y-95643448D01*
X133990204Y-95640128D01*
X133969704Y-95628481D01*
X133967509Y-95627319D01*
X133952960Y-95619621D01*
X133940966Y-95612227D01*
X133940896Y-95612330D01*
X133927627Y-95603252D01*
X133902298Y-95586474D01*
X133895308Y-95581926D01*
X133862449Y-95560923D01*
X133858023Y-95558125D01*
X133820454Y-95534642D01*
X133817133Y-95532585D01*
X133777801Y-95508444D01*
X133774255Y-95506287D01*
X133736296Y-95483422D01*
X133731546Y-95480595D01*
X133697832Y-95460778D01*
X133689837Y-95456174D01*
X133663246Y-95441182D01*
X133657741Y-95438123D01*
X133637182Y-95426862D01*
X133636280Y-95426364D01*
X133624239Y-95419638D01*
X133575311Y-95369760D01*
X133561117Y-95301347D01*
X133586162Y-95236120D01*
X133642496Y-95194789D01*
X133654013Y-95191242D01*
X133663023Y-95188941D01*
X133735979Y-95169044D01*
X133753530Y-95163915D01*
X133821047Y-95142850D01*
X133843138Y-95135394D01*
X133902240Y-95113917D01*
X133918094Y-95107534D01*
X133934301Y-95101010D01*
X133948788Y-95094593D01*
X133982026Y-95079871D01*
X134021957Y-95060033D01*
X134033292Y-95053764D01*
X134082709Y-95022574D01*
X134116453Y-94998440D01*
X134166893Y-94957203D01*
X134199186Y-94927129D01*
X134241812Y-94882254D01*
X134268750Y-94850171D01*
X134317745Y-94780704D01*
X134335422Y-94750540D01*
X134383330Y-94640693D01*
X134388817Y-94622469D01*
X134401272Y-94571743D01*
X134406582Y-94543995D01*
X134412180Y-94507609D01*
X134415670Y-94477719D01*
X134418353Y-94446212D01*
X134419800Y-94419278D01*
X134419543Y-94360619D01*
X134418203Y-94339185D01*
X134399664Y-94231596D01*
X134394193Y-94212486D01*
X134366582Y-94138468D01*
X134355874Y-94115441D01*
X134330842Y-94068296D01*
X134312737Y-94038155D01*
X134264717Y-93971241D01*
X134225259Y-93924776D01*
X134166384Y-93866019D01*
X134166379Y-93866014D01*
X134128272Y-93833785D01*
X134115880Y-93823304D01*
X134058081Y-93781058D01*
X133998577Y-93743728D01*
X133998568Y-93743723D01*
X133998569Y-93743723D01*
X133939723Y-93712025D01*
X133939695Y-93712011D01*
X133873248Y-93681705D01*
X133847157Y-93670678D01*
X133847144Y-93670673D01*
X133847130Y-93670667D01*
X133842029Y-93668677D01*
X133840254Y-93667968D01*
X133823946Y-93661304D01*
X133822254Y-93660598D01*
X133811441Y-93655991D01*
X133800394Y-93651285D01*
X133799638Y-93650964D01*
X133799576Y-93650937D01*
X133787931Y-93645998D01*
X133780716Y-93643004D01*
X133752586Y-93631591D01*
X133752551Y-93631577D01*
X133747360Y-93629504D01*
X133713573Y-93616229D01*
X133712053Y-93615640D01*
X133709022Y-93614465D01*
X133674557Y-93601300D01*
X133672887Y-93600666D01*
X133672887Y-93600667D01*
X133672813Y-93600639D01*
X133669413Y-93599354D01*
X133668987Y-93599192D01*
X133643255Y-93589309D01*
X133606436Y-93574980D01*
X133604942Y-93574394D01*
X133561131Y-93557216D01*
X133560924Y-93557135D01*
X133551098Y-93553262D01*
X133510158Y-93537124D01*
X133455523Y-93515487D01*
X133400126Y-93493447D01*
X133391844Y-93490148D01*
X133382167Y-93486293D01*
X133382167Y-93486292D01*
X133381452Y-93486009D01*
X133381452Y-93486010D01*
X133364239Y-93479188D01*
X133327806Y-93464750D01*
X133327752Y-93464728D01*
X133326693Y-93464309D01*
X133326693Y-93464310D01*
X133326599Y-93464273D01*
X133275747Y-93444271D01*
X133274412Y-93443748D01*
X133228466Y-93425826D01*
X133228353Y-93425782D01*
X133226838Y-93425194D01*
X133226741Y-93425157D01*
X133206440Y-93417323D01*
X133187865Y-93410156D01*
X133184880Y-93409015D01*
X133155249Y-93397781D01*
X133148975Y-93395450D01*
X133130476Y-93388718D01*
X133130451Y-93388709D01*
X133130396Y-93388689D01*
X133126434Y-93387265D01*
X133124949Y-93386738D01*
X133120012Y-93384987D01*
X133118309Y-93384369D01*
X133096848Y-93376402D01*
X133095714Y-93375975D01*
X133063896Y-93363808D01*
X133063130Y-93363512D01*
X133026235Y-93349123D01*
X133025514Y-93348839D01*
X132986495Y-93333340D01*
X132986151Y-93333203D01*
X132979343Y-93330475D01*
X132971337Y-93327267D01*
X132971279Y-93327243D01*
X132970257Y-93326835D01*
X132900606Y-93299120D01*
X132900504Y-93299080D01*
X132899619Y-93298730D01*
X132898398Y-93298247D01*
X132866962Y-93285901D01*
X132834963Y-93273333D01*
X132834813Y-93273274D01*
X132832624Y-93272421D01*
X132832469Y-93272361D01*
X132776428Y-93250692D01*
X132776325Y-93250652D01*
X132776220Y-93250612D01*
X132773278Y-93249486D01*
X132725568Y-93231420D01*
X132720720Y-93229613D01*
X132683047Y-93215798D01*
X132673913Y-93212548D01*
X132673899Y-93212543D01*
X132673862Y-93212530D01*
X132647136Y-93203309D01*
X132621274Y-93195156D01*
X132613870Y-93193038D01*
X132606654Y-93190974D01*
X132604802Y-93190458D01*
X132594425Y-93187065D01*
X132585450Y-93183686D01*
X132583722Y-93183019D01*
X132566153Y-93176093D01*
X132560257Y-93173768D01*
X132560187Y-93173740D01*
X132560117Y-93173713D01*
X132557710Y-93172771D01*
X132557689Y-93172763D01*
X132557554Y-93172710D01*
X132557554Y-93172709D01*
X132510806Y-93154555D01*
X132510685Y-93154508D01*
X132508408Y-93153629D01*
X132458267Y-93134434D01*
X132456390Y-93133720D01*
X132404972Y-93114270D01*
X132403250Y-93113622D01*
X132403107Y-93113568D01*
X132403107Y-93113567D01*
X132352456Y-93094618D01*
X132350565Y-93093916D01*
X132350565Y-93093915D01*
X132302139Y-93076004D01*
X132300294Y-93075326D01*
X132300164Y-93075279D01*
X132279570Y-93067761D01*
X132255884Y-93059114D01*
X132253448Y-93058233D01*
X132248790Y-93056562D01*
X132215164Y-93044501D01*
X132210974Y-93043019D01*
X132210920Y-93043000D01*
X132180836Y-93032506D01*
X132172055Y-93029532D01*
X132151623Y-93022821D01*
X132145772Y-93021129D01*
X132122989Y-93014543D01*
X132118083Y-93013014D01*
X132114905Y-93011950D01*
X132113504Y-93011471D01*
X132091556Y-93003830D01*
X132090818Y-93003570D01*
X132063497Y-92993836D01*
X132063051Y-92993676D01*
X132055759Y-92991028D01*
X132035190Y-92983556D01*
X132034382Y-92983259D01*
X132010929Y-92974555D01*
X132009662Y-92974077D01*
X131997214Y-92969302D01*
X131994248Y-92968120D01*
X131983030Y-92963482D01*
X131981890Y-92963004D01*
X131980228Y-92962297D01*
X131978922Y-92961775D01*
X131977593Y-92961235D01*
X131948645Y-92949265D01*
X131942864Y-92947629D01*
X131940774Y-92946834D01*
X131940750Y-92946825D01*
X131940736Y-92946820D01*
X131906806Y-92934578D01*
X131898890Y-92931797D01*
X131856812Y-92917412D01*
X131851591Y-92915659D01*
X131804431Y-92900107D01*
X131804376Y-92900089D01*
X131800266Y-92898753D01*
X131773809Y-92890278D01*
X131750449Y-92882795D01*
X131746509Y-92881550D01*
X131696773Y-92866056D01*
X131692595Y-92864773D01*
X131645581Y-92850578D01*
X131639974Y-92848920D01*
X131598535Y-92836923D01*
X131591603Y-92834985D01*
X131589618Y-92834430D01*
X131556345Y-92825455D01*
X131536835Y-92820607D01*
X131514401Y-92815504D01*
X131510973Y-92814766D01*
X131508998Y-92814324D01*
X131500960Y-92812454D01*
X131499557Y-92812118D01*
X131477091Y-92806615D01*
X131476480Y-92806464D01*
X131443676Y-92798252D01*
X131443274Y-92798151D01*
X131402622Y-92787830D01*
X131402278Y-92787742D01*
X131361070Y-92777154D01*
X131361060Y-92777151D01*
X131359397Y-92776724D01*
X131357664Y-92776279D01*
X131340711Y-92771921D01*
X131340665Y-92771909D01*
X131340551Y-92771880D01*
X131340551Y-92771879D01*
X131338573Y-92771377D01*
X131294514Y-92760267D01*
X131294482Y-92760259D01*
X131294343Y-92760224D01*
X131290758Y-92759334D01*
X131290704Y-92759320D01*
X131290584Y-92759291D01*
X131251629Y-92749770D01*
X131246894Y-92748637D01*
X131246844Y-92748625D01*
X131236244Y-92746141D01*
X131214831Y-92741125D01*
X131206440Y-92739234D01*
X131190617Y-92735809D01*
X131183860Y-92734347D01*
X131183853Y-92734345D01*
X131183836Y-92734342D01*
X131156851Y-92729264D01*
X131145926Y-92727515D01*
X131145911Y-92727513D01*
X131083124Y-92721446D01*
X130940100Y-92737085D01*
X130940097Y-92737086D01*
X130931726Y-92739239D01*
X130920508Y-92742124D01*
X130909020Y-92745223D01*
X130909018Y-92745223D01*
X130909017Y-92745224D01*
X130777533Y-92803635D01*
X130755211Y-92817656D01*
X130664657Y-92890277D01*
X130646045Y-92909099D01*
X130636286Y-92919245D01*
X130553963Y-93037233D01*
X130553952Y-93037252D01*
X130544164Y-93056694D01*
X130526823Y-93095034D01*
X130492572Y-93234774D01*
X130492570Y-93234785D01*
X130491622Y-93244475D01*
X130491622Y-93244480D01*
X130491622Y-93244482D01*
X130493521Y-93298253D01*
X130496348Y-93378329D01*
X130501346Y-93407766D01*
X130501349Y-93407780D01*
X130535574Y-93523425D01*
X130535576Y-93523430D01*
X130549966Y-93556781D01*
X130549982Y-93556815D01*
X130573847Y-93601309D01*
X130590530Y-93632413D01*
X130612708Y-93666466D01*
X130660562Y-93728760D01*
X130688891Y-93760236D01*
X130688896Y-93760241D01*
X130688904Y-93760249D01*
X130727606Y-93798831D01*
X130727633Y-93798856D01*
X130736015Y-93806354D01*
X130754833Y-93822064D01*
X130759656Y-93829274D01*
X130767067Y-93833785D01*
X130778787Y-93857874D01*
X130793681Y-93880139D01*
X130793840Y-93888812D01*
X130797635Y-93896612D01*
X130794471Y-93923213D01*
X130794963Y-93949997D01*
X130790408Y-93957378D01*
X130789384Y-93965993D01*
X130772341Y-93986659D01*
X130758275Y-94009458D01*
X130749286Y-94014618D01*
X130744932Y-94019899D01*
X130714650Y-94034504D01*
X130713195Y-94035340D01*
X130712516Y-94035557D01*
X130712387Y-94035597D01*
X130706776Y-94037351D01*
X130655472Y-94053711D01*
X130653122Y-94054466D01*
X130622699Y-94064330D01*
X130622435Y-94064415D01*
X130622214Y-94064487D01*
X130579948Y-94078007D01*
X130579333Y-94078202D01*
X130542959Y-94089629D01*
X130542131Y-94089886D01*
X130514998Y-94098202D01*
X130513551Y-94098635D01*
X130504919Y-94101166D01*
X130500544Y-94102363D01*
X130467206Y-94110826D01*
X130453057Y-94116374D01*
X130451036Y-94116966D01*
X130448635Y-94118011D01*
X130445267Y-94119136D01*
X130445260Y-94119138D01*
X130445259Y-94119139D01*
X130445250Y-94119142D01*
X130402612Y-94135555D01*
X130376466Y-94147002D01*
X130357254Y-94155900D01*
X130325980Y-94171188D01*
X130312209Y-94178183D01*
X130279187Y-94195599D01*
X130265338Y-94203186D01*
X130234062Y-94220963D01*
X130214965Y-94232381D01*
X130188942Y-94248731D01*
X130168144Y-94262525D01*
X130151257Y-94274335D01*
X130121549Y-94296782D01*
X130062087Y-94345250D01*
X130017315Y-94386474D01*
X130017297Y-94386492D01*
X129966690Y-94439061D01*
X129922891Y-94491165D01*
X129882926Y-94545792D01*
X129839449Y-94616841D01*
X129811933Y-94671458D01*
X129792343Y-94715441D01*
X129792338Y-94715451D01*
X129787402Y-94728126D01*
X129786877Y-94729451D01*
X129781828Y-94741985D01*
X129780793Y-94744475D01*
X129777221Y-94752813D01*
X129768850Y-94773609D01*
X129764324Y-94785614D01*
X129746893Y-94841440D01*
X129741796Y-94861844D01*
X129731984Y-94911638D01*
X129731981Y-94911660D01*
X129729561Y-94928312D01*
X129729557Y-94928342D01*
X129724803Y-94978548D01*
X129723983Y-94996970D01*
X129723983Y-94996974D01*
X129729097Y-95094593D01*
X129731859Y-95112971D01*
X129744247Y-95171539D01*
X129751145Y-95196690D01*
X129755707Y-95212331D01*
X129755709Y-95212337D01*
X129757097Y-95216826D01*
X129771586Y-95257454D01*
X129771589Y-95257461D01*
X129779616Y-95277257D01*
X129779629Y-95277286D01*
X129818804Y-95354254D01*
X129818810Y-95354265D01*
X129827330Y-95367965D01*
X129830808Y-95373558D01*
X129830810Y-95373560D01*
X129871013Y-95429347D01*
X129871020Y-95429355D01*
X129871023Y-95429359D01*
X129889315Y-95451407D01*
X129913383Y-95478392D01*
X129913391Y-95478400D01*
X129940293Y-95506474D01*
X129940308Y-95506489D01*
X129940310Y-95506491D01*
X129957450Y-95523541D01*
X129957469Y-95523559D01*
X129957471Y-95523561D01*
X129979314Y-95544276D01*
X130011816Y-95572566D01*
X130011822Y-95572570D01*
X130011828Y-95572576D01*
X130029242Y-95586474D01*
X130048811Y-95602092D01*
X130093946Y-95634227D01*
X130093959Y-95634236D01*
X130108511Y-95643438D01*
X130135751Y-95660664D01*
X130178842Y-95685045D01*
X130197441Y-95694397D01*
X130225794Y-95708654D01*
X130276845Y-95756356D01*
X130294002Y-95824087D01*
X130271817Y-95890341D01*
X130263985Y-95900428D01*
X130228699Y-95941335D01*
X130212845Y-95962118D01*
X130190125Y-95994448D01*
X130164310Y-96034419D01*
X130142544Y-96071487D01*
X130120324Y-96113307D01*
X130120306Y-96113344D01*
X130100323Y-96155551D01*
X130100321Y-96155556D01*
X130083781Y-96195120D01*
X130061422Y-96261026D01*
X130061419Y-96261035D01*
X130061419Y-96261037D01*
X130052648Y-96294252D01*
X130052644Y-96294270D01*
X130052643Y-96294276D01*
X130040593Y-96354557D01*
X130040589Y-96354576D01*
X130040292Y-96356739D01*
X130035722Y-96436757D01*
X130035722Y-96436790D01*
X130036724Y-96481635D01*
X130036724Y-96481641D01*
X130053789Y-96601054D01*
X130067363Y-96651769D01*
X130077489Y-96679714D01*
X130081820Y-96749450D01*
X130047762Y-96810456D01*
X130036345Y-96820369D01*
X129974576Y-96867718D01*
X129974571Y-96867722D01*
X129923759Y-96914769D01*
X129923755Y-96914773D01*
X129859320Y-96987079D01*
X129859316Y-96987084D01*
X129818703Y-97042557D01*
X129767702Y-97129125D01*
X129738716Y-97191852D01*
X129738711Y-97191863D01*
X129714167Y-97256143D01*
X129714164Y-97256153D01*
X129711194Y-97265873D01*
X129709973Y-97269867D01*
X129708898Y-97274611D01*
X129694654Y-97337470D01*
X129693506Y-97342534D01*
X129685238Y-97397582D01*
X129680177Y-97496125D01*
X129680177Y-97496143D01*
X129682949Y-97555797D01*
X129682949Y-97555803D01*
X129694238Y-97641073D01*
X129694243Y-97641101D01*
X129707702Y-97702193D01*
X129707703Y-97702196D01*
X129732191Y-97781604D01*
X129732191Y-97781607D01*
X129744899Y-97813292D01*
X129755986Y-97840936D01*
X129776302Y-97885272D01*
X129776306Y-97885279D01*
X129776320Y-97885309D01*
X129798714Y-97928543D01*
X129809558Y-97948384D01*
X129866081Y-98046517D01*
X129883844Y-98075109D01*
X129945779Y-98167769D01*
X129966668Y-98234443D01*
X129963881Y-98262237D01*
X129963985Y-98262258D01*
X129963768Y-98263371D01*
X129963758Y-98263474D01*
X129963677Y-98263835D01*
X129953664Y-98315286D01*
X129953660Y-98315311D01*
X129953036Y-98319728D01*
X129953031Y-98319765D01*
X129948607Y-98367044D01*
X129948606Y-98367055D01*
X129947595Y-98388854D01*
X129958585Y-98519628D01*
X129958587Y-98519641D01*
X129962975Y-98539825D01*
X129962978Y-98539839D01*
X129993833Y-98635091D01*
X129993835Y-98635096D01*
X129993837Y-98635101D01*
X130004935Y-98660463D01*
X130015127Y-98682321D01*
X130015385Y-98682841D01*
X130018402Y-98688929D01*
X130024944Y-98701669D01*
X130048345Y-98745690D01*
X130070585Y-98783480D01*
X130093123Y-98818233D01*
X130093127Y-98818239D01*
X130093132Y-98818246D01*
X130122377Y-98857591D01*
X130131623Y-98870031D01*
X130132801Y-98871514D01*
X130159080Y-98936254D01*
X130146186Y-99004924D01*
X130122951Y-99036741D01*
X130096384Y-99063049D01*
X130096383Y-99063050D01*
X130033220Y-99139227D01*
X130003734Y-99182864D01*
X129982402Y-99217338D01*
X129979660Y-99222195D01*
X129960571Y-99259546D01*
X129938045Y-99308544D01*
X129938041Y-99308554D01*
X129907950Y-99393070D01*
X129907942Y-99393096D01*
X129894950Y-99443318D01*
X129879998Y-99535700D01*
X129876333Y-99589720D01*
X129876332Y-99589734D01*
X129877228Y-99669475D01*
X129877229Y-99669494D01*
X129882692Y-99729889D01*
X129891209Y-99787188D01*
X129891211Y-99787201D01*
X129905607Y-99856477D01*
X129910417Y-99877385D01*
X129910781Y-99878824D01*
X129911966Y-99883424D01*
X129918830Y-99909571D01*
X129923324Y-99925609D01*
X129930203Y-99948692D01*
X129937843Y-99972214D01*
X129945688Y-99994493D01*
X129949385Y-100064265D01*
X129930255Y-100106861D01*
X129924576Y-100114961D01*
X129924570Y-100114969D01*
X129924559Y-100114986D01*
X129904733Y-100146209D01*
X129883441Y-100183086D01*
X129865542Y-100217342D01*
X129849600Y-100250784D01*
X129835291Y-100283867D01*
X129835281Y-100283892D01*
X129828284Y-100303500D01*
X129813070Y-100346132D01*
X129812704Y-100347418D01*
X129794553Y-100411170D01*
X129777334Y-100503555D01*
X129771189Y-100570752D01*
X129770952Y-100660148D01*
X129777087Y-100731419D01*
X129788902Y-100804860D01*
X129807231Y-100882047D01*
X129815481Y-100912520D01*
X129815608Y-100912937D01*
X129819801Y-100926058D01*
X129834547Y-100970116D01*
X129842677Y-100992625D01*
X129860371Y-101038207D01*
X129868329Y-101057520D01*
X129887593Y-101101657D01*
X129897553Y-101123168D01*
X129897108Y-101123373D01*
X129908624Y-101190416D01*
X129881345Y-101254740D01*
X129823620Y-101294105D01*
X129821956Y-101294630D01*
X129820928Y-101294946D01*
X129820886Y-101294960D01*
X129755362Y-101319261D01*
X129708782Y-101339246D01*
X129708776Y-101339249D01*
X129682285Y-101352224D01*
X129645705Y-101370141D01*
X129645696Y-101370146D01*
X129601132Y-101394832D01*
X129601105Y-101394848D01*
X129543482Y-101430681D01*
X129495719Y-101464361D01*
X129495712Y-101464366D01*
X129446504Y-101503514D01*
X129390325Y-101555632D01*
X129390303Y-101555654D01*
X129352538Y-101596438D01*
X129352535Y-101596441D01*
X129319922Y-101635420D01*
X129319911Y-101635434D01*
X129319611Y-101635831D01*
X129301905Y-101660841D01*
X129265682Y-101715441D01*
X129265660Y-101715476D01*
X129229742Y-101779198D01*
X129229722Y-101779236D01*
X129203084Y-101835702D01*
X129175796Y-101907088D01*
X129175788Y-101907111D01*
X129157272Y-101969287D01*
X129143026Y-102031053D01*
X129131152Y-102102840D01*
X129126730Y-102136611D01*
X129123809Y-102166799D01*
X129122026Y-102191536D01*
X129118667Y-102262407D01*
X129118110Y-102289600D01*
X129118589Y-102364149D01*
X129119429Y-102390212D01*
X129123627Y-102462631D01*
X129126451Y-102494184D01*
X129134259Y-102558586D01*
X129138363Y-102586080D01*
X129147427Y-102637131D01*
X129149347Y-102647337D01*
X129161064Y-102706267D01*
X129161081Y-102706348D01*
X129162700Y-102714168D01*
X129164188Y-102721080D01*
X129176285Y-102777260D01*
X129177708Y-102783661D01*
X129192530Y-102848344D01*
X129192547Y-102848415D01*
X129193963Y-102854426D01*
X129202350Y-102889076D01*
X129209516Y-102918682D01*
X129211001Y-102924654D01*
X129226702Y-102986135D01*
X129227642Y-102989706D01*
X129228566Y-102993215D01*
X129228582Y-102993273D01*
X129243792Y-103049430D01*
X129246410Y-103058744D01*
X129259114Y-103102349D01*
X129260656Y-103107643D01*
X129264959Y-103121655D01*
X129266619Y-103126793D01*
X129277663Y-103160982D01*
X129281429Y-103171613D01*
X129287067Y-103187532D01*
X129289957Y-103195021D01*
X129290053Y-103195445D01*
X129290187Y-103195622D01*
X129297897Y-103230064D01*
X129300372Y-103261962D01*
X129300528Y-103264239D01*
X129303966Y-103322414D01*
X129304050Y-103324016D01*
X129307344Y-103395434D01*
X129307395Y-103396670D01*
X129310384Y-103479394D01*
X129310417Y-103480418D01*
X129312979Y-103572383D01*
X129313001Y-103573276D01*
X129315090Y-103674441D01*
X129315096Y-103674768D01*
X129315495Y-103696954D01*
X129315541Y-103699178D01*
X129318114Y-103811975D01*
X129318251Y-103816931D01*
X129321471Y-103915096D01*
X129321742Y-103921966D01*
X129325625Y-104006045D01*
X129326152Y-104015496D01*
X129330705Y-104085545D01*
X129331821Y-104099651D01*
X129337042Y-104155687D01*
X129339738Y-104178827D01*
X129345638Y-104221000D01*
X129345642Y-104221021D01*
X129356110Y-104274579D01*
X129362982Y-104301827D01*
X129375515Y-104343778D01*
X129387510Y-104378388D01*
X129397629Y-104405119D01*
X129410959Y-104437530D01*
X129412785Y-104441969D01*
X129413460Y-104443500D01*
X129423067Y-104465285D01*
X129439601Y-104500351D01*
X129454196Y-104528917D01*
X129470321Y-104558151D01*
X129470344Y-104558190D01*
X129503468Y-104610600D01*
X129502829Y-104611003D01*
X129523129Y-104674846D01*
X129504942Y-104742307D01*
X129496129Y-104754892D01*
X129463939Y-104795279D01*
X129463935Y-104795285D01*
X129410510Y-104877595D01*
X129410509Y-104877596D01*
X129379993Y-104936430D01*
X129379991Y-104936434D01*
X129342202Y-105031972D01*
X129342195Y-105031991D01*
X129324302Y-105095447D01*
X129324292Y-105095485D01*
X129311764Y-105152233D01*
X129310894Y-105157639D01*
X129306540Y-105192207D01*
X129304270Y-105217148D01*
X129304019Y-105219911D01*
X129303813Y-105233483D01*
X129302858Y-105296226D01*
X129302858Y-105296229D01*
X129304514Y-105323634D01*
X129304514Y-105323637D01*
X129304515Y-105323642D01*
X129304755Y-105325404D01*
X129314705Y-105398560D01*
X129314705Y-105398561D01*
X129321191Y-105428983D01*
X129321191Y-105428986D01*
X129335025Y-105480411D01*
X129335026Y-105480414D01*
X129346990Y-105517072D01*
X129352303Y-105531871D01*
X129356426Y-105601619D01*
X129322186Y-105662524D01*
X129309978Y-105672979D01*
X129256269Y-105713245D01*
X129194206Y-105768280D01*
X129152526Y-105811856D01*
X129152506Y-105811879D01*
X129090242Y-105891626D01*
X129060198Y-105939267D01*
X129012979Y-106035425D01*
X129012974Y-106035436D01*
X128993677Y-106088250D01*
X128993673Y-106088263D01*
X128969316Y-106181918D01*
X128959861Y-106241052D01*
X128954364Y-106291687D01*
X128954360Y-106291732D01*
X128953130Y-106313014D01*
X128952371Y-106351347D01*
X128953029Y-106387671D01*
X128953030Y-106387696D01*
X128953498Y-106393165D01*
X128947938Y-106420546D01*
X128945623Y-106448401D01*
X128941080Y-106454324D01*
X128939596Y-106461638D01*
X128920113Y-106481669D01*
X128903108Y-106503847D01*
X128894771Y-106507724D01*
X128890882Y-106511724D01*
X128871938Y-106520402D01*
X128865603Y-106522681D01*
X128864542Y-106522925D01*
X128850596Y-106526332D01*
X128821921Y-106533770D01*
X128785577Y-106544668D01*
X128759735Y-106553487D01*
X128684594Y-106586146D01*
X128675006Y-106591273D01*
X128666489Y-106594339D01*
X128640274Y-106595910D01*
X128614558Y-106601266D01*
X128605948Y-106597967D01*
X128596744Y-106598519D01*
X128573836Y-106585664D01*
X128549312Y-106576269D01*
X128543852Y-106568840D01*
X128535812Y-106564328D01*
X128523490Y-106541130D01*
X128507939Y-106519967D01*
X128505805Y-106507834D01*
X128503037Y-106502622D01*
X128503631Y-106495472D01*
X128500500Y-106477665D01*
X128500500Y-91531882D01*
X133375669Y-91531882D01*
X133375670Y-91531883D01*
X133401059Y-91550329D01*
X133569362Y-91636085D01*
X133748997Y-91694451D01*
X133935553Y-91724000D01*
X134124447Y-91724000D01*
X134311002Y-91694451D01*
X134490637Y-91636085D01*
X134658937Y-91550331D01*
X134684328Y-91531883D01*
X134684328Y-91531882D01*
X134030001Y-90877554D01*
X134030000Y-90877554D01*
X133375669Y-91531882D01*
X128500500Y-91531882D01*
X128500500Y-90429552D01*
X132830000Y-90429552D01*
X132830000Y-90618447D01*
X132859548Y-90805002D01*
X132917914Y-90984637D01*
X133003666Y-91152933D01*
X133022116Y-91178328D01*
X133676446Y-90524000D01*
X133676446Y-90523999D01*
X133630369Y-90477922D01*
X133680000Y-90477922D01*
X133680000Y-90570078D01*
X133703852Y-90659095D01*
X133749930Y-90738905D01*
X133815095Y-90804070D01*
X133894905Y-90850148D01*
X133983922Y-90874000D01*
X134076078Y-90874000D01*
X134165095Y-90850148D01*
X134244905Y-90804070D01*
X134310070Y-90738905D01*
X134356148Y-90659095D01*
X134380000Y-90570078D01*
X134380000Y-90523999D01*
X134383554Y-90523999D01*
X134383554Y-90524000D01*
X135037882Y-91178328D01*
X135037883Y-91178328D01*
X135056331Y-91152937D01*
X135142085Y-90984637D01*
X135200451Y-90805002D01*
X135230000Y-90618447D01*
X135230000Y-90429552D01*
X135229994Y-90429513D01*
X140449500Y-90429513D01*
X140449500Y-90618486D01*
X140479059Y-90805118D01*
X140537454Y-90984836D01*
X140623104Y-91152933D01*
X140623240Y-91153199D01*
X140734310Y-91306073D01*
X140867927Y-91439690D01*
X141020801Y-91550760D01*
X141100347Y-91591290D01*
X141189163Y-91636545D01*
X141189165Y-91636545D01*
X141189168Y-91636547D01*
X141285497Y-91667846D01*
X141368881Y-91694940D01*
X141555514Y-91724500D01*
X141555519Y-91724500D01*
X141744486Y-91724500D01*
X141931118Y-91694940D01*
X141932623Y-91694451D01*
X142110832Y-91636547D01*
X142279199Y-91550760D01*
X142305182Y-91531882D01*
X153695669Y-91531882D01*
X153695670Y-91531883D01*
X153721059Y-91550329D01*
X153889362Y-91636085D01*
X154068997Y-91694451D01*
X154255553Y-91724000D01*
X154444447Y-91724000D01*
X154631002Y-91694451D01*
X154810637Y-91636085D01*
X154978937Y-91550331D01*
X155004328Y-91531883D01*
X155004328Y-91531882D01*
X154350001Y-90877554D01*
X154350000Y-90877554D01*
X153695669Y-91531882D01*
X142305182Y-91531882D01*
X142432073Y-91439690D01*
X142565690Y-91306073D01*
X142676760Y-91153199D01*
X142762547Y-90984832D01*
X142820940Y-90805118D01*
X142831427Y-90738905D01*
X142850500Y-90618486D01*
X142850500Y-90429552D01*
X153150000Y-90429552D01*
X153150000Y-90618447D01*
X153179548Y-90805002D01*
X153237914Y-90984637D01*
X153323666Y-91152933D01*
X153342116Y-91178328D01*
X153996446Y-90524000D01*
X153996446Y-90523999D01*
X153950369Y-90477922D01*
X154000000Y-90477922D01*
X154000000Y-90570078D01*
X154023852Y-90659095D01*
X154069930Y-90738905D01*
X154135095Y-90804070D01*
X154214905Y-90850148D01*
X154303922Y-90874000D01*
X154396078Y-90874000D01*
X154485095Y-90850148D01*
X154564905Y-90804070D01*
X154630070Y-90738905D01*
X154676148Y-90659095D01*
X154700000Y-90570078D01*
X154700000Y-90523999D01*
X154703554Y-90523999D01*
X154703554Y-90524000D01*
X155357882Y-91178328D01*
X155357883Y-91178328D01*
X155376331Y-91152937D01*
X155462085Y-90984637D01*
X155520451Y-90805002D01*
X155550000Y-90618447D01*
X155550000Y-90429552D01*
X155549994Y-90429513D01*
X160769500Y-90429513D01*
X160769500Y-90618486D01*
X160799059Y-90805118D01*
X160857454Y-90984836D01*
X160943104Y-91152933D01*
X160943240Y-91153199D01*
X161054310Y-91306073D01*
X161187927Y-91439690D01*
X161340801Y-91550760D01*
X161420347Y-91591290D01*
X161509163Y-91636545D01*
X161509165Y-91636545D01*
X161509168Y-91636547D01*
X161605497Y-91667846D01*
X161688881Y-91694940D01*
X161875514Y-91724500D01*
X161875519Y-91724500D01*
X162064486Y-91724500D01*
X162251118Y-91694940D01*
X162252623Y-91694451D01*
X162430832Y-91636547D01*
X162599199Y-91550760D01*
X162752073Y-91439690D01*
X162885690Y-91306073D01*
X162996760Y-91153199D01*
X163082547Y-90984832D01*
X163140940Y-90805118D01*
X163151427Y-90738905D01*
X163170500Y-90618486D01*
X163170500Y-90429513D01*
X163140940Y-90242881D01*
X163082545Y-90063163D01*
X163037290Y-89974347D01*
X162996760Y-89894801D01*
X162885690Y-89741927D01*
X162752073Y-89608310D01*
X162599199Y-89497240D01*
X162430836Y-89411454D01*
X162251118Y-89353059D01*
X162064486Y-89323500D01*
X162064481Y-89323500D01*
X161875519Y-89323500D01*
X161875514Y-89323500D01*
X161688881Y-89353059D01*
X161509163Y-89411454D01*
X161340800Y-89497240D01*
X161253579Y-89560610D01*
X161187927Y-89608310D01*
X161187925Y-89608312D01*
X161187924Y-89608312D01*
X161054312Y-89741924D01*
X161054312Y-89741925D01*
X161054310Y-89741927D01*
X161006610Y-89807579D01*
X160943240Y-89894800D01*
X160857454Y-90063163D01*
X160799059Y-90242881D01*
X160769500Y-90429513D01*
X155549994Y-90429513D01*
X155520451Y-90242997D01*
X155462085Y-90063362D01*
X155376329Y-89895059D01*
X155357883Y-89869670D01*
X155357882Y-89869669D01*
X154703554Y-90523999D01*
X154700000Y-90523999D01*
X154700000Y-90477922D01*
X154676148Y-90388905D01*
X154630070Y-90309095D01*
X154564905Y-90243930D01*
X154485095Y-90197852D01*
X154396078Y-90174000D01*
X154303922Y-90174000D01*
X154214905Y-90197852D01*
X154135095Y-90243930D01*
X154069930Y-90309095D01*
X154023852Y-90388905D01*
X154000000Y-90477922D01*
X153950369Y-90477922D01*
X153342116Y-89869669D01*
X153342116Y-89869670D01*
X153323669Y-89895060D01*
X153237914Y-90063362D01*
X153179548Y-90242997D01*
X153150000Y-90429552D01*
X142850500Y-90429552D01*
X142850500Y-90429513D01*
X142820940Y-90242881D01*
X142762545Y-90063163D01*
X142717290Y-89974347D01*
X142676760Y-89894801D01*
X142565690Y-89741927D01*
X142432073Y-89608310D01*
X142305179Y-89516116D01*
X153695669Y-89516116D01*
X154350000Y-90170446D01*
X154350001Y-90170446D01*
X155004328Y-89516116D01*
X154978933Y-89497666D01*
X154810637Y-89411914D01*
X154631002Y-89353548D01*
X154444447Y-89324000D01*
X154255553Y-89324000D01*
X154068997Y-89353548D01*
X153889362Y-89411914D01*
X153721060Y-89497669D01*
X153695670Y-89516116D01*
X153695669Y-89516116D01*
X142305179Y-89516116D01*
X142279199Y-89497240D01*
X142110836Y-89411454D01*
X141931118Y-89353059D01*
X141744486Y-89323500D01*
X141744481Y-89323500D01*
X141555519Y-89323500D01*
X141555514Y-89323500D01*
X141368881Y-89353059D01*
X141189163Y-89411454D01*
X141020800Y-89497240D01*
X140933579Y-89560610D01*
X140867927Y-89608310D01*
X140867925Y-89608312D01*
X140867924Y-89608312D01*
X140734312Y-89741924D01*
X140734312Y-89741925D01*
X140734310Y-89741927D01*
X140686610Y-89807579D01*
X140623240Y-89894800D01*
X140537454Y-90063163D01*
X140479059Y-90242881D01*
X140449500Y-90429513D01*
X135229994Y-90429513D01*
X135200451Y-90242997D01*
X135142085Y-90063362D01*
X135056329Y-89895059D01*
X135037883Y-89869670D01*
X135037882Y-89869669D01*
X134383554Y-90523999D01*
X134380000Y-90523999D01*
X134380000Y-90477922D01*
X134356148Y-90388905D01*
X134310070Y-90309095D01*
X134244905Y-90243930D01*
X134165095Y-90197852D01*
X134076078Y-90174000D01*
X133983922Y-90174000D01*
X133894905Y-90197852D01*
X133815095Y-90243930D01*
X133749930Y-90309095D01*
X133703852Y-90388905D01*
X133680000Y-90477922D01*
X133630369Y-90477922D01*
X133022116Y-89869669D01*
X133022116Y-89869670D01*
X133003669Y-89895060D01*
X132917914Y-90063362D01*
X132859548Y-90242997D01*
X132830000Y-90429552D01*
X128500500Y-90429552D01*
X128500500Y-89516116D01*
X133375669Y-89516116D01*
X134030000Y-90170446D01*
X134030001Y-90170446D01*
X134684328Y-89516116D01*
X134658933Y-89497666D01*
X134490637Y-89411914D01*
X134311002Y-89353548D01*
X134124447Y-89324000D01*
X133935553Y-89324000D01*
X133748997Y-89353548D01*
X133569362Y-89411914D01*
X133401060Y-89497669D01*
X133375670Y-89516116D01*
X133375669Y-89516116D01*
X128500500Y-89516116D01*
X128500500Y-86619513D01*
X132829500Y-86619513D01*
X132829500Y-86808486D01*
X132859059Y-86995118D01*
X132917454Y-87174836D01*
X133003240Y-87343199D01*
X133114310Y-87496073D01*
X133247927Y-87629690D01*
X133400801Y-87740760D01*
X133480347Y-87781290D01*
X133569163Y-87826545D01*
X133569165Y-87826545D01*
X133569168Y-87826547D01*
X133665497Y-87857846D01*
X133748881Y-87884940D01*
X133935514Y-87914500D01*
X133935519Y-87914500D01*
X134124486Y-87914500D01*
X134311118Y-87884940D01*
X134490832Y-87826547D01*
X134659199Y-87740760D01*
X134812073Y-87629690D01*
X134945690Y-87496073D01*
X135056760Y-87343199D01*
X135142547Y-87174832D01*
X135200940Y-86995118D01*
X135230500Y-86808486D01*
X135230500Y-86619513D01*
X140449500Y-86619513D01*
X140449500Y-86808486D01*
X140479059Y-86995118D01*
X140537454Y-87174836D01*
X140623240Y-87343199D01*
X140734310Y-87496073D01*
X140867927Y-87629690D01*
X141020801Y-87740760D01*
X141100347Y-87781290D01*
X141189163Y-87826545D01*
X141189165Y-87826545D01*
X141189168Y-87826547D01*
X141285497Y-87857846D01*
X141368881Y-87884940D01*
X141555514Y-87914500D01*
X141555519Y-87914500D01*
X141744486Y-87914500D01*
X141931118Y-87884940D01*
X142110832Y-87826547D01*
X142279199Y-87740760D01*
X142432073Y-87629690D01*
X142565690Y-87496073D01*
X142676760Y-87343199D01*
X142762547Y-87174832D01*
X142820940Y-86995118D01*
X142850500Y-86808486D01*
X142850500Y-86619513D01*
X153149500Y-86619513D01*
X153149500Y-86808486D01*
X153179059Y-86995118D01*
X153237454Y-87174836D01*
X153323240Y-87343199D01*
X153434310Y-87496073D01*
X153567927Y-87629690D01*
X153720801Y-87740760D01*
X153800347Y-87781290D01*
X153889163Y-87826545D01*
X153889165Y-87826545D01*
X153889168Y-87826547D01*
X153985497Y-87857846D01*
X154068881Y-87884940D01*
X154255514Y-87914500D01*
X154255519Y-87914500D01*
X154444486Y-87914500D01*
X154631118Y-87884940D01*
X154810832Y-87826547D01*
X154979199Y-87740760D01*
X155132073Y-87629690D01*
X155265690Y-87496073D01*
X155376760Y-87343199D01*
X155462547Y-87174832D01*
X155520940Y-86995118D01*
X155550500Y-86808486D01*
X155550500Y-86619513D01*
X160769500Y-86619513D01*
X160769500Y-86808486D01*
X160799059Y-86995118D01*
X160857454Y-87174836D01*
X160943240Y-87343199D01*
X161054310Y-87496073D01*
X161187927Y-87629690D01*
X161340801Y-87740760D01*
X161420347Y-87781290D01*
X161509163Y-87826545D01*
X161509165Y-87826545D01*
X161509168Y-87826547D01*
X161605497Y-87857846D01*
X161688881Y-87884940D01*
X161875514Y-87914500D01*
X161875519Y-87914500D01*
X162064486Y-87914500D01*
X162251118Y-87884940D01*
X162430832Y-87826547D01*
X162599199Y-87740760D01*
X162752073Y-87629690D01*
X162885690Y-87496073D01*
X162996760Y-87343199D01*
X163082547Y-87174832D01*
X163140940Y-86995118D01*
X163170500Y-86808486D01*
X163170500Y-86619513D01*
X163140940Y-86432881D01*
X163082545Y-86253163D01*
X162996759Y-86084800D01*
X162885690Y-85931927D01*
X162752073Y-85798310D01*
X162599199Y-85687240D01*
X162430836Y-85601454D01*
X162251118Y-85543059D01*
X162064486Y-85513500D01*
X162064481Y-85513500D01*
X161875519Y-85513500D01*
X161875514Y-85513500D01*
X161688881Y-85543059D01*
X161509163Y-85601454D01*
X161340800Y-85687240D01*
X161253579Y-85750610D01*
X161187927Y-85798310D01*
X161187925Y-85798312D01*
X161187924Y-85798312D01*
X161054312Y-85931924D01*
X161054312Y-85931925D01*
X161054310Y-85931927D01*
X161006610Y-85997579D01*
X160943240Y-86084800D01*
X160857454Y-86253163D01*
X160799059Y-86432881D01*
X160769500Y-86619513D01*
X155550500Y-86619513D01*
X155520940Y-86432881D01*
X155462545Y-86253163D01*
X155376759Y-86084800D01*
X155265690Y-85931927D01*
X155132073Y-85798310D01*
X154979199Y-85687240D01*
X154810836Y-85601454D01*
X154631118Y-85543059D01*
X154444486Y-85513500D01*
X154444481Y-85513500D01*
X154255519Y-85513500D01*
X154255514Y-85513500D01*
X154068881Y-85543059D01*
X153889163Y-85601454D01*
X153720800Y-85687240D01*
X153633579Y-85750610D01*
X153567927Y-85798310D01*
X153567925Y-85798312D01*
X153567924Y-85798312D01*
X153434312Y-85931924D01*
X153434312Y-85931925D01*
X153434310Y-85931927D01*
X153386610Y-85997579D01*
X153323240Y-86084800D01*
X153237454Y-86253163D01*
X153179059Y-86432881D01*
X153149500Y-86619513D01*
X142850500Y-86619513D01*
X142820940Y-86432881D01*
X142762545Y-86253163D01*
X142676759Y-86084800D01*
X142565690Y-85931927D01*
X142432073Y-85798310D01*
X142279199Y-85687240D01*
X142110836Y-85601454D01*
X141931118Y-85543059D01*
X141744486Y-85513500D01*
X141744481Y-85513500D01*
X141555519Y-85513500D01*
X141555514Y-85513500D01*
X141368881Y-85543059D01*
X141189163Y-85601454D01*
X141020800Y-85687240D01*
X140933579Y-85750610D01*
X140867927Y-85798310D01*
X140867925Y-85798312D01*
X140867924Y-85798312D01*
X140734312Y-85931924D01*
X140734312Y-85931925D01*
X140734310Y-85931927D01*
X140686610Y-85997579D01*
X140623240Y-86084800D01*
X140537454Y-86253163D01*
X140479059Y-86432881D01*
X140449500Y-86619513D01*
X135230500Y-86619513D01*
X135200940Y-86432881D01*
X135142545Y-86253163D01*
X135056759Y-86084800D01*
X134945690Y-85931927D01*
X134812073Y-85798310D01*
X134659199Y-85687240D01*
X134490836Y-85601454D01*
X134311118Y-85543059D01*
X134124486Y-85513500D01*
X134124481Y-85513500D01*
X133935519Y-85513500D01*
X133935514Y-85513500D01*
X133748881Y-85543059D01*
X133569163Y-85601454D01*
X133400800Y-85687240D01*
X133313579Y-85750610D01*
X133247927Y-85798310D01*
X133247925Y-85798312D01*
X133247924Y-85798312D01*
X133114312Y-85931924D01*
X133114312Y-85931925D01*
X133114310Y-85931927D01*
X133066610Y-85997579D01*
X133003240Y-86084800D01*
X132917454Y-86253163D01*
X132859059Y-86432881D01*
X132829500Y-86619513D01*
X128500500Y-86619513D01*
X128500500Y-81569441D01*
X138591500Y-81569441D01*
X138591500Y-82206558D01*
X138606157Y-82336648D01*
X138606159Y-82336658D01*
X138616396Y-82365913D01*
X138663878Y-82501606D01*
X138756853Y-82649576D01*
X138880424Y-82773147D01*
X139028394Y-82866122D01*
X139193343Y-82923841D01*
X139193349Y-82923841D01*
X139193351Y-82923842D01*
X139234750Y-82928506D01*
X139323442Y-82938499D01*
X139323445Y-82938500D01*
X139323448Y-82938500D01*
X140660555Y-82938500D01*
X140660556Y-82938499D01*
X140790657Y-82923841D01*
X140816040Y-82914959D01*
X140856995Y-82908000D01*
X141417025Y-82908000D01*
X141381930Y-82943095D01*
X141335852Y-83022905D01*
X141312000Y-83111922D01*
X141312000Y-83204078D01*
X141335852Y-83293095D01*
X141381930Y-83372905D01*
X141417025Y-83408000D01*
X140662000Y-83408000D01*
X140662000Y-83755844D01*
X140668401Y-83815372D01*
X140668403Y-83815379D01*
X140718645Y-83950086D01*
X140718649Y-83950093D01*
X140804809Y-84065187D01*
X140804812Y-84065190D01*
X140919906Y-84151350D01*
X140919913Y-84151354D01*
X141054620Y-84201596D01*
X141054627Y-84201598D01*
X141114155Y-84207999D01*
X141114172Y-84208000D01*
X141812000Y-84208000D01*
X142312000Y-84208000D01*
X143009828Y-84208000D01*
X143009844Y-84207999D01*
X143069372Y-84201598D01*
X143069379Y-84201596D01*
X143204086Y-84151354D01*
X143204093Y-84151350D01*
X143319187Y-84065190D01*
X143319190Y-84065187D01*
X143405350Y-83950093D01*
X143405354Y-83950086D01*
X143455596Y-83815379D01*
X143455598Y-83815372D01*
X143461999Y-83755844D01*
X143462000Y-83755827D01*
X143462000Y-83408000D01*
X142312000Y-83408000D01*
X142312000Y-84208000D01*
X141812000Y-84208000D01*
X141812000Y-83475542D01*
X141876905Y-83438070D01*
X141942070Y-83372905D01*
X141988148Y-83293095D01*
X142012000Y-83204078D01*
X142012000Y-83111922D01*
X141988148Y-83022905D01*
X141942070Y-82943095D01*
X141906975Y-82908000D01*
X142312000Y-82908000D01*
X143462000Y-82908000D01*
X143462000Y-82560172D01*
X143461999Y-82560155D01*
X143455598Y-82500627D01*
X143455596Y-82500620D01*
X143405354Y-82365913D01*
X143405350Y-82365906D01*
X143319190Y-82250812D01*
X143319187Y-82250809D01*
X143204093Y-82164649D01*
X143204086Y-82164645D01*
X143069379Y-82114403D01*
X143069372Y-82114401D01*
X143009844Y-82108000D01*
X142312000Y-82108000D01*
X142312000Y-82908000D01*
X141906975Y-82908000D01*
X141876905Y-82877930D01*
X141812000Y-82840457D01*
X141812000Y-82108000D01*
X141516500Y-82108000D01*
X141507814Y-82105449D01*
X141498853Y-82106738D01*
X141474812Y-82095759D01*
X141449461Y-82088315D01*
X141443533Y-82081474D01*
X141435297Y-82077713D01*
X141421007Y-82055478D01*
X141403706Y-82035511D01*
X141401418Y-82024996D01*
X141397523Y-82018935D01*
X141392500Y-81984000D01*
X141392500Y-81792500D01*
X141412185Y-81725461D01*
X141464989Y-81679706D01*
X141516500Y-81668500D01*
X142730555Y-81668500D01*
X142730556Y-81668499D01*
X142860657Y-81653841D01*
X143025606Y-81596122D01*
X143068069Y-81569441D01*
X151291500Y-81569441D01*
X151291500Y-82206558D01*
X151306157Y-82336648D01*
X151306159Y-82336658D01*
X151316396Y-82365913D01*
X151363878Y-82501606D01*
X151456853Y-82649576D01*
X151580424Y-82773147D01*
X151728394Y-82866122D01*
X151893343Y-82923841D01*
X151893349Y-82923841D01*
X151893351Y-82923842D01*
X151934750Y-82928506D01*
X152023442Y-82938499D01*
X152023445Y-82938500D01*
X152023448Y-82938500D01*
X153360555Y-82938500D01*
X153360556Y-82938499D01*
X153490657Y-82923841D01*
X153516040Y-82914959D01*
X153556995Y-82908000D01*
X154117025Y-82908000D01*
X154081930Y-82943095D01*
X154035852Y-83022905D01*
X154012000Y-83111922D01*
X154012000Y-83204078D01*
X154035852Y-83293095D01*
X154081930Y-83372905D01*
X154117025Y-83408000D01*
X153362000Y-83408000D01*
X153362000Y-83755844D01*
X153368401Y-83815372D01*
X153368403Y-83815379D01*
X153418645Y-83950086D01*
X153418649Y-83950093D01*
X153504809Y-84065187D01*
X153504812Y-84065190D01*
X153619906Y-84151350D01*
X153619913Y-84151354D01*
X153754620Y-84201596D01*
X153754627Y-84201598D01*
X153814155Y-84207999D01*
X153814172Y-84208000D01*
X154512000Y-84208000D01*
X155012000Y-84208000D01*
X155709828Y-84208000D01*
X155709844Y-84207999D01*
X155769372Y-84201598D01*
X155769379Y-84201596D01*
X155904086Y-84151354D01*
X155904093Y-84151350D01*
X156019187Y-84065190D01*
X156019190Y-84065187D01*
X156105350Y-83950093D01*
X156105354Y-83950086D01*
X156155596Y-83815379D01*
X156155598Y-83815372D01*
X156161999Y-83755844D01*
X156162000Y-83755827D01*
X156162000Y-83408000D01*
X155012000Y-83408000D01*
X155012000Y-84208000D01*
X154512000Y-84208000D01*
X154512000Y-83475542D01*
X154576905Y-83438070D01*
X154642070Y-83372905D01*
X154688148Y-83293095D01*
X154712000Y-83204078D01*
X154712000Y-83111922D01*
X154688148Y-83022905D01*
X154642070Y-82943095D01*
X154606975Y-82908000D01*
X155012000Y-82908000D01*
X156162000Y-82908000D01*
X156162000Y-82560172D01*
X156161999Y-82560155D01*
X156155598Y-82500627D01*
X156155596Y-82500620D01*
X156105354Y-82365913D01*
X156105350Y-82365906D01*
X156019190Y-82250812D01*
X156019187Y-82250809D01*
X155904093Y-82164649D01*
X155904086Y-82164645D01*
X155769379Y-82114403D01*
X155769372Y-82114401D01*
X155709844Y-82108000D01*
X155012000Y-82108000D01*
X155012000Y-82908000D01*
X154606975Y-82908000D01*
X154576905Y-82877930D01*
X154512000Y-82840457D01*
X154512000Y-82108000D01*
X154216500Y-82108000D01*
X154207814Y-82105449D01*
X154198853Y-82106738D01*
X154174812Y-82095759D01*
X154149461Y-82088315D01*
X154143533Y-82081474D01*
X154135297Y-82077713D01*
X154121007Y-82055478D01*
X154103706Y-82035511D01*
X154101418Y-82024996D01*
X154097523Y-82018935D01*
X154092500Y-81984000D01*
X154092500Y-81792500D01*
X154112185Y-81725461D01*
X154164989Y-81679706D01*
X154216500Y-81668500D01*
X155430555Y-81668500D01*
X155430556Y-81668499D01*
X155560657Y-81653841D01*
X155725606Y-81596122D01*
X155873576Y-81503147D01*
X155997147Y-81379576D01*
X156090122Y-81231606D01*
X156147841Y-81066657D01*
X156162500Y-80936552D01*
X156162500Y-80299448D01*
X156147841Y-80169343D01*
X156090122Y-80004394D01*
X155997147Y-79856424D01*
X155873576Y-79732853D01*
X155725606Y-79639878D01*
X155725605Y-79639877D01*
X155725604Y-79639877D01*
X155560658Y-79582159D01*
X155560648Y-79582157D01*
X155430558Y-79567500D01*
X155430552Y-79567500D01*
X154093448Y-79567500D01*
X154093441Y-79567500D01*
X153963351Y-79582157D01*
X153963341Y-79582159D01*
X153798395Y-79639877D01*
X153650423Y-79732853D01*
X153526853Y-79856423D01*
X153433877Y-80004395D01*
X153376159Y-80169341D01*
X153376157Y-80169351D01*
X153361500Y-80299441D01*
X153361500Y-80713500D01*
X153341815Y-80780539D01*
X153289011Y-80826294D01*
X153237500Y-80837500D01*
X152023441Y-80837500D01*
X151893351Y-80852157D01*
X151893341Y-80852159D01*
X151728395Y-80909877D01*
X151580423Y-81002853D01*
X151456853Y-81126423D01*
X151363877Y-81274395D01*
X151306159Y-81439341D01*
X151306157Y-81439351D01*
X151291500Y-81569441D01*
X143068069Y-81569441D01*
X143173576Y-81503147D01*
X143297147Y-81379576D01*
X143390122Y-81231606D01*
X143447841Y-81066657D01*
X143462500Y-80936552D01*
X143462500Y-80299448D01*
X143447841Y-80169343D01*
X143390122Y-80004394D01*
X143297147Y-79856424D01*
X143173576Y-79732853D01*
X143025606Y-79639878D01*
X143025605Y-79639877D01*
X143025604Y-79639877D01*
X142860658Y-79582159D01*
X142860648Y-79582157D01*
X142730558Y-79567500D01*
X142730552Y-79567500D01*
X141393448Y-79567500D01*
X141393441Y-79567500D01*
X141263351Y-79582157D01*
X141263341Y-79582159D01*
X141098395Y-79639877D01*
X140950423Y-79732853D01*
X140826853Y-79856423D01*
X140733877Y-80004395D01*
X140676159Y-80169341D01*
X140676157Y-80169351D01*
X140661500Y-80299441D01*
X140661500Y-80713500D01*
X140641815Y-80780539D01*
X140589011Y-80826294D01*
X140537500Y-80837500D01*
X139323441Y-80837500D01*
X139193351Y-80852157D01*
X139193341Y-80852159D01*
X139028395Y-80909877D01*
X138880423Y-81002853D01*
X138756853Y-81126423D01*
X138663877Y-81274395D01*
X138606159Y-81439341D01*
X138606157Y-81439351D01*
X138591500Y-81569441D01*
X128500500Y-81569441D01*
X128500500Y-75503051D01*
X128500649Y-75496967D01*
X128503737Y-75434108D01*
X128517052Y-75163068D01*
X128518245Y-75150961D01*
X128521072Y-75131902D01*
X130249500Y-75131902D01*
X130249500Y-75368097D01*
X130286446Y-75601368D01*
X130359433Y-75825996D01*
X130397191Y-75900099D01*
X130466657Y-76036433D01*
X130605483Y-76227510D01*
X130772490Y-76394517D01*
X130963567Y-76533343D01*
X131062991Y-76584002D01*
X131174003Y-76640566D01*
X131174005Y-76640566D01*
X131174008Y-76640568D01*
X131294412Y-76679689D01*
X131398631Y-76713553D01*
X131631903Y-76750500D01*
X131631908Y-76750500D01*
X131868097Y-76750500D01*
X132101368Y-76713553D01*
X132325992Y-76640568D01*
X132536433Y-76533343D01*
X132727510Y-76394517D01*
X132894517Y-76227510D01*
X133033343Y-76036433D01*
X133140568Y-75825992D01*
X133213553Y-75601368D01*
X133229608Y-75499999D01*
X133250500Y-75368097D01*
X133250500Y-75131902D01*
X133213553Y-74898631D01*
X133196630Y-74846548D01*
X133140568Y-74674008D01*
X133136474Y-74665973D01*
X133130934Y-74655099D01*
X133103947Y-74602135D01*
X144109500Y-74602135D01*
X144109500Y-76397870D01*
X144109501Y-76397876D01*
X144115908Y-76457483D01*
X144166202Y-76592328D01*
X144166206Y-76592335D01*
X144252452Y-76707544D01*
X144252455Y-76707547D01*
X144367664Y-76793793D01*
X144367671Y-76793797D01*
X144502517Y-76844091D01*
X144502516Y-76844091D01*
X144509444Y-76844835D01*
X144562127Y-76850500D01*
X146357872Y-76850499D01*
X146417483Y-76844091D01*
X146552331Y-76793796D01*
X146667546Y-76707546D01*
X146753796Y-76592331D01*
X146804091Y-76457483D01*
X146810500Y-76397873D01*
X146810499Y-76373979D01*
X146813330Y-76360963D01*
X146823940Y-76341525D01*
X146830179Y-76320275D01*
X146846803Y-76299643D01*
X146846808Y-76299636D01*
X146846811Y-76299634D01*
X146846818Y-76299626D01*
X147517037Y-75629408D01*
X147534075Y-75692993D01*
X147599901Y-75807007D01*
X147692993Y-75900099D01*
X147807007Y-75965925D01*
X147870590Y-75982962D01*
X147238282Y-76615269D01*
X147238282Y-76615270D01*
X147292449Y-76654624D01*
X147481782Y-76751095D01*
X147683870Y-76816757D01*
X147893754Y-76850000D01*
X148106246Y-76850000D01*
X148316127Y-76816757D01*
X148316130Y-76816757D01*
X148518217Y-76751095D01*
X148707554Y-76654622D01*
X148761716Y-76615270D01*
X148761717Y-76615270D01*
X148129408Y-75982962D01*
X148192993Y-75965925D01*
X148307007Y-75900099D01*
X148400099Y-75807007D01*
X148465925Y-75692993D01*
X148482962Y-75629408D01*
X149115270Y-76261717D01*
X149115270Y-76261716D01*
X149154622Y-76207555D01*
X149159232Y-76198507D01*
X149207205Y-76147709D01*
X149275025Y-76130912D01*
X149341161Y-76153447D01*
X149380204Y-76198504D01*
X149384949Y-76207817D01*
X149509890Y-76379786D01*
X149660213Y-76530109D01*
X149832179Y-76655048D01*
X149832181Y-76655049D01*
X149832184Y-76655051D01*
X150021588Y-76751557D01*
X150223757Y-76817246D01*
X150433713Y-76850500D01*
X150433714Y-76850500D01*
X150646286Y-76850500D01*
X150646287Y-76850500D01*
X150856243Y-76817246D01*
X151058412Y-76751557D01*
X151247816Y-76655051D01*
X151334138Y-76592335D01*
X151419786Y-76530109D01*
X151419788Y-76530106D01*
X151419792Y-76530104D01*
X151570104Y-76379792D01*
X151570106Y-76379788D01*
X151570109Y-76379786D01*
X151695048Y-76207820D01*
X151695050Y-76207817D01*
X151695051Y-76207816D01*
X151791557Y-76018412D01*
X151857246Y-75816243D01*
X151890500Y-75606287D01*
X151890500Y-75393713D01*
X151857246Y-75183757D01*
X151840397Y-75131902D01*
X162749500Y-75131902D01*
X162749500Y-75368097D01*
X162786446Y-75601368D01*
X162859433Y-75825996D01*
X162897191Y-75900099D01*
X162966657Y-76036433D01*
X163105483Y-76227510D01*
X163272490Y-76394517D01*
X163463567Y-76533343D01*
X163562991Y-76584002D01*
X163674003Y-76640566D01*
X163674005Y-76640566D01*
X163674008Y-76640568D01*
X163794412Y-76679689D01*
X163898631Y-76713553D01*
X164131903Y-76750500D01*
X164131908Y-76750500D01*
X164368097Y-76750500D01*
X164601368Y-76713553D01*
X164825992Y-76640568D01*
X165036433Y-76533343D01*
X165227510Y-76394517D01*
X165394517Y-76227510D01*
X165533343Y-76036433D01*
X165640568Y-75825992D01*
X165713553Y-75601368D01*
X165729608Y-75499999D01*
X165750500Y-75368097D01*
X165750500Y-75131902D01*
X165713553Y-74898631D01*
X165640566Y-74674003D01*
X165540906Y-74478411D01*
X165533343Y-74463567D01*
X165394517Y-74272490D01*
X165227510Y-74105483D01*
X165036433Y-73966657D01*
X164825996Y-73859433D01*
X164601368Y-73786446D01*
X164368097Y-73749500D01*
X164368092Y-73749500D01*
X164131908Y-73749500D01*
X164131903Y-73749500D01*
X163898631Y-73786446D01*
X163674003Y-73859433D01*
X163463566Y-73966657D01*
X163354550Y-74045862D01*
X163272490Y-74105483D01*
X163272488Y-74105485D01*
X163272487Y-74105485D01*
X163105485Y-74272487D01*
X163105485Y-74272488D01*
X163105483Y-74272490D01*
X163090978Y-74292455D01*
X162966657Y-74463566D01*
X162859433Y-74674003D01*
X162786446Y-74898631D01*
X162749500Y-75131902D01*
X151840397Y-75131902D01*
X151791557Y-74981588D01*
X151695051Y-74792184D01*
X151695049Y-74792181D01*
X151695048Y-74792179D01*
X151570109Y-74620213D01*
X151419786Y-74469890D01*
X151247820Y-74344951D01*
X151058414Y-74248444D01*
X151058413Y-74248443D01*
X151058412Y-74248443D01*
X150856243Y-74182754D01*
X150856241Y-74182753D01*
X150856240Y-74182753D01*
X150694957Y-74157208D01*
X150646287Y-74149500D01*
X150433713Y-74149500D01*
X150385042Y-74157208D01*
X150223760Y-74182753D01*
X150021585Y-74248444D01*
X149832179Y-74344951D01*
X149660213Y-74469890D01*
X149509890Y-74620213D01*
X149384949Y-74792182D01*
X149380202Y-74801499D01*
X149332227Y-74852293D01*
X149264405Y-74869087D01*
X149198271Y-74846548D01*
X149159234Y-74801495D01*
X149154626Y-74792452D01*
X149115270Y-74738282D01*
X149115269Y-74738282D01*
X148482962Y-75370590D01*
X148465925Y-75307007D01*
X148400099Y-75192993D01*
X148307007Y-75099901D01*
X148192993Y-75034075D01*
X148129409Y-75017037D01*
X148761716Y-74384728D01*
X148707550Y-74345375D01*
X148518217Y-74248904D01*
X148316129Y-74183242D01*
X148106246Y-74150000D01*
X147893754Y-74150000D01*
X147683872Y-74183242D01*
X147683869Y-74183242D01*
X147481782Y-74248904D01*
X147292439Y-74345380D01*
X147238282Y-74384727D01*
X147238282Y-74384728D01*
X147870591Y-75017037D01*
X147807007Y-75034075D01*
X147692993Y-75099901D01*
X147599901Y-75192993D01*
X147534075Y-75307007D01*
X147517037Y-75370591D01*
X146846818Y-74700372D01*
X146813333Y-74639049D01*
X146813330Y-74639036D01*
X146810499Y-74626015D01*
X146810499Y-74602128D01*
X146804091Y-74542517D01*
X146774644Y-74463566D01*
X146753798Y-74407673D01*
X146753793Y-74407664D01*
X146667547Y-74292455D01*
X146667544Y-74292452D01*
X146552335Y-74206206D01*
X146552328Y-74206202D01*
X146417482Y-74155908D01*
X146417483Y-74155908D01*
X146357883Y-74149501D01*
X146357881Y-74149500D01*
X146357873Y-74149500D01*
X146357864Y-74149500D01*
X144562129Y-74149500D01*
X144562123Y-74149501D01*
X144502516Y-74155908D01*
X144367671Y-74206202D01*
X144367664Y-74206206D01*
X144252455Y-74292452D01*
X144252452Y-74292455D01*
X144166206Y-74407664D01*
X144166202Y-74407671D01*
X144115908Y-74542517D01*
X144109501Y-74602116D01*
X144109500Y-74602135D01*
X133103947Y-74602135D01*
X133040906Y-74478411D01*
X133033343Y-74463567D01*
X132894517Y-74272490D01*
X132727510Y-74105483D01*
X132536433Y-73966657D01*
X132325996Y-73859433D01*
X132101368Y-73786446D01*
X131868097Y-73749500D01*
X131868092Y-73749500D01*
X131631908Y-73749500D01*
X131631903Y-73749500D01*
X131398631Y-73786446D01*
X131174003Y-73859433D01*
X130963566Y-73966657D01*
X130854550Y-74045862D01*
X130772490Y-74105483D01*
X130772488Y-74105485D01*
X130772487Y-74105485D01*
X130605485Y-74272487D01*
X130605485Y-74272488D01*
X130605483Y-74272490D01*
X130590978Y-74292455D01*
X130466657Y-74463566D01*
X130359433Y-74674003D01*
X130286446Y-74898631D01*
X130249500Y-75131902D01*
X128521072Y-75131902D01*
X128524493Y-75108841D01*
X128524493Y-75108840D01*
X128525819Y-75099901D01*
X128566849Y-74823296D01*
X128569218Y-74811385D01*
X128649710Y-74490043D01*
X128653240Y-74478411D01*
X128658552Y-74463566D01*
X128764835Y-74166525D01*
X128769476Y-74155318D01*
X128911124Y-73855828D01*
X128916840Y-73845136D01*
X129087145Y-73560998D01*
X129093888Y-73550905D01*
X129291232Y-73284818D01*
X129298935Y-73275433D01*
X129521405Y-73029975D01*
X129529975Y-73021405D01*
X129775433Y-72798935D01*
X129784818Y-72791232D01*
X130050905Y-72593888D01*
X130060998Y-72587145D01*
X130345136Y-72416840D01*
X130355828Y-72411124D01*
X130655318Y-72269476D01*
X130666525Y-72264835D01*
X130978412Y-72153239D01*
X130990043Y-72149710D01*
X131311385Y-72069218D01*
X131323296Y-72066849D01*
X131650962Y-72018244D01*
X131663068Y-72017052D01*
X131996967Y-72000648D01*
X132003051Y-72000500D01*
X132065892Y-72000500D01*
X163934108Y-72000500D01*
X163996949Y-72000500D01*
X164003032Y-72000648D01*
G37*
%TD.AperFunction*%
%TD*%
M02*
